<svg id="Calque_1" data-name="Calque 1" xmlns="http://www.w3.org/2000/svg" viewBox="0 0 44 30"><defs><style>.cls-1{fill:#fff;}</style></defs><path class="cls-1" d="M24,31.5A8.47,8.47,0,0,0,32.5,23,8.45,8.45,0,0,0,24,14.5,8.45,8.45,0,0,0,15.5,23,8.47,8.47,0,0,0,24,31.5Zm0-2.9A5.55,5.55,0,0,1,18.4,23,5.53,5.53,0,0,1,24,17.4,5.53,5.53,0,0,1,29.6,23,5.55,5.55,0,0,1,24,28.6ZM24,38a22.37,22.37,0,0,1-13.2-4.15A25.28,25.28,0,0,1,2,23a25.28,25.28,0,0,1,8.8-10.85A22.37,22.37,0,0,1,24,8a22.37,22.37,0,0,1,13.2,4.15A25.28,25.28,0,0,1,46,23a25.28,25.28,0,0,1-8.8,10.85A22.37,22.37,0,0,1,24,38Zm0-3a20,20,0,0,0,11.12-3.28A21.23,21.23,0,0,0,42.85,23a21.32,21.32,0,0,0-7.73-8.73A20.11,20.11,0,0,0,24,11a20.11,20.11,0,0,0-11.12,3.27A21.65,21.65,0,0,0,5.1,23a21.56,21.56,0,0,0,7.78,8.72A20,20,0,0,0,24,35Z" transform="translate(-2 -8)"/></svg>