<svg id="Calque_1" data-name="Calque 1" xmlns="http://www.w3.org/2000/svg" viewBox="0 0 44 40.05"><defs><style>.cls-1{fill:#fff;}</style></defs><path class="cls-1" d="M31.45,27.05l-2.2-2.2A5,5,0,0,0,27.9,19a5.33,5.33,0,0,0-5.75-1.2L20,15.55a6.08,6.08,0,0,1,1.9-.8A9.09,9.09,0,0,1,24,14.5,8.45,8.45,0,0,1,32.5,23a8.39,8.39,0,0,1-.28,2.17A6.55,6.55,0,0,1,31.45,27.05ZM37.9,33.5l-2-2a23.49,23.49,0,0,0,4.28-4A16.22,16.22,0,0,0,42.85,23a20,20,0,0,0-7.5-8.78A19.62,19.62,0,0,0,24.5,11a23.74,23.74,0,0,0-4.3.4,15.83,15.83,0,0,0-3.45.95L14.45,10a23.06,23.06,0,0,1,4.47-1.4A24.82,24.82,0,0,1,24.25,8a22.62,22.62,0,0,1,13.08,4.07A23.67,23.67,0,0,1,46,23a24.83,24.83,0,0,1-3.35,5.85A24.06,24.06,0,0,1,37.9,33.5Zm2.9,11.3-8.4-8.25a19.22,19.22,0,0,1-3.95,1.07A26.47,26.47,0,0,1,24,38a22.9,22.9,0,0,1-13.25-4.08A23.82,23.82,0,0,1,2,23a22.68,22.68,0,0,1,2.78-5.08A28.21,28.21,0,0,1,9.1,13.2L2.8,6.9,4.9,4.75,42.75,42.6ZM11.15,15.3a18.42,18.42,0,0,0-3.58,3.55A16.48,16.48,0,0,0,5.1,23a20,20,0,0,0,7.67,8.77A21.4,21.4,0,0,0,24.4,35a26.88,26.88,0,0,0,3.25-.2,7.53,7.53,0,0,0,2.4-.6L26.85,31a5.06,5.06,0,0,1-1.35.37,9,9,0,0,1-1.5.13,8.29,8.29,0,0,1-6-2.45A8.12,8.12,0,0,1,15.5,23a9.48,9.48,0,0,1,.12-1.5A6.31,6.31,0,0,1,16,20.15Z" transform="translate(-2 -4.75)"/></svg>