{
  "title" : "",
  "description" : "",
  "author" : "",
  "targetLoudness" : -18.0,
  "shouldApplyLoudnessNormalization" : true,
  "videoFormatFrameRate" : 30,
  "audioFormatSampleRate" : 44100,
  "allowSubFrameEditing" : false,
  "width" : 1920.0,
  "height" : 1080.0,
  "version" : "6.0",
  "editRate" : 705600000,
  "authoringClientName" :  {
    "name" : "Camtasia",
    "platform" : "Windows",
    "version" : "22.0"
  },
  "sourceBin" : [
    {
      "id" : 1,
      "src" : "Connexion — Mozilla Firefox (navigation privée) 2023-03-16 11-47-01.mp4",
      "rect" : [0, 0, 2432, 1440],
      "lastMod" : "20230316T105223",
      "loudnessNormalization" : true,
      "sourceTracks" : [
        {
          "range" : [0, 9723705],
          "type" : 0,
          "editRate" : 30000,
          "trackRect" : [0, 0, 2432, 1440],
          "sampleRate" : "142061/5000",
          "bitDepth" : 24,
          "numChannels" : 0,
          "integratedLUFS" : 100.0,
          "peakLevel" : -1.0,
          "metaData" : ""
        },
        {
          "range" : [0, 15558651],
          "type" : 2,
          "editRate" : 48000,
          "trackRect" : [0, 0, 0, 0],
          "sampleRate" : 48000,
          "bitDepth" : 16,
          "numChannels" : 2,
          "integratedLUFS" : 0.0,
          "peakLevel" : 0.0,
          "metaData" : ""
        }
      ],
      "metadata" : {
        "timeAdded" : "20230316T110313.249876"
      }
    },
    {
      "id" : 2,
      "src" : "Synth-Wave.mp3",
      "rect" : [0, 0, 0, 0],
      "lastMod" : "20220329T085804",
      "loudnessNormalization" : true,
      "sourceTracks" : [
        {
          "range" : [0, 1381877250],
          "type" : 2,
          "editRate" : 10000000,
          "trackRect" : [0, 0, 0, 0],
          "sampleRate" : 44100,
          "bitDepth" : 0,
          "numChannels" : 2,
          "integratedLUFS" : -12.5871889950164,
          "peakLevel" : 0.975349366664886,
          "metaData" : ""
        }
      ],
      "metadata" : {
        "timeAdded" : "20230316T123533.613265"
      }
    },
    {
      "id" : 3,
      "src" : "Rock-This-Way.mp3",
      "rect" : [0, 0, 0, 0],
      "lastMod" : "20220329T085804",
      "loudnessNormalization" : true,
      "sourceTracks" : [
        {
          "range" : [0, 1473305750],
          "type" : 2,
          "editRate" : 10000000,
          "trackRect" : [0, 0, 0, 0],
          "sampleRate" : 44100,
          "bitDepth" : 0,
          "numChannels" : 2,
          "integratedLUFS" : -13.4187133862576,
          "peakLevel" : 0.985965490341187,
          "metaData" : ""
        }
      ],
      "metadata" : {
        "timeAdded" : "20230316T123549.208599"
      }
    },
    {
      "id" : 4,
      "src" : "Reggae-Tune.mp3",
      "rect" : [0, 0, 0, 0],
      "lastMod" : "20220329T085804",
      "loudnessNormalization" : true,
      "sourceTracks" : [
        {
          "range" : [0, 1301942500],
          "type" : 2,
          "editRate" : 10000000,
          "trackRect" : [0, 0, 0, 0],
          "sampleRate" : 44100,
          "bitDepth" : 0,
          "numChannels" : 2,
          "integratedLUFS" : -13.0411573533053,
          "peakLevel" : 0.987219512462616,
          "metaData" : ""
        }
      ],
      "metadata" : {
        "timeAdded" : "20230316T123551.287394"
      }
    }
  ],
  "timeline" : {
    "id" : 5,
    "sceneTrack" : {
      "scenes" : [
        {
          "csml" : {
            "tracks" : [
              {
                "trackIndex" : 0,
                "medias" : [
                  {
                    "id" : 6,
                    "_type" : "StitchedMedia",
                    "minMediaStart" : 0,
                    "attributes" : {
                      "ident" : "Connexion — Mozilla Firefox (navigation privée) 2023-03-16 11-47-01",
                      "gain" : 1.0,
                      "mixToMono" : false,
                      "loudnessNormalization" : true,
                      "sourceFileOffset" : 0
                    },
                    "parameters" : {
                      "translation0" : 4.47641923528863e-13,
                      "translation1" : 54.1571319603357,
                      "scale0" : 0.789473684210527,
                      "scale1" : 0.789473684210526,
                      "sourceCrop0" : 0.0,
                      "sourceCrop1" : 0.0,
                      "sourceCrop2" : 0.0,
                      "sourceCrop3" : 0.0,
                      "geometryCrop0" : 0.0,
                      "geometryCrop1" : 137.198067632851,
                      "geometryCrop2" : 0.0,
                      "geometryCrop3" : 0.0,
                      "volume" : 1.0
                    },
                    "medias" : [
                        {
                          "id" : 7,
                          "_type" : "UnifiedMedia",
                          "video" : 
                              {
                                "id" : 8,
                                "_type" : "VMFile",
                                "src" : 1,
                                "trackNumber" : 0,
                                "attributes" : {
                                  "ident" : "Connexion — Mozilla Firefox (navigation privée) 2023-03-16 11-47-01"
                                },
                                "parameters" : {
                                  "sourceCrop0" : 0.0,
                                  "sourceCrop1" : 0.0,
                                  "sourceCrop2" : 0.0,
                                  "sourceCrop3" : 0.0,
                                  "geometryCrop0" : 0.0,
                                  "geometryCrop1" : 0.0,
                                  "geometryCrop2" : 0.0,
                                  "geometryCrop3" : 0.0
                                },
                                "effects" : [

                                ],
                                "start" : 0,
                                "duration" : 15923040000,
                                "mediaStart" : 0,
                                "mediaDuration" : 15923040000,
                                "scalar" : 1,
                                "animationTracks" : {

                                }
                              },
                          "audio" : 
                              {
                                "id" : 9,
                                "_type" : "AMFile",
                                "src" : 1,
                                "trackNumber" : 1,
                                "attributes" : {
                                  "ident" : "",
                                  "gain" : 1.0,
                                  "mixToMono" : false,
                                  "loudnessNormalization" : true,
                                  "sourceFileOffset" : 0
                                },
                                  "channelNumber" : "0,1",
                                "effects" : [

                                ],
                                "start" : 0,
                                "duration" : 15923040000,
                                "mediaStart" : 0,
                                "mediaDuration" : 15923040000,
                                "scalar" : 1,
                                "animationTracks" : {

                                }
                              }
,
                          "start" : 0,
                          "duration" : 15923040000,
                          "mediaStart" : 0,
                          "mediaDuration" : 228684960000,
                          "scalar" : 1,
                          "metadata" : {
                            "clipSpeedAttribute" : false,
                            "default-anchor0" : 0.0,
                            "default-anchor1" : 0.0,
                            "default-anchor2" : 0.0,
                            "default-geometryCrop1" : 0.0,
                            "default-rotation0" : 0.0,
                            "default-rotation1" : 0.0,
                            "default-rotation2" : 0.0,
                            "default-scale0" : 0.75,
                            "default-scale1" : 0.75,
                            "default-scale2" : 1.0,
                            "default-shear0" : 0.0,
                            "default-shear1" : 0.0,
                            "default-shear2" : 0.0,
                            "default-translation0" : 0.0,
                            "default-translation1" : 0.0,
                            "default-translation2" : 0.0
                          }
                        },
                        {
                          "id" : 10,
                          "_type" : "IMFile",
                          "src" : 1,
                          "trackNumber" : 0,
                          "trimStartSum" : 0,
                          "attributes" : {
                            "ident" : "Connexion — Mozilla Firefox (navigation privée) 2023-03-16 11-47-01"
                          },
                          "parameters" : {
                            "sourceCrop0" : 0.0,
                            "sourceCrop1" : 0.0,
                            "sourceCrop2" : 0.0,
                            "sourceCrop3" : 0.0,
                            "geometryCrop0" : 0.0,
                            "geometryCrop1" : 0.0,
                            "geometryCrop2" : 0.0,
                            "geometryCrop3" : 0.0
                          },
                          "effects" : [

                          ],
                          "start" : 15923040000,
                          "duration" : 2116800000,
                          "mediaStart" : 15899520000,
                          "mediaDuration" : 1,
                          "scalar" : 1,
                          "animationTracks" : {

                          }
                        },
                        {
                          "id" : 11,
                          "_type" : "UnifiedMedia",
                          "video" : 
                              {
                                "id" : 12,
                                "_type" : "VMFile",
                                "src" : 1,
                                "trackNumber" : 0,
                                "attributes" : {
                                  "ident" : "Connexion — Mozilla Firefox (navigation privée) 2023-03-16 11-47-01"
                                },
                                "parameters" : {
                                  "sourceCrop0" : 0.0,
                                  "sourceCrop1" : 0.0,
                                  "sourceCrop2" : 0.0,
                                  "sourceCrop3" : 0.0,
                                  "geometryCrop0" : 0.0,
                                  "geometryCrop1" : 0.0,
                                  "geometryCrop2" : 0.0,
                                  "geometryCrop3" : 0.0
                                },
                                "effects" : [

                                ],
                                "start" : 18039840000,
                                "duration" : 212761920000,
                                "mediaStart" : 15923040000,
                                "mediaDuration" : 212761920000,
                                "scalar" : 1,
                                "animationTracks" : {

                                }
                              },
                          "audio" : 
                              {
                                "id" : 13,
                                "_type" : "AMFile",
                                "src" : 1,
                                "trackNumber" : 1,
                                "attributes" : {
                                  "ident" : "",
                                  "gain" : 1.0,
                                  "mixToMono" : false,
                                  "loudnessNormalization" : true,
                                  "sourceFileOffset" : 0
                                },
                                  "channelNumber" : "0,1",
                                "effects" : [

                                ],
                                "start" : 18039840000,
                                "duration" : 212761920000,
                                "mediaStart" : 15923040000,
                                "mediaDuration" : 212761920000,
                                "scalar" : 1,
                                "animationTracks" : {

                                }
                              }
,
                          "start" : 18039840000,
                          "duration" : 212761920000,
                          "mediaStart" : 0,
                          "mediaDuration" : 228684960000,
                          "scalar" : 1,
                          "metadata" : {
                            "clipSpeedAttribute" : false,
                            "default-anchor0" : 0.0,
                            "default-anchor1" : 0.0,
                            "default-anchor2" : 0.0,
                            "default-geometryCrop1" : 0.0,
                            "default-rotation0" : 0.0,
                            "default-rotation1" : 0.0,
                            "default-rotation2" : 0.0,
                            "default-scale0" : 0.75,
                            "default-scale1" : 0.75,
                            "default-scale2" : 1.0,
                            "default-shear0" : 0.0,
                            "default-shear1" : 0.0,
                            "default-shear2" : 0.0,
                            "default-translation0" : 0.0,
                            "default-translation1" : 0.0,
                            "default-translation2" : 0.0
                          }
                        }
                    ],
                    "effects" : [

                    ],
                    "start" : 0,
                    "duration" : 3998400000,
                    "mediaStart" : 2610720000,
                    "mediaDuration" : 3998400000,
                    "scalar" : 1,
                    "metadata" : {
                      "clipSpeedAttribute" : false
                    },
                    "animationTracks" : {

                    }
                  },
                  {
                    "id" : 14,
                    "_type" : "StitchedMedia",
                    "minMediaStart" : 0,
                    "attributes" : {
                      "ident" : "Connexion — Mozilla Firefox (navigation privée) 2023-03-16 11-47-01",
                      "gain" : 1.0,
                      "mixToMono" : false,
                      "loudnessNormalization" : true,
                      "sourceFileOffset" : 0
                    },
                    "parameters" : {
                      "translation0" : 4.47641923528863e-13,
                      "translation1" : 54.1571319603357,
                      "scale0" : 0.789473684210527,
                      "scale1" : 0.789473684210526,
                      "sourceCrop0" : 0.0,
                      "sourceCrop1" : 0.0,
                      "sourceCrop2" : 0.0,
                      "sourceCrop3" : 0.0,
                      "geometryCrop0" : 0.0,
                      "geometryCrop1" : 137.198067632851,
                      "geometryCrop2" : 0.0,
                      "geometryCrop3" : 0.0,
                      "volume" : 1.0
                    },
                    "medias" : [
                        {
                          "id" : 15,
                          "_type" : "UnifiedMedia",
                          "video" : 
                              {
                                "id" : 16,
                                "_type" : "VMFile",
                                "src" : 1,
                                "trackNumber" : 0,
                                "attributes" : {
                                  "ident" : "Connexion — Mozilla Firefox (navigation privée) 2023-03-16 11-47-01"
                                },
                                "parameters" : {
                                  "sourceCrop0" : 0.0,
                                  "sourceCrop1" : 0.0,
                                  "sourceCrop2" : 0.0,
                                  "sourceCrop3" : 0.0,
                                  "geometryCrop0" : 0.0,
                                  "geometryCrop1" : 0.0,
                                  "geometryCrop2" : 0.0,
                                  "geometryCrop3" : 0.0
                                },
                                "effects" : [

                                ],
                                "start" : 0,
                                "duration" : 15923040000,
                                "mediaStart" : 0,
                                "mediaDuration" : 15923040000,
                                "scalar" : 1,
                                "animationTracks" : {

                                }
                              },
                          "audio" : 
                              {
                                "id" : 17,
                                "_type" : "AMFile",
                                "src" : 1,
                                "trackNumber" : 1,
                                "attributes" : {
                                  "ident" : "",
                                  "gain" : 1.0,
                                  "mixToMono" : false,
                                  "loudnessNormalization" : true,
                                  "sourceFileOffset" : 0
                                },
                                  "channelNumber" : "0,1",
                                "effects" : [

                                ],
                                "start" : 0,
                                "duration" : 15923040000,
                                "mediaStart" : 0,
                                "mediaDuration" : 15923040000,
                                "scalar" : 1,
                                "animationTracks" : {

                                }
                              }
,
                          "start" : 0,
                          "duration" : 15923040000,
                          "mediaStart" : 0,
                          "mediaDuration" : 228684960000,
                          "scalar" : 1,
                          "metadata" : {
                            "clipSpeedAttribute" : false,
                            "default-anchor0" : 0.0,
                            "default-anchor1" : 0.0,
                            "default-anchor2" : 0.0,
                            "default-geometryCrop1" : 0.0,
                            "default-rotation0" : 0.0,
                            "default-rotation1" : 0.0,
                            "default-rotation2" : 0.0,
                            "default-scale0" : 0.75,
                            "default-scale1" : 0.75,
                            "default-scale2" : 1.0,
                            "default-shear0" : 0.0,
                            "default-shear1" : 0.0,
                            "default-shear2" : 0.0,
                            "default-translation0" : 0.0,
                            "default-translation1" : 0.0,
                            "default-translation2" : 0.0
                          }
                        },
                        {
                          "id" : 18,
                          "_type" : "IMFile",
                          "src" : 1,
                          "trackNumber" : 0,
                          "trimStartSum" : 0,
                          "attributes" : {
                            "ident" : "Connexion — Mozilla Firefox (navigation privée) 2023-03-16 11-47-01"
                          },
                          "parameters" : {
                            "sourceCrop0" : 0.0,
                            "sourceCrop1" : 0.0,
                            "sourceCrop2" : 0.0,
                            "sourceCrop3" : 0.0,
                            "geometryCrop0" : 0.0,
                            "geometryCrop1" : 0.0,
                            "geometryCrop2" : 0.0,
                            "geometryCrop3" : 0.0
                          },
                          "effects" : [

                          ],
                          "start" : 15923040000,
                          "duration" : 2116800000,
                          "mediaStart" : 15899520000,
                          "mediaDuration" : 1,
                          "scalar" : 1,
                          "animationTracks" : {

                          }
                        },
                        {
                          "id" : 19,
                          "_type" : "UnifiedMedia",
                          "video" : 
                              {
                                "id" : 20,
                                "_type" : "VMFile",
                                "src" : 1,
                                "trackNumber" : 0,
                                "attributes" : {
                                  "ident" : "Connexion — Mozilla Firefox (navigation privée) 2023-03-16 11-47-01"
                                },
                                "parameters" : {
                                  "sourceCrop0" : 0.0,
                                  "sourceCrop1" : 0.0,
                                  "sourceCrop2" : 0.0,
                                  "sourceCrop3" : 0.0,
                                  "geometryCrop0" : 0.0,
                                  "geometryCrop1" : 0.0,
                                  "geometryCrop2" : 0.0,
                                  "geometryCrop3" : 0.0
                                },
                                "effects" : [

                                ],
                                "start" : 18039840000,
                                "duration" : 212761920000,
                                "mediaStart" : 15923040000,
                                "mediaDuration" : 212761920000,
                                "scalar" : 1,
                                "animationTracks" : {

                                }
                              },
                          "audio" : 
                              {
                                "id" : 21,
                                "_type" : "AMFile",
                                "src" : 1,
                                "trackNumber" : 1,
                                "attributes" : {
                                  "ident" : "",
                                  "gain" : 1.0,
                                  "mixToMono" : false,
                                  "loudnessNormalization" : true,
                                  "sourceFileOffset" : 0
                                },
                                  "channelNumber" : "0,1",
                                "effects" : [

                                ],
                                "start" : 18039840000,
                                "duration" : 212761920000,
                                "mediaStart" : 15923040000,
                                "mediaDuration" : 212761920000,
                                "scalar" : 1,
                                "animationTracks" : {

                                }
                              }
,
                          "start" : 18039840000,
                          "duration" : 212761920000,
                          "mediaStart" : 0,
                          "mediaDuration" : 228684960000,
                          "scalar" : 1,
                          "metadata" : {
                            "clipSpeedAttribute" : false,
                            "default-anchor0" : 0.0,
                            "default-anchor1" : 0.0,
                            "default-anchor2" : 0.0,
                            "default-geometryCrop1" : 0.0,
                            "default-rotation0" : 0.0,
                            "default-rotation1" : 0.0,
                            "default-rotation2" : 0.0,
                            "default-scale0" : 0.75,
                            "default-scale1" : 0.75,
                            "default-scale2" : 1.0,
                            "default-shear0" : 0.0,
                            "default-shear1" : 0.0,
                            "default-shear2" : 0.0,
                            "default-translation0" : 0.0,
                            "default-translation1" : 0.0,
                            "default-translation2" : 0.0
                          }
                        }
                    ],
                    "effects" : [

                    ],
                    "start" : 3998400000,
                    "duration" : 12371520000,
                    "mediaStart" : 8420160000,
                    "mediaDuration" : 12371520000,
                    "scalar" : 1,
                    "metadata" : {
                      "clipSpeedAttribute" : false
                    },
                    "animationTracks" : {

                    }
                  },
                  {
                    "id" : 22,
                    "_type" : "StitchedMedia",
                    "minMediaStart" : 0,
                    "attributes" : {
                      "ident" : "Connexion — Mozilla Firefox (navigation privée) 2023-03-16 11-47-01",
                      "gain" : 1.0,
                      "mixToMono" : false,
                      "loudnessNormalization" : true,
                      "sourceFileOffset" : 0
                    },
                    "parameters" : {
                      "translation0" : 4.47641923528863e-13,
                      "translation1" : 54.1571319603357,
                      "scale0" : 0.789473684210527,
                      "scale1" : 0.789473684210526,
                      "sourceCrop0" : 0.0,
                      "sourceCrop1" : 0.0,
                      "sourceCrop2" : 0.0,
                      "sourceCrop3" : 0.0,
                      "geometryCrop0" : 0.0,
                      "geometryCrop1" : 137.198067632851,
                      "geometryCrop2" : 0.0,
                      "geometryCrop3" : 0.0,
                      "volume" : 1.0
                    },
                    "medias" : [
                        {
                          "id" : 23,
                          "_type" : "UnifiedMedia",
                          "video" : 
                              {
                                "id" : 24,
                                "_type" : "VMFile",
                                "src" : 1,
                                "trackNumber" : 0,
                                "attributes" : {
                                  "ident" : "Connexion — Mozilla Firefox (navigation privée) 2023-03-16 11-47-01"
                                },
                                "parameters" : {
                                  "sourceCrop0" : 0.0,
                                  "sourceCrop1" : 0.0,
                                  "sourceCrop2" : 0.0,
                                  "sourceCrop3" : 0.0,
                                  "geometryCrop0" : 0.0,
                                  "geometryCrop1" : 0.0,
                                  "geometryCrop2" : 0.0,
                                  "geometryCrop3" : 0.0
                                },
                                "effects" : [

                                ],
                                "start" : 0,
                                "duration" : 15923040000,
                                "mediaStart" : 0,
                                "mediaDuration" : 15923040000,
                                "scalar" : 1,
                                "animationTracks" : {

                                }
                              },
                          "audio" : 
                              {
                                "id" : 25,
                                "_type" : "AMFile",
                                "src" : 1,
                                "trackNumber" : 1,
                                "attributes" : {
                                  "ident" : "",
                                  "gain" : 1.0,
                                  "mixToMono" : false,
                                  "loudnessNormalization" : true,
                                  "sourceFileOffset" : 0
                                },
                                  "channelNumber" : "0,1",
                                "effects" : [

                                ],
                                "start" : 0,
                                "duration" : 15923040000,
                                "mediaStart" : 0,
                                "mediaDuration" : 15923040000,
                                "scalar" : 1,
                                "animationTracks" : {

                                }
                              }
,
                          "start" : 0,
                          "duration" : 15923040000,
                          "mediaStart" : 0,
                          "mediaDuration" : 228684960000,
                          "scalar" : 1,
                          "metadata" : {
                            "clipSpeedAttribute" : false,
                            "default-anchor0" : 0.0,
                            "default-anchor1" : 0.0,
                            "default-anchor2" : 0.0,
                            "default-geometryCrop1" : 0.0,
                            "default-rotation0" : 0.0,
                            "default-rotation1" : 0.0,
                            "default-rotation2" : 0.0,
                            "default-scale0" : 0.75,
                            "default-scale1" : 0.75,
                            "default-scale2" : 1.0,
                            "default-shear0" : 0.0,
                            "default-shear1" : 0.0,
                            "default-shear2" : 0.0,
                            "default-translation0" : 0.0,
                            "default-translation1" : 0.0,
                            "default-translation2" : 0.0
                          }
                        },
                        {
                          "id" : 26,
                          "_type" : "IMFile",
                          "src" : 1,
                          "trackNumber" : 0,
                          "trimStartSum" : 0,
                          "attributes" : {
                            "ident" : "Connexion — Mozilla Firefox (navigation privée) 2023-03-16 11-47-01"
                          },
                          "parameters" : {
                            "sourceCrop0" : 0.0,
                            "sourceCrop1" : 0.0,
                            "sourceCrop2" : 0.0,
                            "sourceCrop3" : 0.0,
                            "geometryCrop0" : 0.0,
                            "geometryCrop1" : 0.0,
                            "geometryCrop2" : 0.0,
                            "geometryCrop3" : 0.0
                          },
                          "effects" : [

                          ],
                          "start" : 15923040000,
                          "duration" : 2116800000,
                          "mediaStart" : 15899520000,
                          "mediaDuration" : 1,
                          "scalar" : 1,
                          "animationTracks" : {

                          }
                        },
                        {
                          "id" : 27,
                          "_type" : "UnifiedMedia",
                          "video" : 
                              {
                                "id" : 28,
                                "_type" : "VMFile",
                                "src" : 1,
                                "trackNumber" : 0,
                                "attributes" : {
                                  "ident" : "Connexion — Mozilla Firefox (navigation privée) 2023-03-16 11-47-01"
                                },
                                "parameters" : {
                                  "sourceCrop0" : 0.0,
                                  "sourceCrop1" : 0.0,
                                  "sourceCrop2" : 0.0,
                                  "sourceCrop3" : 0.0,
                                  "geometryCrop0" : 0.0,
                                  "geometryCrop1" : 0.0,
                                  "geometryCrop2" : 0.0,
                                  "geometryCrop3" : 0.0
                                },
                                "effects" : [

                                ],
                                "start" : 18039840000,
                                "duration" : 212761920000,
                                "mediaStart" : 15923040000,
                                "mediaDuration" : 212761920000,
                                "scalar" : 1,
                                "animationTracks" : {

                                }
                              },
                          "audio" : 
                              {
                                "id" : 29,
                                "_type" : "AMFile",
                                "src" : 1,
                                "trackNumber" : 1,
                                "attributes" : {
                                  "ident" : "",
                                  "gain" : 1.0,
                                  "mixToMono" : false,
                                  "loudnessNormalization" : true,
                                  "sourceFileOffset" : 0
                                },
                                  "channelNumber" : "0,1",
                                "effects" : [

                                ],
                                "start" : 18039840000,
                                "duration" : 212761920000,
                                "mediaStart" : 15923040000,
                                "mediaDuration" : 212761920000,
                                "scalar" : 1,
                                "animationTracks" : {

                                }
                              }
,
                          "start" : 18039840000,
                          "duration" : 212761920000,
                          "mediaStart" : 0,
                          "mediaDuration" : 228684960000,
                          "scalar" : 1,
                          "metadata" : {
                            "clipSpeedAttribute" : false,
                            "default-anchor0" : 0.0,
                            "default-anchor1" : 0.0,
                            "default-anchor2" : 0.0,
                            "default-geometryCrop1" : 0.0,
                            "default-rotation0" : 0.0,
                            "default-rotation1" : 0.0,
                            "default-rotation2" : 0.0,
                            "default-scale0" : 0.75,
                            "default-scale1" : 0.75,
                            "default-scale2" : 1.0,
                            "default-shear0" : 0.0,
                            "default-shear1" : 0.0,
                            "default-shear2" : 0.0,
                            "default-translation0" : 0.0,
                            "default-translation1" : 0.0,
                            "default-translation2" : 0.0
                          }
                        }
                    ],
                    "effects" : [

                    ],
                    "start" : 16369920000,
                    "duration" : 3010560000,
                    "mediaStart" : 20791680000,
                    "mediaDuration" : 7526400000,
                    "scalar" : "2/5",
                    "metadata" : {
                      "clipSpeedAttribute" : true
                    },
                    "animationTracks" : {

                    }
                  },
                  {
                    "id" : 30,
                    "_type" : "StitchedMedia",
                    "minMediaStart" : 0,
                    "attributes" : {
                      "ident" : "Connexion — Mozilla Firefox (navigation privée) 2023-03-16 11-47-01",
                      "gain" : 1.0,
                      "mixToMono" : false,
                      "loudnessNormalization" : true,
                      "sourceFileOffset" : 0
                    },
                    "parameters" : {
                      "translation0" : 4.47641923528863e-13,
                      "translation1" : 54.1571319603357,
                      "scale0" : 0.789473684210527,
                      "scale1" : 0.789473684210526,
                      "sourceCrop0" : 0.0,
                      "sourceCrop1" : 0.0,
                      "sourceCrop2" : 0.0,
                      "sourceCrop3" : 0.0,
                      "geometryCrop0" : 0.0,
                      "geometryCrop1" : 137.198067632851,
                      "geometryCrop2" : 0.0,
                      "geometryCrop3" : 0.0,
                      "volume" : 1.0
                    },
                    "medias" : [
                        {
                          "id" : 31,
                          "_type" : "UnifiedMedia",
                          "video" : 
                              {
                                "id" : 32,
                                "_type" : "VMFile",
                                "src" : 1,
                                "trackNumber" : 0,
                                "attributes" : {
                                  "ident" : "Connexion — Mozilla Firefox (navigation privée) 2023-03-16 11-47-01"
                                },
                                "parameters" : {
                                  "sourceCrop0" : 0.0,
                                  "sourceCrop1" : 0.0,
                                  "sourceCrop2" : 0.0,
                                  "sourceCrop3" : 0.0,
                                  "geometryCrop0" : 0.0,
                                  "geometryCrop1" : 0.0,
                                  "geometryCrop2" : 0.0,
                                  "geometryCrop3" : 0.0
                                },
                                "effects" : [

                                ],
                                "start" : 0,
                                "duration" : 15923040000,
                                "mediaStart" : 0,
                                "mediaDuration" : 15923040000,
                                "scalar" : 1,
                                "animationTracks" : {

                                }
                              },
                          "audio" : 
                              {
                                "id" : 33,
                                "_type" : "AMFile",
                                "src" : 1,
                                "trackNumber" : 1,
                                "attributes" : {
                                  "ident" : "",
                                  "gain" : 1.0,
                                  "mixToMono" : false,
                                  "loudnessNormalization" : true,
                                  "sourceFileOffset" : 0
                                },
                                  "channelNumber" : "0,1",
                                "effects" : [

                                ],
                                "start" : 0,
                                "duration" : 15923040000,
                                "mediaStart" : 0,
                                "mediaDuration" : 15923040000,
                                "scalar" : 1,
                                "animationTracks" : {

                                }
                              }
,
                          "start" : 0,
                          "duration" : 15923040000,
                          "mediaStart" : 0,
                          "mediaDuration" : 228684960000,
                          "scalar" : 1,
                          "metadata" : {
                            "clipSpeedAttribute" : false,
                            "default-anchor0" : 0.0,
                            "default-anchor1" : 0.0,
                            "default-anchor2" : 0.0,
                            "default-geometryCrop1" : 0.0,
                            "default-rotation0" : 0.0,
                            "default-rotation1" : 0.0,
                            "default-rotation2" : 0.0,
                            "default-scale0" : 0.75,
                            "default-scale1" : 0.75,
                            "default-scale2" : 1.0,
                            "default-shear0" : 0.0,
                            "default-shear1" : 0.0,
                            "default-shear2" : 0.0,
                            "default-translation0" : 0.0,
                            "default-translation1" : 0.0,
                            "default-translation2" : 0.0
                          }
                        },
                        {
                          "id" : 34,
                          "_type" : "IMFile",
                          "src" : 1,
                          "trackNumber" : 0,
                          "trimStartSum" : 0,
                          "attributes" : {
                            "ident" : "Connexion — Mozilla Firefox (navigation privée) 2023-03-16 11-47-01"
                          },
                          "parameters" : {
                            "sourceCrop0" : 0.0,
                            "sourceCrop1" : 0.0,
                            "sourceCrop2" : 0.0,
                            "sourceCrop3" : 0.0,
                            "geometryCrop0" : 0.0,
                            "geometryCrop1" : 0.0,
                            "geometryCrop2" : 0.0,
                            "geometryCrop3" : 0.0
                          },
                          "effects" : [

                          ],
                          "start" : 15923040000,
                          "duration" : 2116800000,
                          "mediaStart" : 15899520000,
                          "mediaDuration" : 1,
                          "scalar" : 1,
                          "animationTracks" : {

                          }
                        },
                        {
                          "id" : 35,
                          "_type" : "UnifiedMedia",
                          "video" : 
                              {
                                "id" : 36,
                                "_type" : "VMFile",
                                "src" : 1,
                                "trackNumber" : 0,
                                "attributes" : {
                                  "ident" : "Connexion — Mozilla Firefox (navigation privée) 2023-03-16 11-47-01"
                                },
                                "parameters" : {
                                  "sourceCrop0" : 0.0,
                                  "sourceCrop1" : 0.0,
                                  "sourceCrop2" : 0.0,
                                  "sourceCrop3" : 0.0,
                                  "geometryCrop0" : 0.0,
                                  "geometryCrop1" : 0.0,
                                  "geometryCrop2" : 0.0,
                                  "geometryCrop3" : 0.0
                                },
                                "effects" : [

                                ],
                                "start" : 18039840000,
                                "duration" : 212761920000,
                                "mediaStart" : 15923040000,
                                "mediaDuration" : 212761920000,
                                "scalar" : 1,
                                "animationTracks" : {

                                }
                              },
                          "audio" : 
                              {
                                "id" : 37,
                                "_type" : "AMFile",
                                "src" : 1,
                                "trackNumber" : 1,
                                "attributes" : {
                                  "ident" : "",
                                  "gain" : 1.0,
                                  "mixToMono" : false,
                                  "loudnessNormalization" : true,
                                  "sourceFileOffset" : 0
                                },
                                  "channelNumber" : "0,1",
                                "effects" : [

                                ],
                                "start" : 18039840000,
                                "duration" : 212761920000,
                                "mediaStart" : 15923040000,
                                "mediaDuration" : 212761920000,
                                "scalar" : 1,
                                "animationTracks" : {

                                }
                              }
,
                          "start" : 18039840000,
                          "duration" : 212761920000,
                          "mediaStart" : 0,
                          "mediaDuration" : 228684960000,
                          "scalar" : 1,
                          "metadata" : {
                            "clipSpeedAttribute" : false,
                            "default-anchor0" : 0.0,
                            "default-anchor1" : 0.0,
                            "default-anchor2" : 0.0,
                            "default-geometryCrop1" : 0.0,
                            "default-rotation0" : 0.0,
                            "default-rotation1" : 0.0,
                            "default-rotation2" : 0.0,
                            "default-scale0" : 0.75,
                            "default-scale1" : 0.75,
                            "default-scale2" : 1.0,
                            "default-shear0" : 0.0,
                            "default-shear1" : 0.0,
                            "default-shear2" : 0.0,
                            "default-translation0" : 0.0,
                            "default-translation1" : 0.0,
                            "default-translation2" : 0.0
                          }
                        }
                    ],
                    "effects" : [

                    ],
                    "start" : 19380480000,
                    "duration" : 3575040000,
                    "mediaStart" : 28318080000,
                    "mediaDuration" : 3575040000,
                    "scalar" : 1,
                    "metadata" : {
                      "clipSpeedAttribute" : false
                    },
                    "animationTracks" : {

                    }
                  },
                  {
                    "id" : 38,
                    "_type" : "StitchedMedia",
                    "minMediaStart" : 0,
                    "attributes" : {
                      "ident" : "Connexion — Mozilla Firefox (navigation privée) 2023-03-16 11-47-01",
                      "gain" : 1.0,
                      "mixToMono" : false,
                      "loudnessNormalization" : true,
                      "sourceFileOffset" : 0
                    },
                    "parameters" : {
                      "translation0" : 4.47641923528863e-13,
                      "translation1" : 54.1571319603357,
                      "scale0" : 0.789473684210527,
                      "scale1" : 0.789473684210526,
                      "sourceCrop0" : 0.0,
                      "sourceCrop1" : 0.0,
                      "sourceCrop2" : 0.0,
                      "sourceCrop3" : 0.0,
                      "geometryCrop0" : 0.0,
                      "geometryCrop1" : 137.198067632851,
                      "geometryCrop2" : 0.0,
                      "geometryCrop3" : 0.0,
                      "volume" : 1.0
                    },
                    "medias" : [
                        {
                          "id" : 39,
                          "_type" : "UnifiedMedia",
                          "video" : 
                              {
                                "id" : 40,
                                "_type" : "VMFile",
                                "src" : 1,
                                "trackNumber" : 0,
                                "attributes" : {
                                  "ident" : "Connexion — Mozilla Firefox (navigation privée) 2023-03-16 11-47-01"
                                },
                                "parameters" : {
                                  "sourceCrop0" : 0.0,
                                  "sourceCrop1" : 0.0,
                                  "sourceCrop2" : 0.0,
                                  "sourceCrop3" : 0.0,
                                  "geometryCrop0" : 0.0,
                                  "geometryCrop1" : 0.0,
                                  "geometryCrop2" : 0.0,
                                  "geometryCrop3" : 0.0
                                },
                                "effects" : [

                                ],
                                "start" : 0,
                                "duration" : 15923040000,
                                "mediaStart" : 0,
                                "mediaDuration" : 15923040000,
                                "scalar" : 1,
                                "animationTracks" : {

                                }
                              },
                          "audio" : 
                              {
                                "id" : 41,
                                "_type" : "AMFile",
                                "src" : 1,
                                "trackNumber" : 1,
                                "attributes" : {
                                  "ident" : "",
                                  "gain" : 1.0,
                                  "mixToMono" : false,
                                  "loudnessNormalization" : true,
                                  "sourceFileOffset" : 0
                                },
                                  "channelNumber" : "0,1",
                                "effects" : [

                                ],
                                "start" : 0,
                                "duration" : 15923040000,
                                "mediaStart" : 0,
                                "mediaDuration" : 15923040000,
                                "scalar" : 1,
                                "animationTracks" : {

                                }
                              }
,
                          "start" : 0,
                          "duration" : 15923040000,
                          "mediaStart" : 0,
                          "mediaDuration" : 228684960000,
                          "scalar" : 1,
                          "metadata" : {
                            "clipSpeedAttribute" : false,
                            "default-anchor0" : 0.0,
                            "default-anchor1" : 0.0,
                            "default-anchor2" : 0.0,
                            "default-geometryCrop1" : 0.0,
                            "default-rotation0" : 0.0,
                            "default-rotation1" : 0.0,
                            "default-rotation2" : 0.0,
                            "default-scale0" : 0.75,
                            "default-scale1" : 0.75,
                            "default-scale2" : 1.0,
                            "default-shear0" : 0.0,
                            "default-shear1" : 0.0,
                            "default-shear2" : 0.0,
                            "default-translation0" : 0.0,
                            "default-translation1" : 0.0,
                            "default-translation2" : 0.0
                          }
                        },
                        {
                          "id" : 42,
                          "_type" : "IMFile",
                          "src" : 1,
                          "trackNumber" : 0,
                          "trimStartSum" : 0,
                          "attributes" : {
                            "ident" : "Connexion — Mozilla Firefox (navigation privée) 2023-03-16 11-47-01"
                          },
                          "parameters" : {
                            "sourceCrop0" : 0.0,
                            "sourceCrop1" : 0.0,
                            "sourceCrop2" : 0.0,
                            "sourceCrop3" : 0.0,
                            "geometryCrop0" : 0.0,
                            "geometryCrop1" : 0.0,
                            "geometryCrop2" : 0.0,
                            "geometryCrop3" : 0.0
                          },
                          "effects" : [

                          ],
                          "start" : 15923040000,
                          "duration" : 2116800000,
                          "mediaStart" : 15899520000,
                          "mediaDuration" : 1,
                          "scalar" : 1,
                          "animationTracks" : {

                          }
                        },
                        {
                          "id" : 43,
                          "_type" : "UnifiedMedia",
                          "video" : 
                              {
                                "id" : 44,
                                "_type" : "VMFile",
                                "src" : 1,
                                "trackNumber" : 0,
                                "attributes" : {
                                  "ident" : "Connexion — Mozilla Firefox (navigation privée) 2023-03-16 11-47-01"
                                },
                                "parameters" : {
                                  "sourceCrop0" : 0.0,
                                  "sourceCrop1" : 0.0,
                                  "sourceCrop2" : 0.0,
                                  "sourceCrop3" : 0.0,
                                  "geometryCrop0" : 0.0,
                                  "geometryCrop1" : 0.0,
                                  "geometryCrop2" : 0.0,
                                  "geometryCrop3" : 0.0
                                },
                                "effects" : [

                                ],
                                "start" : 18039840000,
                                "duration" : 20956320000,
                                "mediaStart" : 15923040000,
                                "mediaDuration" : 20956320000,
                                "scalar" : 1,
                                "animationTracks" : {

                                }
                              },
                          "audio" : 
                              {
                                "id" : 45,
                                "_type" : "AMFile",
                                "src" : 1,
                                "trackNumber" : 1,
                                "attributes" : {
                                  "ident" : "",
                                  "gain" : 1.0,
                                  "mixToMono" : false,
                                  "loudnessNormalization" : true,
                                  "sourceFileOffset" : 0
                                },
                                  "channelNumber" : "0,1",
                                "effects" : [

                                ],
                                "start" : 18039840000,
                                "duration" : 20956320000,
                                "mediaStart" : 15923040000,
                                "mediaDuration" : 20956320000,
                                "scalar" : 1,
                                "animationTracks" : {

                                }
                              }
,
                          "start" : 18039840000,
                          "duration" : 20956320000,
                          "mediaStart" : 0,
                          "mediaDuration" : 228684960000,
                          "scalar" : 1,
                          "metadata" : {
                            "clipSpeedAttribute" : false,
                            "default-anchor0" : 0.0,
                            "default-anchor1" : 0.0,
                            "default-anchor2" : 0.0,
                            "default-geometryCrop1" : 0.0,
                            "default-rotation0" : 0.0,
                            "default-rotation1" : 0.0,
                            "default-rotation2" : 0.0,
                            "default-scale0" : 0.75,
                            "default-scale1" : 0.75,
                            "default-scale2" : 1.0,
                            "default-shear0" : 0.0,
                            "default-shear1" : 0.0,
                            "default-shear2" : 0.0,
                            "default-translation0" : 0.0,
                            "default-translation1" : 0.0,
                            "default-translation2" : 0.0
                          }
                        },
                        {
                          "id" : 46,
                          "_type" : "IMFile",
                          "src" : 1,
                          "trackNumber" : 0,
                          "trimStartSum" : 0,
                          "attributes" : {
                            "ident" : "Connexion — Mozilla Firefox (navigation privée) 2023-03-16 11-47-01"
                          },
                          "parameters" : {
                            "sourceCrop0" : 0.0,
                            "sourceCrop1" : 0.0,
                            "sourceCrop2" : 0.0,
                            "sourceCrop3" : 0.0,
                            "geometryCrop0" : 0.0,
                            "geometryCrop1" : 0.0,
                            "geometryCrop2" : 0.0,
                            "geometryCrop3" : 0.0
                          },
                          "effects" : [

                          ],
                          "start" : 38996160000,
                          "duration" : 2822400000,
                          "mediaStart" : 36879360000,
                          "mediaDuration" : 1,
                          "scalar" : 1,
                          "animationTracks" : {

                          }
                        },
                        {
                          "id" : 47,
                          "_type" : "UnifiedMedia",
                          "video" : 
                              {
                                "id" : 48,
                                "_type" : "VMFile",
                                "src" : 1,
                                "trackNumber" : 0,
                                "attributes" : {
                                  "ident" : "Connexion — Mozilla Firefox (navigation privée) 2023-03-16 11-47-01"
                                },
                                "parameters" : {
                                  "sourceCrop0" : 0.0,
                                  "sourceCrop1" : 0.0,
                                  "sourceCrop2" : 0.0,
                                  "sourceCrop3" : 0.0,
                                  "geometryCrop0" : 0.0,
                                  "geometryCrop1" : 0.0,
                                  "geometryCrop2" : 0.0,
                                  "geometryCrop3" : 0.0
                                },
                                "effects" : [

                                ],
                                "start" : 41818560000,
                                "duration" : 191805600000,
                                "mediaStart" : 36879360000,
                                "mediaDuration" : 191805600000,
                                "scalar" : 1,
                                "animationTracks" : {

                                }
                              },
                          "audio" : 
                              {
                                "id" : 49,
                                "_type" : "AMFile",
                                "src" : 1,
                                "trackNumber" : 1,
                                "attributes" : {
                                  "ident" : "",
                                  "gain" : 1.0,
                                  "mixToMono" : false,
                                  "loudnessNormalization" : true,
                                  "sourceFileOffset" : 0
                                },
                                  "channelNumber" : "0,1",
                                "effects" : [

                                ],
                                "start" : 41818560000,
                                "duration" : 191805600000,
                                "mediaStart" : 36879360000,
                                "mediaDuration" : 191805600000,
                                "scalar" : 1,
                                "animationTracks" : {

                                }
                              }
,
                          "start" : 41818560000,
                          "duration" : 191805600000,
                          "mediaStart" : 0,
                          "mediaDuration" : 228684960000,
                          "scalar" : 1,
                          "metadata" : {
                            "clipSpeedAttribute" : false,
                            "default-anchor0" : 0.0,
                            "default-anchor1" : 0.0,
                            "default-anchor2" : 0.0,
                            "default-geometryCrop1" : 0.0,
                            "default-rotation0" : 0.0,
                            "default-rotation1" : 0.0,
                            "default-rotation2" : 0.0,
                            "default-scale0" : 0.75,
                            "default-scale1" : 0.75,
                            "default-scale2" : 1.0,
                            "default-shear0" : 0.0,
                            "default-shear1" : 0.0,
                            "default-shear2" : 0.0,
                            "default-translation0" : 0.0,
                            "default-translation1" : 0.0,
                            "default-translation2" : 0.0
                          }
                        }
                    ],
                    "effects" : [

                    ],
                    "start" : 22955520000,
                    "duration" : 11407200000,
                    "mediaStart" : 33821760000,
                    "mediaDuration" : 11407200000,
                    "scalar" : 1,
                    "metadata" : {
                      "clipSpeedAttribute" : false
                    },
                    "animationTracks" : {

                    }
                  },
                  {
                    "id" : 50,
                    "_type" : "StitchedMedia",
                    "minMediaStart" : 0,
                    "attributes" : {
                      "ident" : "Connexion — Mozilla Firefox (navigation privée) 2023-03-16 11-47-01",
                      "gain" : 1.0,
                      "mixToMono" : false,
                      "loudnessNormalization" : true,
                      "sourceFileOffset" : 0
                    },
                    "parameters" : {
                      "translation0" : 4.47641923528863e-13,
                      "translation1" : 54.1571319603357,
                      "scale0" : 0.789473684210527,
                      "scale1" : 0.789473684210526,
                      "sourceCrop0" : 0.0,
                      "sourceCrop1" : 0.0,
                      "sourceCrop2" : 0.0,
                      "sourceCrop3" : 0.0,
                      "geometryCrop0" : 0.0,
                      "geometryCrop1" : 137.198067632851,
                      "geometryCrop2" : 0.0,
                      "geometryCrop3" : 0.0,
                      "volume" : 1.0
                    },
                    "medias" : [
                        {
                          "id" : 51,
                          "_type" : "UnifiedMedia",
                          "video" : 
                              {
                                "id" : 52,
                                "_type" : "VMFile",
                                "src" : 1,
                                "trackNumber" : 0,
                                "attributes" : {
                                  "ident" : "Connexion — Mozilla Firefox (navigation privée) 2023-03-16 11-47-01"
                                },
                                "parameters" : {
                                  "sourceCrop0" : 0.0,
                                  "sourceCrop1" : 0.0,
                                  "sourceCrop2" : 0.0,
                                  "sourceCrop3" : 0.0,
                                  "geometryCrop0" : 0.0,
                                  "geometryCrop1" : 0.0,
                                  "geometryCrop2" : 0.0,
                                  "geometryCrop3" : 0.0
                                },
                                "effects" : [

                                ],
                                "start" : 0,
                                "duration" : 15923040000,
                                "mediaStart" : 0,
                                "mediaDuration" : 15923040000,
                                "scalar" : 1,
                                "animationTracks" : {

                                }
                              },
                          "audio" : 
                              {
                                "id" : 53,
                                "_type" : "AMFile",
                                "src" : 1,
                                "trackNumber" : 1,
                                "attributes" : {
                                  "ident" : "",
                                  "gain" : 1.0,
                                  "mixToMono" : false,
                                  "loudnessNormalization" : true,
                                  "sourceFileOffset" : 0
                                },
                                  "channelNumber" : "0,1",
                                "effects" : [

                                ],
                                "start" : 0,
                                "duration" : 15923040000,
                                "mediaStart" : 0,
                                "mediaDuration" : 15923040000,
                                "scalar" : 1,
                                "animationTracks" : {

                                }
                              }
,
                          "start" : 0,
                          "duration" : 15923040000,
                          "mediaStart" : 0,
                          "mediaDuration" : 228684960000,
                          "scalar" : 1,
                          "metadata" : {
                            "clipSpeedAttribute" : false,
                            "default-anchor0" : 0.0,
                            "default-anchor1" : 0.0,
                            "default-anchor2" : 0.0,
                            "default-geometryCrop1" : 0.0,
                            "default-rotation0" : 0.0,
                            "default-rotation1" : 0.0,
                            "default-rotation2" : 0.0,
                            "default-scale0" : 0.75,
                            "default-scale1" : 0.75,
                            "default-scale2" : 1.0,
                            "default-shear0" : 0.0,
                            "default-shear1" : 0.0,
                            "default-shear2" : 0.0,
                            "default-translation0" : 0.0,
                            "default-translation1" : 0.0,
                            "default-translation2" : 0.0
                          }
                        },
                        {
                          "id" : 54,
                          "_type" : "IMFile",
                          "src" : 1,
                          "trackNumber" : 0,
                          "trimStartSum" : 0,
                          "attributes" : {
                            "ident" : "Connexion — Mozilla Firefox (navigation privée) 2023-03-16 11-47-01"
                          },
                          "parameters" : {
                            "sourceCrop0" : 0.0,
                            "sourceCrop1" : 0.0,
                            "sourceCrop2" : 0.0,
                            "sourceCrop3" : 0.0,
                            "geometryCrop0" : 0.0,
                            "geometryCrop1" : 0.0,
                            "geometryCrop2" : 0.0,
                            "geometryCrop3" : 0.0
                          },
                          "effects" : [

                          ],
                          "start" : 15923040000,
                          "duration" : 2116800000,
                          "mediaStart" : 15899520000,
                          "mediaDuration" : 1,
                          "scalar" : 1,
                          "animationTracks" : {

                          }
                        },
                        {
                          "id" : 55,
                          "_type" : "UnifiedMedia",
                          "video" : 
                              {
                                "id" : 56,
                                "_type" : "VMFile",
                                "src" : 1,
                                "trackNumber" : 0,
                                "attributes" : {
                                  "ident" : "Connexion — Mozilla Firefox (navigation privée) 2023-03-16 11-47-01"
                                },
                                "parameters" : {
                                  "sourceCrop0" : 0.0,
                                  "sourceCrop1" : 0.0,
                                  "sourceCrop2" : 0.0,
                                  "sourceCrop3" : 0.0,
                                  "geometryCrop0" : 0.0,
                                  "geometryCrop1" : 0.0,
                                  "geometryCrop2" : 0.0,
                                  "geometryCrop3" : 0.0
                                },
                                "effects" : [

                                ],
                                "start" : 18039840000,
                                "duration" : 212761920000,
                                "mediaStart" : 15923040000,
                                "mediaDuration" : 212761920000,
                                "scalar" : 1,
                                "animationTracks" : {

                                }
                              },
                          "audio" : 
                              {
                                "id" : 57,
                                "_type" : "AMFile",
                                "src" : 1,
                                "trackNumber" : 1,
                                "attributes" : {
                                  "ident" : "",
                                  "gain" : 1.0,
                                  "mixToMono" : false,
                                  "loudnessNormalization" : true,
                                  "sourceFileOffset" : 0
                                },
                                  "channelNumber" : "0,1",
                                "effects" : [

                                ],
                                "start" : 18039840000,
                                "duration" : 212761920000,
                                "mediaStart" : 15923040000,
                                "mediaDuration" : 212761920000,
                                "scalar" : 1,
                                "animationTracks" : {

                                }
                              }
,
                          "start" : 18039840000,
                          "duration" : 212761920000,
                          "mediaStart" : 0,
                          "mediaDuration" : 228684960000,
                          "scalar" : 1,
                          "metadata" : {
                            "clipSpeedAttribute" : false,
                            "default-anchor0" : 0.0,
                            "default-anchor1" : 0.0,
                            "default-anchor2" : 0.0,
                            "default-geometryCrop1" : 0.0,
                            "default-rotation0" : 0.0,
                            "default-rotation1" : 0.0,
                            "default-rotation2" : 0.0,
                            "default-scale0" : 0.75,
                            "default-scale1" : 0.75,
                            "default-scale2" : 1.0,
                            "default-shear0" : 0.0,
                            "default-shear1" : 0.0,
                            "default-shear2" : 0.0,
                            "default-translation0" : 0.0,
                            "default-translation1" : 0.0,
                            "default-translation2" : 0.0
                          }
                        }
                    ],
                    "effects" : [

                    ],
                    "start" : 34362720000,
                    "duration" : 3998400000,
                    "mediaStart" : 42406560000,
                    "mediaDuration" : 20109600000,
                    "scalar" : "34/171",
                    "metadata" : {
                      "clipSpeedAttribute" : true
                    },
                    "animationTracks" : {

                    }
                  },
                  {
                    "id" : 58,
                    "_type" : "StitchedMedia",
                    "minMediaStart" : 0,
                    "attributes" : {
                      "ident" : "Connexion — Mozilla Firefox (navigation privée) 2023-03-16 11-47-01",
                      "gain" : 1.0,
                      "mixToMono" : false,
                      "loudnessNormalization" : true,
                      "sourceFileOffset" : 0
                    },
                    "parameters" : {
                      "translation0" : 4.47641923528863e-13,
                      "translation1" : 54.1571319603357,
                      "scale0" : 0.789473684210527,
                      "scale1" : 0.789473684210526,
                      "sourceCrop0" : 0.0,
                      "sourceCrop1" : 0.0,
                      "sourceCrop2" : 0.0,
                      "sourceCrop3" : 0.0,
                      "geometryCrop0" : 0.0,
                      "geometryCrop1" : 137.198067632851,
                      "geometryCrop2" : 0.0,
                      "geometryCrop3" : 0.0,
                      "volume" : 1.0
                    },
                    "medias" : [
                        {
                          "id" : 59,
                          "_type" : "UnifiedMedia",
                          "video" : 
                              {
                                "id" : 60,
                                "_type" : "VMFile",
                                "src" : 1,
                                "trackNumber" : 0,
                                "attributes" : {
                                  "ident" : "Connexion — Mozilla Firefox (navigation privée) 2023-03-16 11-47-01"
                                },
                                "parameters" : {
                                  "sourceCrop0" : 0.0,
                                  "sourceCrop1" : 0.0,
                                  "sourceCrop2" : 0.0,
                                  "sourceCrop3" : 0.0,
                                  "geometryCrop0" : 0.0,
                                  "geometryCrop1" : 0.0,
                                  "geometryCrop2" : 0.0,
                                  "geometryCrop3" : 0.0
                                },
                                "effects" : [

                                ],
                                "start" : 0,
                                "duration" : 15923040000,
                                "mediaStart" : 0,
                                "mediaDuration" : 15923040000,
                                "scalar" : 1,
                                "animationTracks" : {

                                }
                              },
                          "audio" : 
                              {
                                "id" : 61,
                                "_type" : "AMFile",
                                "src" : 1,
                                "trackNumber" : 1,
                                "attributes" : {
                                  "ident" : "",
                                  "gain" : 1.0,
                                  "mixToMono" : false,
                                  "loudnessNormalization" : true,
                                  "sourceFileOffset" : 0
                                },
                                  "channelNumber" : "0,1",
                                "effects" : [

                                ],
                                "start" : 0,
                                "duration" : 15923040000,
                                "mediaStart" : 0,
                                "mediaDuration" : 15923040000,
                                "scalar" : 1,
                                "animationTracks" : {

                                }
                              }
,
                          "start" : 0,
                          "duration" : 15923040000,
                          "mediaStart" : 0,
                          "mediaDuration" : 228684960000,
                          "scalar" : 1,
                          "metadata" : {
                            "clipSpeedAttribute" : false,
                            "default-anchor0" : 0.0,
                            "default-anchor1" : 0.0,
                            "default-anchor2" : 0.0,
                            "default-geometryCrop1" : 0.0,
                            "default-rotation0" : 0.0,
                            "default-rotation1" : 0.0,
                            "default-rotation2" : 0.0,
                            "default-scale0" : 0.75,
                            "default-scale1" : 0.75,
                            "default-scale2" : 1.0,
                            "default-shear0" : 0.0,
                            "default-shear1" : 0.0,
                            "default-shear2" : 0.0,
                            "default-translation0" : 0.0,
                            "default-translation1" : 0.0,
                            "default-translation2" : 0.0
                          }
                        },
                        {
                          "id" : 62,
                          "_type" : "IMFile",
                          "src" : 1,
                          "trackNumber" : 0,
                          "trimStartSum" : 0,
                          "attributes" : {
                            "ident" : "Connexion — Mozilla Firefox (navigation privée) 2023-03-16 11-47-01"
                          },
                          "parameters" : {
                            "sourceCrop0" : 0.0,
                            "sourceCrop1" : 0.0,
                            "sourceCrop2" : 0.0,
                            "sourceCrop3" : 0.0,
                            "geometryCrop0" : 0.0,
                            "geometryCrop1" : 0.0,
                            "geometryCrop2" : 0.0,
                            "geometryCrop3" : 0.0
                          },
                          "effects" : [

                          ],
                          "start" : 15923040000,
                          "duration" : 2116800000,
                          "mediaStart" : 15899520000,
                          "mediaDuration" : 1,
                          "scalar" : 1,
                          "animationTracks" : {

                          }
                        },
                        {
                          "id" : 63,
                          "_type" : "UnifiedMedia",
                          "video" : 
                              {
                                "id" : 64,
                                "_type" : "VMFile",
                                "src" : 1,
                                "trackNumber" : 0,
                                "attributes" : {
                                  "ident" : "Connexion — Mozilla Firefox (navigation privée) 2023-03-16 11-47-01"
                                },
                                "parameters" : {
                                  "sourceCrop0" : 0.0,
                                  "sourceCrop1" : 0.0,
                                  "sourceCrop2" : 0.0,
                                  "sourceCrop3" : 0.0,
                                  "geometryCrop0" : 0.0,
                                  "geometryCrop1" : 0.0,
                                  "geometryCrop2" : 0.0,
                                  "geometryCrop3" : 0.0
                                },
                                "effects" : [

                                ],
                                "start" : 18039840000,
                                "duration" : 44735040000,
                                "mediaStart" : 15923040000,
                                "mediaDuration" : 44735040000,
                                "scalar" : 1,
                                "animationTracks" : {

                                }
                              },
                          "audio" : 
                              {
                                "id" : 65,
                                "_type" : "AMFile",
                                "src" : 1,
                                "trackNumber" : 1,
                                "attributes" : {
                                  "ident" : "",
                                  "gain" : 1.0,
                                  "mixToMono" : false,
                                  "loudnessNormalization" : true,
                                  "sourceFileOffset" : 0
                                },
                                  "channelNumber" : "0,1",
                                "effects" : [

                                ],
                                "start" : 18039840000,
                                "duration" : 44735040000,
                                "mediaStart" : 15923040000,
                                "mediaDuration" : 44735040000,
                                "scalar" : 1,
                                "animationTracks" : {

                                }
                              }
,
                          "start" : 18039840000,
                          "duration" : 44735040000,
                          "mediaStart" : 0,
                          "mediaDuration" : 228684960000,
                          "scalar" : 1,
                          "metadata" : {
                            "clipSpeedAttribute" : false,
                            "default-anchor0" : 0.0,
                            "default-anchor1" : 0.0,
                            "default-anchor2" : 0.0,
                            "default-geometryCrop1" : 0.0,
                            "default-rotation0" : 0.0,
                            "default-rotation1" : 0.0,
                            "default-rotation2" : 0.0,
                            "default-scale0" : 0.75,
                            "default-scale1" : 0.75,
                            "default-scale2" : 1.0,
                            "default-shear0" : 0.0,
                            "default-shear1" : 0.0,
                            "default-shear2" : 0.0,
                            "default-translation0" : 0.0,
                            "default-translation1" : 0.0,
                            "default-translation2" : 0.0
                          }
                        },
                        {
                          "id" : 66,
                          "_type" : "IMFile",
                          "src" : 1,
                          "trackNumber" : 0,
                          "trimStartSum" : 0,
                          "attributes" : {
                            "ident" : "Connexion — Mozilla Firefox (navigation privée) 2023-03-16 11-47-01"
                          },
                          "parameters" : {
                            "sourceCrop0" : 0.0,
                            "sourceCrop1" : 0.0,
                            "sourceCrop2" : 0.0,
                            "sourceCrop3" : 0.0,
                            "geometryCrop0" : 0.0,
                            "geometryCrop1" : 0.0,
                            "geometryCrop2" : 0.0,
                            "geometryCrop3" : 0.0
                          },
                          "effects" : [

                          ],
                          "start" : 62774880000,
                          "duration" : 7056000000,
                          "mediaStart" : 60658080000,
                          "mediaDuration" : 1,
                          "scalar" : 1,
                          "animationTracks" : {

                          }
                        },
                        {
                          "id" : 67,
                          "_type" : "UnifiedMedia",
                          "video" : 
                              {
                                "id" : 68,
                                "_type" : "VMFile",
                                "src" : 1,
                                "trackNumber" : 0,
                                "attributes" : {
                                  "ident" : "Connexion — Mozilla Firefox (navigation privée) 2023-03-16 11-47-01"
                                },
                                "parameters" : {
                                  "sourceCrop0" : 0.0,
                                  "sourceCrop1" : 0.0,
                                  "sourceCrop2" : 0.0,
                                  "sourceCrop3" : 0.0,
                                  "geometryCrop0" : 0.0,
                                  "geometryCrop1" : 0.0,
                                  "geometryCrop2" : 0.0,
                                  "geometryCrop3" : 0.0
                                },
                                "effects" : [

                                ],
                                "start" : 69830880000,
                                "duration" : 168026880000,
                                "mediaStart" : 60658080000,
                                "mediaDuration" : 168026880000,
                                "scalar" : 1,
                                "animationTracks" : {

                                }
                              },
                          "audio" : 
                              {
                                "id" : 69,
                                "_type" : "AMFile",
                                "src" : 1,
                                "trackNumber" : 1,
                                "attributes" : {
                                  "ident" : "",
                                  "gain" : 1.0,
                                  "mixToMono" : false,
                                  "loudnessNormalization" : true,
                                  "sourceFileOffset" : 0
                                },
                                  "channelNumber" : "0,1",
                                "effects" : [

                                ],
                                "start" : 69830880000,
                                "duration" : 168026880000,
                                "mediaStart" : 60658080000,
                                "mediaDuration" : 168026880000,
                                "scalar" : 1,
                                "animationTracks" : {

                                }
                              }
,
                          "start" : 69830880000,
                          "duration" : 168026880000,
                          "mediaStart" : 0,
                          "mediaDuration" : 228684960000,
                          "scalar" : 1,
                          "metadata" : {
                            "clipSpeedAttribute" : false,
                            "default-anchor0" : 0.0,
                            "default-anchor1" : 0.0,
                            "default-anchor2" : 0.0,
                            "default-geometryCrop1" : 0.0,
                            "default-rotation0" : 0.0,
                            "default-rotation1" : 0.0,
                            "default-rotation2" : 0.0,
                            "default-scale0" : 0.75,
                            "default-scale1" : 0.75,
                            "default-scale2" : 1.0,
                            "default-shear0" : 0.0,
                            "default-shear1" : 0.0,
                            "default-shear2" : 0.0,
                            "default-translation0" : 0.0,
                            "default-translation1" : 0.0,
                            "default-translation2" : 0.0
                          }
                        }
                    ],
                    "effects" : [

                    ],
                    "start" : 38361120000,
                    "duration" : 5315520000,
                    "mediaStart" : 62516160000,
                    "mediaDuration" : 5315520000,
                    "scalar" : 1,
                    "metadata" : {
                      "clipSpeedAttribute" : false
                    },
                    "animationTracks" : {

                    }
                  },
                  {
                    "id" : 70,
                    "_type" : "StitchedMedia",
                    "minMediaStart" : 0,
                    "attributes" : {
                      "ident" : "Connexion — Mozilla Firefox (navigation privée) 2023-03-16 11-47-01",
                      "gain" : 1.0,
                      "mixToMono" : false,
                      "loudnessNormalization" : true,
                      "sourceFileOffset" : 0
                    },
                    "parameters" : {
                      "translation0" : 4.47641923528863e-13,
                      "translation1" : 54.1571319603357,
                      "scale0" : 0.789473684210527,
                      "scale1" : 0.789473684210526,
                      "sourceCrop0" : 0.0,
                      "sourceCrop1" : 0.0,
                      "sourceCrop2" : 0.0,
                      "sourceCrop3" : 0.0,
                      "geometryCrop0" : 0.0,
                      "geometryCrop1" : 137.198067632851,
                      "geometryCrop2" : 0.0,
                      "geometryCrop3" : 0.0,
                      "volume" : 1.0
                    },
                    "medias" : [
                        {
                          "id" : 71,
                          "_type" : "UnifiedMedia",
                          "video" : 
                              {
                                "id" : 72,
                                "_type" : "VMFile",
                                "src" : 1,
                                "trackNumber" : 0,
                                "attributes" : {
                                  "ident" : "Connexion — Mozilla Firefox (navigation privée) 2023-03-16 11-47-01"
                                },
                                "parameters" : {
                                  "sourceCrop0" : 0.0,
                                  "sourceCrop1" : 0.0,
                                  "sourceCrop2" : 0.0,
                                  "sourceCrop3" : 0.0,
                                  "geometryCrop0" : 0.0,
                                  "geometryCrop1" : 0.0,
                                  "geometryCrop2" : 0.0,
                                  "geometryCrop3" : 0.0
                                },
                                "effects" : [

                                ],
                                "start" : 0,
                                "duration" : 15923040000,
                                "mediaStart" : 0,
                                "mediaDuration" : 15923040000,
                                "scalar" : 1,
                                "animationTracks" : {

                                }
                              },
                          "audio" : 
                              {
                                "id" : 73,
                                "_type" : "AMFile",
                                "src" : 1,
                                "trackNumber" : 1,
                                "attributes" : {
                                  "ident" : "",
                                  "gain" : 1.0,
                                  "mixToMono" : false,
                                  "loudnessNormalization" : true,
                                  "sourceFileOffset" : 0
                                },
                                  "channelNumber" : "0,1",
                                "effects" : [

                                ],
                                "start" : 0,
                                "duration" : 15923040000,
                                "mediaStart" : 0,
                                "mediaDuration" : 15923040000,
                                "scalar" : 1,
                                "animationTracks" : {

                                }
                              }
,
                          "start" : 0,
                          "duration" : 15923040000,
                          "mediaStart" : 0,
                          "mediaDuration" : 228684960000,
                          "scalar" : 1,
                          "metadata" : {
                            "clipSpeedAttribute" : false,
                            "default-anchor0" : 0.0,
                            "default-anchor1" : 0.0,
                            "default-anchor2" : 0.0,
                            "default-geometryCrop1" : 0.0,
                            "default-rotation0" : 0.0,
                            "default-rotation1" : 0.0,
                            "default-rotation2" : 0.0,
                            "default-scale0" : 0.75,
                            "default-scale1" : 0.75,
                            "default-scale2" : 1.0,
                            "default-shear0" : 0.0,
                            "default-shear1" : 0.0,
                            "default-shear2" : 0.0,
                            "default-translation0" : 0.0,
                            "default-translation1" : 0.0,
                            "default-translation2" : 0.0
                          }
                        },
                        {
                          "id" : 74,
                          "_type" : "IMFile",
                          "src" : 1,
                          "trackNumber" : 0,
                          "trimStartSum" : 0,
                          "attributes" : {
                            "ident" : "Connexion — Mozilla Firefox (navigation privée) 2023-03-16 11-47-01"
                          },
                          "parameters" : {
                            "sourceCrop0" : 0.0,
                            "sourceCrop1" : 0.0,
                            "sourceCrop2" : 0.0,
                            "sourceCrop3" : 0.0,
                            "geometryCrop0" : 0.0,
                            "geometryCrop1" : 0.0,
                            "geometryCrop2" : 0.0,
                            "geometryCrop3" : 0.0
                          },
                          "effects" : [

                          ],
                          "start" : 15923040000,
                          "duration" : 2116800000,
                          "mediaStart" : 15899520000,
                          "mediaDuration" : 1,
                          "scalar" : 1,
                          "animationTracks" : {

                          }
                        },
                        {
                          "id" : 75,
                          "_type" : "UnifiedMedia",
                          "video" : 
                              {
                                "id" : 76,
                                "_type" : "VMFile",
                                "src" : 1,
                                "trackNumber" : 0,
                                "attributes" : {
                                  "ident" : "Connexion — Mozilla Firefox (navigation privée) 2023-03-16 11-47-01"
                                },
                                "parameters" : {
                                  "sourceCrop0" : 0.0,
                                  "sourceCrop1" : 0.0,
                                  "sourceCrop2" : 0.0,
                                  "sourceCrop3" : 0.0,
                                  "geometryCrop0" : 0.0,
                                  "geometryCrop1" : 0.0,
                                  "geometryCrop2" : 0.0,
                                  "geometryCrop3" : 0.0
                                },
                                "effects" : [

                                ],
                                "start" : 18039840000,
                                "duration" : 44735040000,
                                "mediaStart" : 15923040000,
                                "mediaDuration" : 44735040000,
                                "scalar" : 1,
                                "animationTracks" : {

                                }
                              },
                          "audio" : 
                              {
                                "id" : 77,
                                "_type" : "AMFile",
                                "src" : 1,
                                "trackNumber" : 1,
                                "attributes" : {
                                  "ident" : "",
                                  "gain" : 1.0,
                                  "mixToMono" : false,
                                  "loudnessNormalization" : true,
                                  "sourceFileOffset" : 0
                                },
                                  "channelNumber" : "0,1",
                                "effects" : [

                                ],
                                "start" : 18039840000,
                                "duration" : 44735040000,
                                "mediaStart" : 15923040000,
                                "mediaDuration" : 44735040000,
                                "scalar" : 1,
                                "animationTracks" : {

                                }
                              }
,
                          "start" : 18039840000,
                          "duration" : 44735040000,
                          "mediaStart" : 0,
                          "mediaDuration" : 228684960000,
                          "scalar" : 1,
                          "metadata" : {
                            "clipSpeedAttribute" : false,
                            "default-anchor0" : 0.0,
                            "default-anchor1" : 0.0,
                            "default-anchor2" : 0.0,
                            "default-geometryCrop1" : 0.0,
                            "default-rotation0" : 0.0,
                            "default-rotation1" : 0.0,
                            "default-rotation2" : 0.0,
                            "default-scale0" : 0.75,
                            "default-scale1" : 0.75,
                            "default-scale2" : 1.0,
                            "default-shear0" : 0.0,
                            "default-shear1" : 0.0,
                            "default-shear2" : 0.0,
                            "default-translation0" : 0.0,
                            "default-translation1" : 0.0,
                            "default-translation2" : 0.0
                          }
                        },
                        {
                          "id" : 78,
                          "_type" : "IMFile",
                          "src" : 1,
                          "trackNumber" : 0,
                          "trimStartSum" : 0,
                          "attributes" : {
                            "ident" : "Connexion — Mozilla Firefox (navigation privée) 2023-03-16 11-47-01"
                          },
                          "parameters" : {
                            "sourceCrop0" : 0.0,
                            "sourceCrop1" : 0.0,
                            "sourceCrop2" : 0.0,
                            "sourceCrop3" : 0.0,
                            "geometryCrop0" : 0.0,
                            "geometryCrop1" : 0.0,
                            "geometryCrop2" : 0.0,
                            "geometryCrop3" : 0.0
                          },
                          "effects" : [

                          ],
                          "start" : 62774880000,
                          "duration" : 7056000000,
                          "mediaStart" : 60658080000,
                          "mediaDuration" : 1,
                          "scalar" : 1,
                          "animationTracks" : {

                          }
                        },
                        {
                          "id" : 79,
                          "_type" : "UnifiedMedia",
                          "video" : 
                              {
                                "id" : 80,
                                "_type" : "VMFile",
                                "src" : 1,
                                "trackNumber" : 0,
                                "attributes" : {
                                  "ident" : "Connexion — Mozilla Firefox (navigation privée) 2023-03-16 11-47-01"
                                },
                                "parameters" : {
                                  "sourceCrop0" : 0.0,
                                  "sourceCrop1" : 0.0,
                                  "sourceCrop2" : 0.0,
                                  "sourceCrop3" : 0.0,
                                  "geometryCrop0" : 0.0,
                                  "geometryCrop1" : 0.0,
                                  "geometryCrop2" : 0.0,
                                  "geometryCrop3" : 0.0
                                },
                                "effects" : [

                                ],
                                "start" : 69830880000,
                                "duration" : 168026880000,
                                "mediaStart" : 60658080000,
                                "mediaDuration" : 168026880000,
                                "scalar" : 1,
                                "animationTracks" : {

                                }
                              },
                          "audio" : 
                              {
                                "id" : 81,
                                "_type" : "AMFile",
                                "src" : 1,
                                "trackNumber" : 1,
                                "attributes" : {
                                  "ident" : "",
                                  "gain" : 1.0,
                                  "mixToMono" : false,
                                  "loudnessNormalization" : true,
                                  "sourceFileOffset" : 0
                                },
                                  "channelNumber" : "0,1",
                                "effects" : [

                                ],
                                "start" : 69830880000,
                                "duration" : 168026880000,
                                "mediaStart" : 60658080000,
                                "mediaDuration" : 168026880000,
                                "scalar" : 1,
                                "animationTracks" : {

                                }
                              }
,
                          "start" : 69830880000,
                          "duration" : 168026880000,
                          "mediaStart" : 0,
                          "mediaDuration" : 228684960000,
                          "scalar" : 1,
                          "metadata" : {
                            "clipSpeedAttribute" : false,
                            "default-anchor0" : 0.0,
                            "default-anchor1" : 0.0,
                            "default-anchor2" : 0.0,
                            "default-geometryCrop1" : 0.0,
                            "default-rotation0" : 0.0,
                            "default-rotation1" : 0.0,
                            "default-rotation2" : 0.0,
                            "default-scale0" : 0.75,
                            "default-scale1" : 0.75,
                            "default-scale2" : 1.0,
                            "default-shear0" : 0.0,
                            "default-shear1" : 0.0,
                            "default-shear2" : 0.0,
                            "default-translation0" : 0.0,
                            "default-translation1" : 0.0,
                            "default-translation2" : 0.0
                          }
                        }
                    ],
                    "effects" : [

                    ],
                    "start" : 43676640000,
                    "duration" : 3763200000,
                    "mediaStart" : 69807360000,
                    "mediaDuration" : 18957120000,
                    "scalar" : "80/403",
                    "metadata" : {
                      "clipSpeedAttribute" : true
                    },
                    "animationTracks" : {

                    }
                  },
                  {
                    "id" : 82,
                    "_type" : "StitchedMedia",
                    "minMediaStart" : 0,
                    "attributes" : {
                      "ident" : "Connexion — Mozilla Firefox (navigation privée) 2023-03-16 11-47-01",
                      "gain" : 1.0,
                      "mixToMono" : false,
                      "loudnessNormalization" : true,
                      "sourceFileOffset" : 0
                    },
                    "parameters" : {
                      "translation0" : 4.47641923528863e-13,
                      "translation1" : 54.1571319603357,
                      "scale0" : 0.789473684210527,
                      "scale1" : 0.789473684210526,
                      "sourceCrop0" : 0.0,
                      "sourceCrop1" : 0.0,
                      "sourceCrop2" : 0.0,
                      "sourceCrop3" : 0.0,
                      "geometryCrop0" : 0.0,
                      "geometryCrop1" : 137.198067632851,
                      "geometryCrop2" : 0.0,
                      "geometryCrop3" : 0.0,
                      "volume" : 1.0
                    },
                    "medias" : [
                        {
                          "id" : 83,
                          "_type" : "UnifiedMedia",
                          "video" : 
                              {
                                "id" : 84,
                                "_type" : "VMFile",
                                "src" : 1,
                                "trackNumber" : 0,
                                "attributes" : {
                                  "ident" : "Connexion — Mozilla Firefox (navigation privée) 2023-03-16 11-47-01"
                                },
                                "parameters" : {
                                  "sourceCrop0" : 0.0,
                                  "sourceCrop1" : 0.0,
                                  "sourceCrop2" : 0.0,
                                  "sourceCrop3" : 0.0,
                                  "geometryCrop0" : 0.0,
                                  "geometryCrop1" : 0.0,
                                  "geometryCrop2" : 0.0,
                                  "geometryCrop3" : 0.0
                                },
                                "effects" : [

                                ],
                                "start" : 0,
                                "duration" : 15923040000,
                                "mediaStart" : 0,
                                "mediaDuration" : 15923040000,
                                "scalar" : 1,
                                "animationTracks" : {

                                }
                              },
                          "audio" : 
                              {
                                "id" : 85,
                                "_type" : "AMFile",
                                "src" : 1,
                                "trackNumber" : 1,
                                "attributes" : {
                                  "ident" : "",
                                  "gain" : 1.0,
                                  "mixToMono" : false,
                                  "loudnessNormalization" : true,
                                  "sourceFileOffset" : 0
                                },
                                  "channelNumber" : "0,1",
                                "effects" : [

                                ],
                                "start" : 0,
                                "duration" : 15923040000,
                                "mediaStart" : 0,
                                "mediaDuration" : 15923040000,
                                "scalar" : 1,
                                "animationTracks" : {

                                }
                              }
,
                          "start" : 0,
                          "duration" : 15923040000,
                          "mediaStart" : 0,
                          "mediaDuration" : 228684960000,
                          "scalar" : 1,
                          "metadata" : {
                            "clipSpeedAttribute" : false,
                            "default-anchor0" : 0.0,
                            "default-anchor1" : 0.0,
                            "default-anchor2" : 0.0,
                            "default-geometryCrop1" : 0.0,
                            "default-rotation0" : 0.0,
                            "default-rotation1" : 0.0,
                            "default-rotation2" : 0.0,
                            "default-scale0" : 0.75,
                            "default-scale1" : 0.75,
                            "default-scale2" : 1.0,
                            "default-shear0" : 0.0,
                            "default-shear1" : 0.0,
                            "default-shear2" : 0.0,
                            "default-translation0" : 0.0,
                            "default-translation1" : 0.0,
                            "default-translation2" : 0.0
                          }
                        },
                        {
                          "id" : 86,
                          "_type" : "IMFile",
                          "src" : 1,
                          "trackNumber" : 0,
                          "trimStartSum" : 0,
                          "attributes" : {
                            "ident" : "Connexion — Mozilla Firefox (navigation privée) 2023-03-16 11-47-01"
                          },
                          "parameters" : {
                            "sourceCrop0" : 0.0,
                            "sourceCrop1" : 0.0,
                            "sourceCrop2" : 0.0,
                            "sourceCrop3" : 0.0,
                            "geometryCrop0" : 0.0,
                            "geometryCrop1" : 0.0,
                            "geometryCrop2" : 0.0,
                            "geometryCrop3" : 0.0
                          },
                          "effects" : [

                          ],
                          "start" : 15923040000,
                          "duration" : 2116800000,
                          "mediaStart" : 15899520000,
                          "mediaDuration" : 1,
                          "scalar" : 1,
                          "animationTracks" : {

                          }
                        },
                        {
                          "id" : 87,
                          "_type" : "UnifiedMedia",
                          "video" : 
                              {
                                "id" : 88,
                                "_type" : "VMFile",
                                "src" : 1,
                                "trackNumber" : 0,
                                "attributes" : {
                                  "ident" : "Connexion — Mozilla Firefox (navigation privée) 2023-03-16 11-47-01"
                                },
                                "parameters" : {
                                  "sourceCrop0" : 0.0,
                                  "sourceCrop1" : 0.0,
                                  "sourceCrop2" : 0.0,
                                  "sourceCrop3" : 0.0,
                                  "geometryCrop0" : 0.0,
                                  "geometryCrop1" : 0.0,
                                  "geometryCrop2" : 0.0,
                                  "geometryCrop3" : 0.0
                                },
                                "effects" : [

                                ],
                                "start" : 18039840000,
                                "duration" : 44735040000,
                                "mediaStart" : 15923040000,
                                "mediaDuration" : 44735040000,
                                "scalar" : 1,
                                "animationTracks" : {

                                }
                              },
                          "audio" : 
                              {
                                "id" : 89,
                                "_type" : "AMFile",
                                "src" : 1,
                                "trackNumber" : 1,
                                "attributes" : {
                                  "ident" : "",
                                  "gain" : 1.0,
                                  "mixToMono" : false,
                                  "loudnessNormalization" : true,
                                  "sourceFileOffset" : 0
                                },
                                  "channelNumber" : "0,1",
                                "effects" : [

                                ],
                                "start" : 18039840000,
                                "duration" : 44735040000,
                                "mediaStart" : 15923040000,
                                "mediaDuration" : 44735040000,
                                "scalar" : 1,
                                "animationTracks" : {

                                }
                              }
,
                          "start" : 18039840000,
                          "duration" : 44735040000,
                          "mediaStart" : 0,
                          "mediaDuration" : 228684960000,
                          "scalar" : 1,
                          "metadata" : {
                            "clipSpeedAttribute" : false,
                            "default-anchor0" : 0.0,
                            "default-anchor1" : 0.0,
                            "default-anchor2" : 0.0,
                            "default-geometryCrop1" : 0.0,
                            "default-rotation0" : 0.0,
                            "default-rotation1" : 0.0,
                            "default-rotation2" : 0.0,
                            "default-scale0" : 0.75,
                            "default-scale1" : 0.75,
                            "default-scale2" : 1.0,
                            "default-shear0" : 0.0,
                            "default-shear1" : 0.0,
                            "default-shear2" : 0.0,
                            "default-translation0" : 0.0,
                            "default-translation1" : 0.0,
                            "default-translation2" : 0.0
                          }
                        },
                        {
                          "id" : 90,
                          "_type" : "IMFile",
                          "src" : 1,
                          "trackNumber" : 0,
                          "trimStartSum" : 0,
                          "attributes" : {
                            "ident" : "Connexion — Mozilla Firefox (navigation privée) 2023-03-16 11-47-01"
                          },
                          "parameters" : {
                            "sourceCrop0" : 0.0,
                            "sourceCrop1" : 0.0,
                            "sourceCrop2" : 0.0,
                            "sourceCrop3" : 0.0,
                            "geometryCrop0" : 0.0,
                            "geometryCrop1" : 0.0,
                            "geometryCrop2" : 0.0,
                            "geometryCrop3" : 0.0
                          },
                          "effects" : [

                          ],
                          "start" : 62774880000,
                          "duration" : 7056000000,
                          "mediaStart" : 60658080000,
                          "mediaDuration" : 1,
                          "scalar" : 1,
                          "animationTracks" : {

                          }
                        },
                        {
                          "id" : 91,
                          "_type" : "UnifiedMedia",
                          "video" : 
                              {
                                "id" : 92,
                                "_type" : "VMFile",
                                "src" : 1,
                                "trackNumber" : 0,
                                "attributes" : {
                                  "ident" : "Connexion — Mozilla Firefox (navigation privée) 2023-03-16 11-47-01"
                                },
                                "parameters" : {
                                  "sourceCrop0" : 0.0,
                                  "sourceCrop1" : 0.0,
                                  "sourceCrop2" : 0.0,
                                  "sourceCrop3" : 0.0,
                                  "geometryCrop0" : 0.0,
                                  "geometryCrop1" : 0.0,
                                  "geometryCrop2" : 0.0,
                                  "geometryCrop3" : 0.0
                                },
                                "effects" : [

                                ],
                                "start" : 69830880000,
                                "duration" : 19027680000,
                                "mediaStart" : 60658080000,
                                "mediaDuration" : 19027680000,
                                "scalar" : 1,
                                "animationTracks" : {

                                }
                              },
                          "audio" : 
                              {
                                "id" : 93,
                                "_type" : "AMFile",
                                "src" : 1,
                                "trackNumber" : 1,
                                "attributes" : {
                                  "ident" : "",
                                  "gain" : 1.0,
                                  "mixToMono" : false,
                                  "loudnessNormalization" : true,
                                  "sourceFileOffset" : 0
                                },
                                  "channelNumber" : "0,1",
                                "effects" : [

                                ],
                                "start" : 69830880000,
                                "duration" : 19027680000,
                                "mediaStart" : 60658080000,
                                "mediaDuration" : 19027680000,
                                "scalar" : 1,
                                "animationTracks" : {

                                }
                              }
,
                          "start" : 69830880000,
                          "duration" : 19027680000,
                          "mediaStart" : 0,
                          "mediaDuration" : 228684960000,
                          "scalar" : 1,
                          "metadata" : {
                            "clipSpeedAttribute" : false,
                            "default-anchor0" : 0.0,
                            "default-anchor1" : 0.0,
                            "default-anchor2" : 0.0,
                            "default-geometryCrop1" : 0.0,
                            "default-rotation0" : 0.0,
                            "default-rotation1" : 0.0,
                            "default-rotation2" : 0.0,
                            "default-scale0" : 0.75,
                            "default-scale1" : 0.75,
                            "default-scale2" : 1.0,
                            "default-shear0" : 0.0,
                            "default-shear1" : 0.0,
                            "default-shear2" : 0.0,
                            "default-translation0" : 0.0,
                            "default-translation1" : 0.0,
                            "default-translation2" : 0.0
                          }
                        },
                        {
                          "id" : 94,
                          "_type" : "IMFile",
                          "src" : 1,
                          "trackNumber" : 0,
                          "trimStartSum" : 0,
                          "attributes" : {
                            "ident" : "Connexion — Mozilla Firefox (navigation privée) 2023-03-16 11-47-01"
                          },
                          "parameters" : {
                            "sourceCrop0" : 0.0,
                            "sourceCrop1" : 0.0,
                            "sourceCrop2" : 0.0,
                            "sourceCrop3" : 0.0,
                            "geometryCrop0" : 0.0,
                            "geometryCrop1" : 0.0,
                            "geometryCrop2" : 0.0,
                            "geometryCrop3" : 0.0
                          },
                          "effects" : [

                          ],
                          "start" : 88858560000,
                          "duration" : 3528000000,
                          "mediaStart" : 79685760000,
                          "mediaDuration" : 1,
                          "scalar" : 1,
                          "animationTracks" : {

                          }
                        },
                        {
                          "id" : 95,
                          "_type" : "UnifiedMedia",
                          "video" : 
                              {
                                "id" : 96,
                                "_type" : "VMFile",
                                "src" : 1,
                                "trackNumber" : 0,
                                "attributes" : {
                                  "ident" : "Connexion — Mozilla Firefox (navigation privée) 2023-03-16 11-47-01"
                                },
                                "parameters" : {
                                  "sourceCrop0" : 0.0,
                                  "sourceCrop1" : 0.0,
                                  "sourceCrop2" : 0.0,
                                  "sourceCrop3" : 0.0,
                                  "geometryCrop0" : 0.0,
                                  "geometryCrop1" : 0.0,
                                  "geometryCrop2" : 0.0,
                                  "geometryCrop3" : 0.0
                                },
                                "effects" : [

                                ],
                                "start" : 92386560000,
                                "duration" : 148999200000,
                                "mediaStart" : 79685760000,
                                "mediaDuration" : 148999200000,
                                "scalar" : 1,
                                "animationTracks" : {

                                }
                              },
                          "audio" : 
                              {
                                "id" : 97,
                                "_type" : "AMFile",
                                "src" : 1,
                                "trackNumber" : 1,
                                "attributes" : {
                                  "ident" : "",
                                  "gain" : 1.0,
                                  "mixToMono" : false,
                                  "loudnessNormalization" : true,
                                  "sourceFileOffset" : 0
                                },
                                  "channelNumber" : "0,1",
                                "effects" : [

                                ],
                                "start" : 92386560000,
                                "duration" : 148999200000,
                                "mediaStart" : 79685760000,
                                "mediaDuration" : 148999200000,
                                "scalar" : 1,
                                "animationTracks" : {

                                }
                              }
,
                          "start" : 92386560000,
                          "duration" : 148999200000,
                          "mediaStart" : 0,
                          "mediaDuration" : 228684960000,
                          "scalar" : 1,
                          "metadata" : {
                            "clipSpeedAttribute" : false,
                            "default-anchor0" : 0.0,
                            "default-anchor1" : 0.0,
                            "default-anchor2" : 0.0,
                            "default-geometryCrop1" : 0.0,
                            "default-rotation0" : 0.0,
                            "default-rotation1" : 0.0,
                            "default-rotation2" : 0.0,
                            "default-scale0" : 0.75,
                            "default-scale1" : 0.75,
                            "default-scale2" : 1.0,
                            "default-shear0" : 0.0,
                            "default-shear1" : 0.0,
                            "default-shear2" : 0.0,
                            "default-translation0" : 0.0,
                            "default-translation1" : 0.0,
                            "default-translation2" : 0.0
                          }
                        }
                    ],
                    "effects" : [

                    ],
                    "start" : 47439840000,
                    "duration" : 5832960000,
                    "mediaStart" : 88764480000,
                    "mediaDuration" : 5832960000,
                    "scalar" : 1,
                    "metadata" : {
                      "clipSpeedAttribute" : false
                    },
                    "animationTracks" : {

                    }
                  },
                  {
                    "id" : 98,
                    "_type" : "StitchedMedia",
                    "minMediaStart" : 0,
                    "attributes" : {
                      "ident" : "Connexion — Mozilla Firefox (navigation privée) 2023-03-16 11-47-01",
                      "gain" : 1.0,
                      "mixToMono" : false,
                      "loudnessNormalization" : true,
                      "sourceFileOffset" : 0
                    },
                    "parameters" : {
                      "translation0" : 4.47641923528863e-13,
                      "translation1" : 54.1571319603357,
                      "scale0" : 0.789473684210527,
                      "scale1" : 0.789473684210526,
                      "sourceCrop0" : 0.0,
                      "sourceCrop1" : 0.0,
                      "sourceCrop2" : 0.0,
                      "sourceCrop3" : 0.0,
                      "geometryCrop0" : 0.0,
                      "geometryCrop1" : 137.198067632851,
                      "geometryCrop2" : 0.0,
                      "geometryCrop3" : 0.0,
                      "volume" : 1.0
                    },
                    "medias" : [
                        {
                          "id" : 99,
                          "_type" : "UnifiedMedia",
                          "video" : 
                              {
                                "id" : 100,
                                "_type" : "VMFile",
                                "src" : 1,
                                "trackNumber" : 0,
                                "attributes" : {
                                  "ident" : "Connexion — Mozilla Firefox (navigation privée) 2023-03-16 11-47-01"
                                },
                                "parameters" : {
                                  "sourceCrop0" : 0.0,
                                  "sourceCrop1" : 0.0,
                                  "sourceCrop2" : 0.0,
                                  "sourceCrop3" : 0.0,
                                  "geometryCrop0" : 0.0,
                                  "geometryCrop1" : 0.0,
                                  "geometryCrop2" : 0.0,
                                  "geometryCrop3" : 0.0
                                },
                                "effects" : [

                                ],
                                "start" : 0,
                                "duration" : 15923040000,
                                "mediaStart" : 0,
                                "mediaDuration" : 15923040000,
                                "scalar" : 1,
                                "animationTracks" : {

                                }
                              },
                          "audio" : 
                              {
                                "id" : 101,
                                "_type" : "AMFile",
                                "src" : 1,
                                "trackNumber" : 1,
                                "attributes" : {
                                  "ident" : "",
                                  "gain" : 1.0,
                                  "mixToMono" : false,
                                  "loudnessNormalization" : true,
                                  "sourceFileOffset" : 0
                                },
                                  "channelNumber" : "0,1",
                                "effects" : [

                                ],
                                "start" : 0,
                                "duration" : 15923040000,
                                "mediaStart" : 0,
                                "mediaDuration" : 15923040000,
                                "scalar" : 1,
                                "animationTracks" : {

                                }
                              }
,
                          "start" : 0,
                          "duration" : 15923040000,
                          "mediaStart" : 0,
                          "mediaDuration" : 228684960000,
                          "scalar" : 1,
                          "metadata" : {
                            "clipSpeedAttribute" : false,
                            "default-anchor0" : 0.0,
                            "default-anchor1" : 0.0,
                            "default-anchor2" : 0.0,
                            "default-geometryCrop1" : 0.0,
                            "default-rotation0" : 0.0,
                            "default-rotation1" : 0.0,
                            "default-rotation2" : 0.0,
                            "default-scale0" : 0.75,
                            "default-scale1" : 0.75,
                            "default-scale2" : 1.0,
                            "default-shear0" : 0.0,
                            "default-shear1" : 0.0,
                            "default-shear2" : 0.0,
                            "default-translation0" : 0.0,
                            "default-translation1" : 0.0,
                            "default-translation2" : 0.0
                          }
                        },
                        {
                          "id" : 102,
                          "_type" : "IMFile",
                          "src" : 1,
                          "trackNumber" : 0,
                          "trimStartSum" : 0,
                          "attributes" : {
                            "ident" : "Connexion — Mozilla Firefox (navigation privée) 2023-03-16 11-47-01"
                          },
                          "parameters" : {
                            "sourceCrop0" : 0.0,
                            "sourceCrop1" : 0.0,
                            "sourceCrop2" : 0.0,
                            "sourceCrop3" : 0.0,
                            "geometryCrop0" : 0.0,
                            "geometryCrop1" : 0.0,
                            "geometryCrop2" : 0.0,
                            "geometryCrop3" : 0.0
                          },
                          "effects" : [

                          ],
                          "start" : 15923040000,
                          "duration" : 2116800000,
                          "mediaStart" : 15899520000,
                          "mediaDuration" : 1,
                          "scalar" : 1,
                          "animationTracks" : {

                          }
                        },
                        {
                          "id" : 103,
                          "_type" : "UnifiedMedia",
                          "video" : 
                              {
                                "id" : 104,
                                "_type" : "VMFile",
                                "src" : 1,
                                "trackNumber" : 0,
                                "attributes" : {
                                  "ident" : "Connexion — Mozilla Firefox (navigation privée) 2023-03-16 11-47-01"
                                },
                                "parameters" : {
                                  "sourceCrop0" : 0.0,
                                  "sourceCrop1" : 0.0,
                                  "sourceCrop2" : 0.0,
                                  "sourceCrop3" : 0.0,
                                  "geometryCrop0" : 0.0,
                                  "geometryCrop1" : 0.0,
                                  "geometryCrop2" : 0.0,
                                  "geometryCrop3" : 0.0
                                },
                                "effects" : [

                                ],
                                "start" : 18039840000,
                                "duration" : 44735040000,
                                "mediaStart" : 15923040000,
                                "mediaDuration" : 44735040000,
                                "scalar" : 1,
                                "animationTracks" : {

                                }
                              },
                          "audio" : 
                              {
                                "id" : 105,
                                "_type" : "AMFile",
                                "src" : 1,
                                "trackNumber" : 1,
                                "attributes" : {
                                  "ident" : "",
                                  "gain" : 1.0,
                                  "mixToMono" : false,
                                  "loudnessNormalization" : true,
                                  "sourceFileOffset" : 0
                                },
                                  "channelNumber" : "0,1",
                                "effects" : [

                                ],
                                "start" : 18039840000,
                                "duration" : 44735040000,
                                "mediaStart" : 15923040000,
                                "mediaDuration" : 44735040000,
                                "scalar" : 1,
                                "animationTracks" : {

                                }
                              }
,
                          "start" : 18039840000,
                          "duration" : 44735040000,
                          "mediaStart" : 0,
                          "mediaDuration" : 228684960000,
                          "scalar" : 1,
                          "metadata" : {
                            "clipSpeedAttribute" : false,
                            "default-anchor0" : 0.0,
                            "default-anchor1" : 0.0,
                            "default-anchor2" : 0.0,
                            "default-geometryCrop1" : 0.0,
                            "default-rotation0" : 0.0,
                            "default-rotation1" : 0.0,
                            "default-rotation2" : 0.0,
                            "default-scale0" : 0.75,
                            "default-scale1" : 0.75,
                            "default-scale2" : 1.0,
                            "default-shear0" : 0.0,
                            "default-shear1" : 0.0,
                            "default-shear2" : 0.0,
                            "default-translation0" : 0.0,
                            "default-translation1" : 0.0,
                            "default-translation2" : 0.0
                          }
                        },
                        {
                          "id" : 106,
                          "_type" : "IMFile",
                          "src" : 1,
                          "trackNumber" : 0,
                          "trimStartSum" : 0,
                          "attributes" : {
                            "ident" : "Connexion — Mozilla Firefox (navigation privée) 2023-03-16 11-47-01"
                          },
                          "parameters" : {
                            "sourceCrop0" : 0.0,
                            "sourceCrop1" : 0.0,
                            "sourceCrop2" : 0.0,
                            "sourceCrop3" : 0.0,
                            "geometryCrop0" : 0.0,
                            "geometryCrop1" : 0.0,
                            "geometryCrop2" : 0.0,
                            "geometryCrop3" : 0.0
                          },
                          "effects" : [

                          ],
                          "start" : 62774880000,
                          "duration" : 7056000000,
                          "mediaStart" : 60658080000,
                          "mediaDuration" : 1,
                          "scalar" : 1,
                          "animationTracks" : {

                          }
                        },
                        {
                          "id" : 107,
                          "_type" : "UnifiedMedia",
                          "video" : 
                              {
                                "id" : 108,
                                "_type" : "VMFile",
                                "src" : 1,
                                "trackNumber" : 0,
                                "attributes" : {
                                  "ident" : "Connexion — Mozilla Firefox (navigation privée) 2023-03-16 11-47-01"
                                },
                                "parameters" : {
                                  "sourceCrop0" : 0.0,
                                  "sourceCrop1" : 0.0,
                                  "sourceCrop2" : 0.0,
                                  "sourceCrop3" : 0.0,
                                  "geometryCrop0" : 0.0,
                                  "geometryCrop1" : 0.0,
                                  "geometryCrop2" : 0.0,
                                  "geometryCrop3" : 0.0
                                },
                                "effects" : [

                                ],
                                "start" : 69830880000,
                                "duration" : 19027680000,
                                "mediaStart" : 60658080000,
                                "mediaDuration" : 19027680000,
                                "scalar" : 1,
                                "animationTracks" : {

                                }
                              },
                          "audio" : 
                              {
                                "id" : 109,
                                "_type" : "AMFile",
                                "src" : 1,
                                "trackNumber" : 1,
                                "attributes" : {
                                  "ident" : "",
                                  "gain" : 1.0,
                                  "mixToMono" : false,
                                  "loudnessNormalization" : true,
                                  "sourceFileOffset" : 0
                                },
                                  "channelNumber" : "0,1",
                                "effects" : [

                                ],
                                "start" : 69830880000,
                                "duration" : 19027680000,
                                "mediaStart" : 60658080000,
                                "mediaDuration" : 19027680000,
                                "scalar" : 1,
                                "animationTracks" : {

                                }
                              }
,
                          "start" : 69830880000,
                          "duration" : 19027680000,
                          "mediaStart" : 0,
                          "mediaDuration" : 228684960000,
                          "scalar" : 1,
                          "metadata" : {
                            "clipSpeedAttribute" : false,
                            "default-anchor0" : 0.0,
                            "default-anchor1" : 0.0,
                            "default-anchor2" : 0.0,
                            "default-geometryCrop1" : 0.0,
                            "default-rotation0" : 0.0,
                            "default-rotation1" : 0.0,
                            "default-rotation2" : 0.0,
                            "default-scale0" : 0.75,
                            "default-scale1" : 0.75,
                            "default-scale2" : 1.0,
                            "default-shear0" : 0.0,
                            "default-shear1" : 0.0,
                            "default-shear2" : 0.0,
                            "default-translation0" : 0.0,
                            "default-translation1" : 0.0,
                            "default-translation2" : 0.0
                          }
                        },
                        {
                          "id" : 110,
                          "_type" : "IMFile",
                          "src" : 1,
                          "trackNumber" : 0,
                          "trimStartSum" : 0,
                          "attributes" : {
                            "ident" : "Connexion — Mozilla Firefox (navigation privée) 2023-03-16 11-47-01"
                          },
                          "parameters" : {
                            "sourceCrop0" : 0.0,
                            "sourceCrop1" : 0.0,
                            "sourceCrop2" : 0.0,
                            "sourceCrop3" : 0.0,
                            "geometryCrop0" : 0.0,
                            "geometryCrop1" : 0.0,
                            "geometryCrop2" : 0.0,
                            "geometryCrop3" : 0.0
                          },
                          "effects" : [

                          ],
                          "start" : 88858560000,
                          "duration" : 3528000000,
                          "mediaStart" : 79685760000,
                          "mediaDuration" : 1,
                          "scalar" : 1,
                          "animationTracks" : {

                          }
                        },
                        {
                          "id" : 111,
                          "_type" : "UnifiedMedia",
                          "video" : 
                              {
                                "id" : 112,
                                "_type" : "VMFile",
                                "src" : 1,
                                "trackNumber" : 0,
                                "attributes" : {
                                  "ident" : "Connexion — Mozilla Firefox (navigation privée) 2023-03-16 11-47-01"
                                },
                                "parameters" : {
                                  "sourceCrop0" : 0.0,
                                  "sourceCrop1" : 0.0,
                                  "sourceCrop2" : 0.0,
                                  "sourceCrop3" : 0.0,
                                  "geometryCrop0" : 0.0,
                                  "geometryCrop1" : 0.0,
                                  "geometryCrop2" : 0.0,
                                  "geometryCrop3" : 0.0
                                },
                                "effects" : [

                                ],
                                "start" : 92386560000,
                                "duration" : 148999200000,
                                "mediaStart" : 79685760000,
                                "mediaDuration" : 148999200000,
                                "scalar" : 1,
                                "animationTracks" : {

                                }
                              },
                          "audio" : 
                              {
                                "id" : 113,
                                "_type" : "AMFile",
                                "src" : 1,
                                "trackNumber" : 1,
                                "attributes" : {
                                  "ident" : "",
                                  "gain" : 1.0,
                                  "mixToMono" : false,
                                  "loudnessNormalization" : true,
                                  "sourceFileOffset" : 0
                                },
                                  "channelNumber" : "0,1",
                                "effects" : [

                                ],
                                "start" : 92386560000,
                                "duration" : 148999200000,
                                "mediaStart" : 79685760000,
                                "mediaDuration" : 148999200000,
                                "scalar" : 1,
                                "animationTracks" : {

                                }
                              }
,
                          "start" : 92386560000,
                          "duration" : 148999200000,
                          "mediaStart" : 0,
                          "mediaDuration" : 228684960000,
                          "scalar" : 1,
                          "metadata" : {
                            "clipSpeedAttribute" : false,
                            "default-anchor0" : 0.0,
                            "default-anchor1" : 0.0,
                            "default-anchor2" : 0.0,
                            "default-geometryCrop1" : 0.0,
                            "default-rotation0" : 0.0,
                            "default-rotation1" : 0.0,
                            "default-rotation2" : 0.0,
                            "default-scale0" : 0.75,
                            "default-scale1" : 0.75,
                            "default-scale2" : 1.0,
                            "default-shear0" : 0.0,
                            "default-shear1" : 0.0,
                            "default-shear2" : 0.0,
                            "default-translation0" : 0.0,
                            "default-translation1" : 0.0,
                            "default-translation2" : 0.0
                          }
                        }
                    ],
                    "effects" : [

                    ],
                    "start" : 53272800000,
                    "duration" : 6373920000,
                    "mediaStart" : 94597440000,
                    "mediaDuration" : 32292960000,
                    "scalar" : "271/1373",
                    "metadata" : {
                      "clipSpeedAttribute" : true
                    },
                    "animationTracks" : {

                    }
                  },
                  {
                    "id" : 114,
                    "_type" : "StitchedMedia",
                    "minMediaStart" : 0,
                    "attributes" : {
                      "ident" : "Connexion — Mozilla Firefox (navigation privée) 2023-03-16 11-47-01",
                      "gain" : 1.0,
                      "mixToMono" : false,
                      "loudnessNormalization" : true,
                      "sourceFileOffset" : 0
                    },
                    "parameters" : {
                      "translation0" : 4.47641923528863e-13,
                      "translation1" : 54.1571319603357,
                      "scale0" : 0.789473684210527,
                      "scale1" : 0.789473684210526,
                      "sourceCrop0" : 0.0,
                      "sourceCrop1" : 0.0,
                      "sourceCrop2" : 0.0,
                      "sourceCrop3" : 0.0,
                      "geometryCrop0" : 0.0,
                      "geometryCrop1" : 137.198067632851,
                      "geometryCrop2" : 0.0,
                      "geometryCrop3" : 0.0,
                      "volume" : 1.0
                    },
                    "medias" : [
                        {
                          "id" : 115,
                          "_type" : "UnifiedMedia",
                          "video" : 
                              {
                                "id" : 116,
                                "_type" : "VMFile",
                                "src" : 1,
                                "trackNumber" : 0,
                                "attributes" : {
                                  "ident" : "Connexion — Mozilla Firefox (navigation privée) 2023-03-16 11-47-01"
                                },
                                "parameters" : {
                                  "sourceCrop0" : 0.0,
                                  "sourceCrop1" : 0.0,
                                  "sourceCrop2" : 0.0,
                                  "sourceCrop3" : 0.0,
                                  "geometryCrop0" : 0.0,
                                  "geometryCrop1" : 0.0,
                                  "geometryCrop2" : 0.0,
                                  "geometryCrop3" : 0.0
                                },
                                "effects" : [

                                ],
                                "start" : 0,
                                "duration" : 15923040000,
                                "mediaStart" : 0,
                                "mediaDuration" : 15923040000,
                                "scalar" : 1,
                                "animationTracks" : {

                                }
                              },
                          "audio" : 
                              {
                                "id" : 117,
                                "_type" : "AMFile",
                                "src" : 1,
                                "trackNumber" : 1,
                                "attributes" : {
                                  "ident" : "",
                                  "gain" : 1.0,
                                  "mixToMono" : false,
                                  "loudnessNormalization" : true,
                                  "sourceFileOffset" : 0
                                },
                                  "channelNumber" : "0,1",
                                "effects" : [

                                ],
                                "start" : 0,
                                "duration" : 15923040000,
                                "mediaStart" : 0,
                                "mediaDuration" : 15923040000,
                                "scalar" : 1,
                                "animationTracks" : {

                                }
                              }
,
                          "start" : 0,
                          "duration" : 15923040000,
                          "mediaStart" : 0,
                          "mediaDuration" : 228684960000,
                          "scalar" : 1,
                          "metadata" : {
                            "clipSpeedAttribute" : false,
                            "default-anchor0" : 0.0,
                            "default-anchor1" : 0.0,
                            "default-anchor2" : 0.0,
                            "default-geometryCrop1" : 0.0,
                            "default-rotation0" : 0.0,
                            "default-rotation1" : 0.0,
                            "default-rotation2" : 0.0,
                            "default-scale0" : 0.75,
                            "default-scale1" : 0.75,
                            "default-scale2" : 1.0,
                            "default-shear0" : 0.0,
                            "default-shear1" : 0.0,
                            "default-shear2" : 0.0,
                            "default-translation0" : 0.0,
                            "default-translation1" : 0.0,
                            "default-translation2" : 0.0
                          }
                        },
                        {
                          "id" : 118,
                          "_type" : "IMFile",
                          "src" : 1,
                          "trackNumber" : 0,
                          "trimStartSum" : 0,
                          "attributes" : {
                            "ident" : "Connexion — Mozilla Firefox (navigation privée) 2023-03-16 11-47-01"
                          },
                          "parameters" : {
                            "sourceCrop0" : 0.0,
                            "sourceCrop1" : 0.0,
                            "sourceCrop2" : 0.0,
                            "sourceCrop3" : 0.0,
                            "geometryCrop0" : 0.0,
                            "geometryCrop1" : 0.0,
                            "geometryCrop2" : 0.0,
                            "geometryCrop3" : 0.0
                          },
                          "effects" : [

                          ],
                          "start" : 15923040000,
                          "duration" : 2116800000,
                          "mediaStart" : 15899520000,
                          "mediaDuration" : 1,
                          "scalar" : 1,
                          "animationTracks" : {

                          }
                        },
                        {
                          "id" : 119,
                          "_type" : "UnifiedMedia",
                          "video" : 
                              {
                                "id" : 120,
                                "_type" : "VMFile",
                                "src" : 1,
                                "trackNumber" : 0,
                                "attributes" : {
                                  "ident" : "Connexion — Mozilla Firefox (navigation privée) 2023-03-16 11-47-01"
                                },
                                "parameters" : {
                                  "sourceCrop0" : 0.0,
                                  "sourceCrop1" : 0.0,
                                  "sourceCrop2" : 0.0,
                                  "sourceCrop3" : 0.0,
                                  "geometryCrop0" : 0.0,
                                  "geometryCrop1" : 0.0,
                                  "geometryCrop2" : 0.0,
                                  "geometryCrop3" : 0.0
                                },
                                "effects" : [

                                ],
                                "start" : 18039840000,
                                "duration" : 44735040000,
                                "mediaStart" : 15923040000,
                                "mediaDuration" : 44735040000,
                                "scalar" : 1,
                                "animationTracks" : {

                                }
                              },
                          "audio" : 
                              {
                                "id" : 121,
                                "_type" : "AMFile",
                                "src" : 1,
                                "trackNumber" : 1,
                                "attributes" : {
                                  "ident" : "",
                                  "gain" : 1.0,
                                  "mixToMono" : false,
                                  "loudnessNormalization" : true,
                                  "sourceFileOffset" : 0
                                },
                                  "channelNumber" : "0,1",
                                "effects" : [

                                ],
                                "start" : 18039840000,
                                "duration" : 44735040000,
                                "mediaStart" : 15923040000,
                                "mediaDuration" : 44735040000,
                                "scalar" : 1,
                                "animationTracks" : {

                                }
                              }
,
                          "start" : 18039840000,
                          "duration" : 44735040000,
                          "mediaStart" : 0,
                          "mediaDuration" : 228684960000,
                          "scalar" : 1,
                          "metadata" : {
                            "clipSpeedAttribute" : false,
                            "default-anchor0" : 0.0,
                            "default-anchor1" : 0.0,
                            "default-anchor2" : 0.0,
                            "default-geometryCrop1" : 0.0,
                            "default-rotation0" : 0.0,
                            "default-rotation1" : 0.0,
                            "default-rotation2" : 0.0,
                            "default-scale0" : 0.75,
                            "default-scale1" : 0.75,
                            "default-scale2" : 1.0,
                            "default-shear0" : 0.0,
                            "default-shear1" : 0.0,
                            "default-shear2" : 0.0,
                            "default-translation0" : 0.0,
                            "default-translation1" : 0.0,
                            "default-translation2" : 0.0
                          }
                        },
                        {
                          "id" : 122,
                          "_type" : "IMFile",
                          "src" : 1,
                          "trackNumber" : 0,
                          "trimStartSum" : 0,
                          "attributes" : {
                            "ident" : "Connexion — Mozilla Firefox (navigation privée) 2023-03-16 11-47-01"
                          },
                          "parameters" : {
                            "sourceCrop0" : 0.0,
                            "sourceCrop1" : 0.0,
                            "sourceCrop2" : 0.0,
                            "sourceCrop3" : 0.0,
                            "geometryCrop0" : 0.0,
                            "geometryCrop1" : 0.0,
                            "geometryCrop2" : 0.0,
                            "geometryCrop3" : 0.0
                          },
                          "effects" : [

                          ],
                          "start" : 62774880000,
                          "duration" : 7056000000,
                          "mediaStart" : 60658080000,
                          "mediaDuration" : 1,
                          "scalar" : 1,
                          "animationTracks" : {

                          }
                        },
                        {
                          "id" : 123,
                          "_type" : "UnifiedMedia",
                          "video" : 
                              {
                                "id" : 124,
                                "_type" : "VMFile",
                                "src" : 1,
                                "trackNumber" : 0,
                                "attributes" : {
                                  "ident" : "Connexion — Mozilla Firefox (navigation privée) 2023-03-16 11-47-01"
                                },
                                "parameters" : {
                                  "sourceCrop0" : 0.0,
                                  "sourceCrop1" : 0.0,
                                  "sourceCrop2" : 0.0,
                                  "sourceCrop3" : 0.0,
                                  "geometryCrop0" : 0.0,
                                  "geometryCrop1" : 0.0,
                                  "geometryCrop2" : 0.0,
                                  "geometryCrop3" : 0.0
                                },
                                "effects" : [

                                ],
                                "start" : 69830880000,
                                "duration" : 19027680000,
                                "mediaStart" : 60658080000,
                                "mediaDuration" : 19027680000,
                                "scalar" : 1,
                                "animationTracks" : {

                                }
                              },
                          "audio" : 
                              {
                                "id" : 125,
                                "_type" : "AMFile",
                                "src" : 1,
                                "trackNumber" : 1,
                                "attributes" : {
                                  "ident" : "",
                                  "gain" : 1.0,
                                  "mixToMono" : false,
                                  "loudnessNormalization" : true,
                                  "sourceFileOffset" : 0
                                },
                                  "channelNumber" : "0,1",
                                "effects" : [

                                ],
                                "start" : 69830880000,
                                "duration" : 19027680000,
                                "mediaStart" : 60658080000,
                                "mediaDuration" : 19027680000,
                                "scalar" : 1,
                                "animationTracks" : {

                                }
                              }
,
                          "start" : 69830880000,
                          "duration" : 19027680000,
                          "mediaStart" : 0,
                          "mediaDuration" : 228684960000,
                          "scalar" : 1,
                          "metadata" : {
                            "clipSpeedAttribute" : false,
                            "default-anchor0" : 0.0,
                            "default-anchor1" : 0.0,
                            "default-anchor2" : 0.0,
                            "default-geometryCrop1" : 0.0,
                            "default-rotation0" : 0.0,
                            "default-rotation1" : 0.0,
                            "default-rotation2" : 0.0,
                            "default-scale0" : 0.75,
                            "default-scale1" : 0.75,
                            "default-scale2" : 1.0,
                            "default-shear0" : 0.0,
                            "default-shear1" : 0.0,
                            "default-shear2" : 0.0,
                            "default-translation0" : 0.0,
                            "default-translation1" : 0.0,
                            "default-translation2" : 0.0
                          }
                        },
                        {
                          "id" : 126,
                          "_type" : "IMFile",
                          "src" : 1,
                          "trackNumber" : 0,
                          "trimStartSum" : 0,
                          "attributes" : {
                            "ident" : "Connexion — Mozilla Firefox (navigation privée) 2023-03-16 11-47-01"
                          },
                          "parameters" : {
                            "sourceCrop0" : 0.0,
                            "sourceCrop1" : 0.0,
                            "sourceCrop2" : 0.0,
                            "sourceCrop3" : 0.0,
                            "geometryCrop0" : 0.0,
                            "geometryCrop1" : 0.0,
                            "geometryCrop2" : 0.0,
                            "geometryCrop3" : 0.0
                          },
                          "effects" : [

                          ],
                          "start" : 88858560000,
                          "duration" : 3528000000,
                          "mediaStart" : 79685760000,
                          "mediaDuration" : 1,
                          "scalar" : 1,
                          "animationTracks" : {

                          }
                        },
                        {
                          "id" : 127,
                          "_type" : "UnifiedMedia",
                          "video" : 
                              {
                                "id" : 128,
                                "_type" : "VMFile",
                                "src" : 1,
                                "trackNumber" : 0,
                                "attributes" : {
                                  "ident" : "Connexion — Mozilla Firefox (navigation privée) 2023-03-16 11-47-01"
                                },
                                "parameters" : {
                                  "sourceCrop0" : 0.0,
                                  "sourceCrop1" : 0.0,
                                  "sourceCrop2" : 0.0,
                                  "sourceCrop3" : 0.0,
                                  "geometryCrop0" : 0.0,
                                  "geometryCrop1" : 0.0,
                                  "geometryCrop2" : 0.0,
                                  "geometryCrop3" : 0.0
                                },
                                "effects" : [

                                ],
                                "start" : 92386560000,
                                "duration" : 34715520000,
                                "mediaStart" : 79685760000,
                                "mediaDuration" : 34715520000,
                                "scalar" : 1,
                                "animationTracks" : {

                                }
                              },
                          "audio" : 
                              {
                                "id" : 129,
                                "_type" : "AMFile",
                                "src" : 1,
                                "trackNumber" : 1,
                                "attributes" : {
                                  "ident" : "",
                                  "gain" : 1.0,
                                  "mixToMono" : false,
                                  "loudnessNormalization" : true,
                                  "sourceFileOffset" : 0
                                },
                                  "channelNumber" : "0,1",
                                "effects" : [

                                ],
                                "start" : 92386560000,
                                "duration" : 34715520000,
                                "mediaStart" : 79685760000,
                                "mediaDuration" : 34715520000,
                                "scalar" : 1,
                                "animationTracks" : {

                                }
                              }
,
                          "start" : 92386560000,
                          "duration" : 34715520000,
                          "mediaStart" : 0,
                          "mediaDuration" : 228684960000,
                          "scalar" : 1,
                          "metadata" : {
                            "clipSpeedAttribute" : false,
                            "default-anchor0" : 0.0,
                            "default-anchor1" : 0.0,
                            "default-anchor2" : 0.0,
                            "default-geometryCrop1" : 0.0,
                            "default-rotation0" : 0.0,
                            "default-rotation1" : 0.0,
                            "default-rotation2" : 0.0,
                            "default-scale0" : 0.75,
                            "default-scale1" : 0.75,
                            "default-scale2" : 1.0,
                            "default-shear0" : 0.0,
                            "default-shear1" : 0.0,
                            "default-shear2" : 0.0,
                            "default-translation0" : 0.0,
                            "default-translation1" : 0.0,
                            "default-translation2" : 0.0
                          }
                        },
                        {
                          "id" : 130,
                          "_type" : "IMFile",
                          "src" : 1,
                          "trackNumber" : 0,
                          "trimStartSum" : 0,
                          "attributes" : {
                            "ident" : "Connexion — Mozilla Firefox (navigation privée) 2023-03-16 11-47-01"
                          },
                          "parameters" : {
                            "sourceCrop0" : 0.0,
                            "sourceCrop1" : 0.0,
                            "sourceCrop2" : 0.0,
                            "sourceCrop3" : 0.0,
                            "geometryCrop0" : 0.0,
                            "geometryCrop1" : 0.0,
                            "geometryCrop2" : 0.0,
                            "geometryCrop3" : 0.0
                          },
                          "effects" : [

                          ],
                          "start" : 127102080000,
                          "duration" : 3528000000,
                          "mediaStart" : 114401280000,
                          "mediaDuration" : 1,
                          "scalar" : 1,
                          "animationTracks" : {

                          }
                        },
                        {
                          "id" : 131,
                          "_type" : "UnifiedMedia",
                          "video" : 
                              {
                                "id" : 132,
                                "_type" : "VMFile",
                                "src" : 1,
                                "trackNumber" : 0,
                                "attributes" : {
                                  "ident" : "Connexion — Mozilla Firefox (navigation privée) 2023-03-16 11-47-01"
                                },
                                "parameters" : {
                                  "sourceCrop0" : 0.0,
                                  "sourceCrop1" : 0.0,
                                  "sourceCrop2" : 0.0,
                                  "sourceCrop3" : 0.0,
                                  "geometryCrop0" : 0.0,
                                  "geometryCrop1" : 0.0,
                                  "geometryCrop2" : 0.0,
                                  "geometryCrop3" : 0.0
                                },
                                "effects" : [

                                ],
                                "start" : 130630080000,
                                "duration" : 114283680000,
                                "mediaStart" : 114401280000,
                                "mediaDuration" : 114283680000,
                                "scalar" : 1,
                                "animationTracks" : {

                                }
                              },
                          "audio" : 
                              {
                                "id" : 133,
                                "_type" : "AMFile",
                                "src" : 1,
                                "trackNumber" : 1,
                                "attributes" : {
                                  "ident" : "",
                                  "gain" : 1.0,
                                  "mixToMono" : false,
                                  "loudnessNormalization" : true,
                                  "sourceFileOffset" : 0
                                },
                                  "channelNumber" : "0,1",
                                "effects" : [

                                ],
                                "start" : 130630080000,
                                "duration" : 114283680000,
                                "mediaStart" : 114401280000,
                                "mediaDuration" : 114283680000,
                                "scalar" : 1,
                                "animationTracks" : {

                                }
                              }
,
                          "start" : 130630080000,
                          "duration" : 114283680000,
                          "mediaStart" : 0,
                          "mediaDuration" : 228684960000,
                          "scalar" : 1,
                          "metadata" : {
                            "clipSpeedAttribute" : false,
                            "default-anchor0" : 0.0,
                            "default-anchor1" : 0.0,
                            "default-anchor2" : 0.0,
                            "default-geometryCrop1" : 0.0,
                            "default-rotation0" : 0.0,
                            "default-rotation1" : 0.0,
                            "default-rotation2" : 0.0,
                            "default-scale0" : 0.75,
                            "default-scale1" : 0.75,
                            "default-scale2" : 1.0,
                            "default-shear0" : 0.0,
                            "default-shear1" : 0.0,
                            "default-shear2" : 0.0,
                            "default-translation0" : 0.0,
                            "default-translation1" : 0.0,
                            "default-translation2" : 0.0
                          }
                        }
                    ],
                    "effects" : [

                    ],
                    "start" : 59646720000,
                    "duration" : 11030880000,
                    "mediaStart" : 126890400000,
                    "mediaDuration" : 11030880000,
                    "scalar" : 1,
                    "metadata" : {
                      "clipSpeedAttribute" : false
                    },
                    "animationTracks" : {

                    }
                  },
                  {
                    "id" : 134,
                    "_type" : "StitchedMedia",
                    "minMediaStart" : 0,
                    "attributes" : {
                      "ident" : "Connexion — Mozilla Firefox (navigation privée) 2023-03-16 11-47-01",
                      "gain" : 1.0,
                      "mixToMono" : false,
                      "loudnessNormalization" : true,
                      "sourceFileOffset" : 0
                    },
                    "parameters" : {
                      "translation0" : {
                        "type" : "double",
                        "defaultValue" : 4.47641923528863e-13,
                        "interp" : "eioe"
                      },
                      "translation1" : {
                        "type" : "double",
                        "defaultValue" : 54.1571319603357,
                        "interp" : "eioe"
                      },
                      "scale0" : {
                        "type" : "double",
                        "defaultValue" : 0.789473684210527,
                        "interp" : "eioe"
                      },
                      "scale1" : {
                        "type" : "double",
                        "defaultValue" : 0.789473684210526,
                        "interp" : "eioe"
                      },
                      "sourceCrop0" : {
                        "type" : "double",
                        "defaultValue" : 0.0,
                        "interp" : "eioe"
                      },
                      "sourceCrop1" : {
                        "type" : "double",
                        "defaultValue" : 0.0,
                        "interp" : "eioe"
                      },
                      "sourceCrop2" : {
                        "type" : "double",
                        "defaultValue" : 0.0,
                        "interp" : "eioe"
                      },
                      "sourceCrop3" : {
                        "type" : "double",
                        "defaultValue" : 0.0,
                        "interp" : "eioe"
                      },
                      "geometryCrop0" : {
                        "type" : "double",
                        "defaultValue" : 0.0,
                        "interp" : "eioe"
                      },
                      "geometryCrop1" : {
                        "type" : "double",
                        "defaultValue" : 137.198067632851,
                        "interp" : "eioe"
                      },
                      "geometryCrop2" : {
                        "type" : "double",
                        "defaultValue" : 0.0,
                        "interp" : "eioe"
                      },
                      "geometryCrop3" : {
                        "type" : "double",
                        "defaultValue" : 0.0,
                        "interp" : "eioe"
                      },
                      "volume" : 1.0
                    },
                    "medias" : [
                        {
                          "id" : 135,
                          "_type" : "UnifiedMedia",
                          "video" : 
                              {
                                "id" : 136,
                                "_type" : "VMFile",
                                "src" : 1,
                                "trackNumber" : 0,
                                "attributes" : {
                                  "ident" : "Connexion — Mozilla Firefox (navigation privée) 2023-03-16 11-47-01"
                                },
                                "parameters" : {
                                  "sourceCrop0" : {
                                    "type" : "double",
                                    "defaultValue" : 0.0,
                                    "interp" : "eioe"
                                  },
                                  "sourceCrop1" : {
                                    "type" : "double",
                                    "defaultValue" : 0.0,
                                    "interp" : "eioe"
                                  },
                                  "sourceCrop2" : {
                                    "type" : "double",
                                    "defaultValue" : 0.0,
                                    "interp" : "eioe"
                                  },
                                  "sourceCrop3" : {
                                    "type" : "double",
                                    "defaultValue" : 0.0,
                                    "interp" : "eioe"
                                  },
                                  "geometryCrop0" : {
                                    "type" : "double",
                                    "defaultValue" : 0.0,
                                    "interp" : "eioe"
                                  },
                                  "geometryCrop1" : {
                                    "type" : "double",
                                    "defaultValue" : 0.0,
                                    "interp" : "eioe"
                                  },
                                  "geometryCrop2" : {
                                    "type" : "double",
                                    "defaultValue" : 0.0,
                                    "interp" : "eioe"
                                  },
                                  "geometryCrop3" : {
                                    "type" : "double",
                                    "defaultValue" : 0.0,
                                    "interp" : "eioe"
                                  }
                                },
                                "effects" : [

                                ],
                                "start" : 0,
                                "duration" : 15923040000,
                                "mediaStart" : 0,
                                "mediaDuration" : 15923040000,
                                "scalar" : 1,
                                "animationTracks" : {

                                }
                              },
                          "audio" : 
                              {
                                "id" : 137,
                                "_type" : "AMFile",
                                "src" : 1,
                                "trackNumber" : 1,
                                "attributes" : {
                                  "ident" : "",
                                  "gain" : 1.0,
                                  "mixToMono" : false,
                                  "loudnessNormalization" : true,
                                  "sourceFileOffset" : 0
                                },
                                  "channelNumber" : "0,1",
                                "effects" : [

                                ],
                                "start" : 0,
                                "duration" : 15923040000,
                                "mediaStart" : 0,
                                "mediaDuration" : 15923040000,
                                "scalar" : 1,
                                "animationTracks" : {

                                }
                              }
,
                          "start" : 0,
                          "duration" : 15923040000,
                          "mediaStart" : 0,
                          "mediaDuration" : 228684960000,
                          "scalar" : 1,
                          "metadata" : {
                            "clipSpeedAttribute" : false,
                            "default-anchor0" : 0.0,
                            "default-anchor1" : 0.0,
                            "default-anchor2" : 0.0,
                            "default-geometryCrop1" : 0.0,
                            "default-rotation0" : 0.0,
                            "default-rotation1" : 0.0,
                            "default-rotation2" : 0.0,
                            "default-scale0" : 0.75,
                            "default-scale1" : 0.75,
                            "default-scale2" : 1.0,
                            "default-shear0" : 0.0,
                            "default-shear1" : 0.0,
                            "default-shear2" : 0.0,
                            "default-translation0" : 0.0,
                            "default-translation1" : 0.0,
                            "default-translation2" : 0.0
                          }
                        },
                        {
                          "id" : 138,
                          "_type" : "IMFile",
                          "src" : 1,
                          "trackNumber" : 0,
                          "trimStartSum" : 0,
                          "attributes" : {
                            "ident" : "Connexion — Mozilla Firefox (navigation privée) 2023-03-16 11-47-01"
                          },
                          "parameters" : {
                            "sourceCrop0" : {
                              "type" : "double",
                              "defaultValue" : 0.0,
                              "interp" : "eioe"
                            },
                            "sourceCrop1" : {
                              "type" : "double",
                              "defaultValue" : 0.0,
                              "interp" : "eioe"
                            },
                            "sourceCrop2" : {
                              "type" : "double",
                              "defaultValue" : 0.0,
                              "interp" : "eioe"
                            },
                            "sourceCrop3" : {
                              "type" : "double",
                              "defaultValue" : 0.0,
                              "interp" : "eioe"
                            },
                            "geometryCrop0" : {
                              "type" : "double",
                              "defaultValue" : 0.0,
                              "interp" : "eioe"
                            },
                            "geometryCrop1" : {
                              "type" : "double",
                              "defaultValue" : 0.0,
                              "interp" : "eioe"
                            },
                            "geometryCrop2" : {
                              "type" : "double",
                              "defaultValue" : 0.0,
                              "interp" : "eioe"
                            },
                            "geometryCrop3" : {
                              "type" : "double",
                              "defaultValue" : 0.0,
                              "interp" : "eioe"
                            }
                          },
                          "effects" : [

                          ],
                          "start" : 15923040000,
                          "duration" : 2116800000,
                          "mediaStart" : 15899520000,
                          "mediaDuration" : 1,
                          "scalar" : 1,
                          "animationTracks" : {

                          }
                        },
                        {
                          "id" : 139,
                          "_type" : "UnifiedMedia",
                          "video" : 
                              {
                                "id" : 140,
                                "_type" : "VMFile",
                                "src" : 1,
                                "trackNumber" : 0,
                                "attributes" : {
                                  "ident" : "Connexion — Mozilla Firefox (navigation privée) 2023-03-16 11-47-01"
                                },
                                "parameters" : {
                                  "sourceCrop0" : {
                                    "type" : "double",
                                    "defaultValue" : 0.0,
                                    "interp" : "eioe"
                                  },
                                  "sourceCrop1" : {
                                    "type" : "double",
                                    "defaultValue" : 0.0,
                                    "interp" : "eioe"
                                  },
                                  "sourceCrop2" : {
                                    "type" : "double",
                                    "defaultValue" : 0.0,
                                    "interp" : "eioe"
                                  },
                                  "sourceCrop3" : {
                                    "type" : "double",
                                    "defaultValue" : 0.0,
                                    "interp" : "eioe"
                                  },
                                  "geometryCrop0" : {
                                    "type" : "double",
                                    "defaultValue" : 0.0,
                                    "interp" : "eioe"
                                  },
                                  "geometryCrop1" : {
                                    "type" : "double",
                                    "defaultValue" : 0.0,
                                    "interp" : "eioe"
                                  },
                                  "geometryCrop2" : {
                                    "type" : "double",
                                    "defaultValue" : 0.0,
                                    "interp" : "eioe"
                                  },
                                  "geometryCrop3" : {
                                    "type" : "double",
                                    "defaultValue" : 0.0,
                                    "interp" : "eioe"
                                  }
                                },
                                "effects" : [

                                ],
                                "start" : 18039840000,
                                "duration" : 44735040000,
                                "mediaStart" : 15923040000,
                                "mediaDuration" : 44735040000,
                                "scalar" : 1,
                                "animationTracks" : {

                                }
                              },
                          "audio" : 
                              {
                                "id" : 141,
                                "_type" : "AMFile",
                                "src" : 1,
                                "trackNumber" : 1,
                                "attributes" : {
                                  "ident" : "",
                                  "gain" : 1.0,
                                  "mixToMono" : false,
                                  "loudnessNormalization" : true,
                                  "sourceFileOffset" : 0
                                },
                                  "channelNumber" : "0,1",
                                "effects" : [

                                ],
                                "start" : 18039840000,
                                "duration" : 44735040000,
                                "mediaStart" : 15923040000,
                                "mediaDuration" : 44735040000,
                                "scalar" : 1,
                                "animationTracks" : {

                                }
                              }
,
                          "start" : 18039840000,
                          "duration" : 44735040000,
                          "mediaStart" : 0,
                          "mediaDuration" : 228684960000,
                          "scalar" : 1,
                          "metadata" : {
                            "clipSpeedAttribute" : false,
                            "default-anchor0" : 0.0,
                            "default-anchor1" : 0.0,
                            "default-anchor2" : 0.0,
                            "default-geometryCrop1" : 0.0,
                            "default-rotation0" : 0.0,
                            "default-rotation1" : 0.0,
                            "default-rotation2" : 0.0,
                            "default-scale0" : 0.75,
                            "default-scale1" : 0.75,
                            "default-scale2" : 1.0,
                            "default-shear0" : 0.0,
                            "default-shear1" : 0.0,
                            "default-shear2" : 0.0,
                            "default-translation0" : 0.0,
                            "default-translation1" : 0.0,
                            "default-translation2" : 0.0
                          }
                        },
                        {
                          "id" : 142,
                          "_type" : "IMFile",
                          "src" : 1,
                          "trackNumber" : 0,
                          "trimStartSum" : 0,
                          "attributes" : {
                            "ident" : "Connexion — Mozilla Firefox (navigation privée) 2023-03-16 11-47-01"
                          },
                          "parameters" : {
                            "sourceCrop0" : {
                              "type" : "double",
                              "defaultValue" : 0.0,
                              "interp" : "eioe"
                            },
                            "sourceCrop1" : {
                              "type" : "double",
                              "defaultValue" : 0.0,
                              "interp" : "eioe"
                            },
                            "sourceCrop2" : {
                              "type" : "double",
                              "defaultValue" : 0.0,
                              "interp" : "eioe"
                            },
                            "sourceCrop3" : {
                              "type" : "double",
                              "defaultValue" : 0.0,
                              "interp" : "eioe"
                            },
                            "geometryCrop0" : {
                              "type" : "double",
                              "defaultValue" : 0.0,
                              "interp" : "eioe"
                            },
                            "geometryCrop1" : {
                              "type" : "double",
                              "defaultValue" : 0.0,
                              "interp" : "eioe"
                            },
                            "geometryCrop2" : {
                              "type" : "double",
                              "defaultValue" : 0.0,
                              "interp" : "eioe"
                            },
                            "geometryCrop3" : {
                              "type" : "double",
                              "defaultValue" : 0.0,
                              "interp" : "eioe"
                            }
                          },
                          "effects" : [

                          ],
                          "start" : 62774880000,
                          "duration" : 7056000000,
                          "mediaStart" : 60658080000,
                          "mediaDuration" : 1,
                          "scalar" : 1,
                          "animationTracks" : {

                          }
                        },
                        {
                          "id" : 143,
                          "_type" : "UnifiedMedia",
                          "video" : 
                              {
                                "id" : 144,
                                "_type" : "VMFile",
                                "src" : 1,
                                "trackNumber" : 0,
                                "attributes" : {
                                  "ident" : "Connexion — Mozilla Firefox (navigation privée) 2023-03-16 11-47-01"
                                },
                                "parameters" : {
                                  "sourceCrop0" : {
                                    "type" : "double",
                                    "defaultValue" : 0.0,
                                    "interp" : "eioe"
                                  },
                                  "sourceCrop1" : {
                                    "type" : "double",
                                    "defaultValue" : 0.0,
                                    "interp" : "eioe"
                                  },
                                  "sourceCrop2" : {
                                    "type" : "double",
                                    "defaultValue" : 0.0,
                                    "interp" : "eioe"
                                  },
                                  "sourceCrop3" : {
                                    "type" : "double",
                                    "defaultValue" : 0.0,
                                    "interp" : "eioe"
                                  },
                                  "geometryCrop0" : {
                                    "type" : "double",
                                    "defaultValue" : 0.0,
                                    "interp" : "eioe"
                                  },
                                  "geometryCrop1" : {
                                    "type" : "double",
                                    "defaultValue" : 0.0,
                                    "interp" : "eioe"
                                  },
                                  "geometryCrop2" : {
                                    "type" : "double",
                                    "defaultValue" : 0.0,
                                    "interp" : "eioe"
                                  },
                                  "geometryCrop3" : {
                                    "type" : "double",
                                    "defaultValue" : 0.0,
                                    "interp" : "eioe"
                                  }
                                },
                                "effects" : [

                                ],
                                "start" : 69830880000,
                                "duration" : 19027680000,
                                "mediaStart" : 60658080000,
                                "mediaDuration" : 19027680000,
                                "scalar" : 1,
                                "animationTracks" : {

                                }
                              },
                          "audio" : 
                              {
                                "id" : 145,
                                "_type" : "AMFile",
                                "src" : 1,
                                "trackNumber" : 1,
                                "attributes" : {
                                  "ident" : "",
                                  "gain" : 1.0,
                                  "mixToMono" : false,
                                  "loudnessNormalization" : true,
                                  "sourceFileOffset" : 0
                                },
                                  "channelNumber" : "0,1",
                                "effects" : [

                                ],
                                "start" : 69830880000,
                                "duration" : 19027680000,
                                "mediaStart" : 60658080000,
                                "mediaDuration" : 19027680000,
                                "scalar" : 1,
                                "animationTracks" : {

                                }
                              }
,
                          "start" : 69830880000,
                          "duration" : 19027680000,
                          "mediaStart" : 0,
                          "mediaDuration" : 228684960000,
                          "scalar" : 1,
                          "metadata" : {
                            "clipSpeedAttribute" : false,
                            "default-anchor0" : 0.0,
                            "default-anchor1" : 0.0,
                            "default-anchor2" : 0.0,
                            "default-geometryCrop1" : 0.0,
                            "default-rotation0" : 0.0,
                            "default-rotation1" : 0.0,
                            "default-rotation2" : 0.0,
                            "default-scale0" : 0.75,
                            "default-scale1" : 0.75,
                            "default-scale2" : 1.0,
                            "default-shear0" : 0.0,
                            "default-shear1" : 0.0,
                            "default-shear2" : 0.0,
                            "default-translation0" : 0.0,
                            "default-translation1" : 0.0,
                            "default-translation2" : 0.0
                          }
                        },
                        {
                          "id" : 146,
                          "_type" : "IMFile",
                          "src" : 1,
                          "trackNumber" : 0,
                          "trimStartSum" : 0,
                          "attributes" : {
                            "ident" : "Connexion — Mozilla Firefox (navigation privée) 2023-03-16 11-47-01"
                          },
                          "parameters" : {
                            "sourceCrop0" : {
                              "type" : "double",
                              "defaultValue" : 0.0,
                              "interp" : "eioe"
                            },
                            "sourceCrop1" : {
                              "type" : "double",
                              "defaultValue" : 0.0,
                              "interp" : "eioe"
                            },
                            "sourceCrop2" : {
                              "type" : "double",
                              "defaultValue" : 0.0,
                              "interp" : "eioe"
                            },
                            "sourceCrop3" : {
                              "type" : "double",
                              "defaultValue" : 0.0,
                              "interp" : "eioe"
                            },
                            "geometryCrop0" : {
                              "type" : "double",
                              "defaultValue" : 0.0,
                              "interp" : "eioe"
                            },
                            "geometryCrop1" : {
                              "type" : "double",
                              "defaultValue" : 0.0,
                              "interp" : "eioe"
                            },
                            "geometryCrop2" : {
                              "type" : "double",
                              "defaultValue" : 0.0,
                              "interp" : "eioe"
                            },
                            "geometryCrop3" : {
                              "type" : "double",
                              "defaultValue" : 0.0,
                              "interp" : "eioe"
                            }
                          },
                          "effects" : [

                          ],
                          "start" : 88858560000,
                          "duration" : 3528000000,
                          "mediaStart" : 79685760000,
                          "mediaDuration" : 1,
                          "scalar" : 1,
                          "animationTracks" : {

                          }
                        },
                        {
                          "id" : 147,
                          "_type" : "UnifiedMedia",
                          "video" : 
                              {
                                "id" : 148,
                                "_type" : "VMFile",
                                "src" : 1,
                                "trackNumber" : 0,
                                "attributes" : {
                                  "ident" : "Connexion — Mozilla Firefox (navigation privée) 2023-03-16 11-47-01"
                                },
                                "parameters" : {
                                  "sourceCrop0" : {
                                    "type" : "double",
                                    "defaultValue" : 0.0,
                                    "interp" : "eioe"
                                  },
                                  "sourceCrop1" : {
                                    "type" : "double",
                                    "defaultValue" : 0.0,
                                    "interp" : "eioe"
                                  },
                                  "sourceCrop2" : {
                                    "type" : "double",
                                    "defaultValue" : 0.0,
                                    "interp" : "eioe"
                                  },
                                  "sourceCrop3" : {
                                    "type" : "double",
                                    "defaultValue" : 0.0,
                                    "interp" : "eioe"
                                  },
                                  "geometryCrop0" : {
                                    "type" : "double",
                                    "defaultValue" : 0.0,
                                    "interp" : "eioe"
                                  },
                                  "geometryCrop1" : {
                                    "type" : "double",
                                    "defaultValue" : 0.0,
                                    "interp" : "eioe"
                                  },
                                  "geometryCrop2" : {
                                    "type" : "double",
                                    "defaultValue" : 0.0,
                                    "interp" : "eioe"
                                  },
                                  "geometryCrop3" : {
                                    "type" : "double",
                                    "defaultValue" : 0.0,
                                    "interp" : "eioe"
                                  }
                                },
                                "effects" : [

                                ],
                                "start" : 92386560000,
                                "duration" : 34715520000,
                                "mediaStart" : 79685760000,
                                "mediaDuration" : 34715520000,
                                "scalar" : 1,
                                "animationTracks" : {

                                }
                              },
                          "audio" : 
                              {
                                "id" : 149,
                                "_type" : "AMFile",
                                "src" : 1,
                                "trackNumber" : 1,
                                "attributes" : {
                                  "ident" : "",
                                  "gain" : 1.0,
                                  "mixToMono" : false,
                                  "loudnessNormalization" : true,
                                  "sourceFileOffset" : 0
                                },
                                  "channelNumber" : "0,1",
                                "effects" : [

                                ],
                                "start" : 92386560000,
                                "duration" : 34715520000,
                                "mediaStart" : 79685760000,
                                "mediaDuration" : 34715520000,
                                "scalar" : 1,
                                "animationTracks" : {

                                }
                              }
,
                          "start" : 92386560000,
                          "duration" : 34715520000,
                          "mediaStart" : 0,
                          "mediaDuration" : 228684960000,
                          "scalar" : 1,
                          "metadata" : {
                            "clipSpeedAttribute" : false,
                            "default-anchor0" : 0.0,
                            "default-anchor1" : 0.0,
                            "default-anchor2" : 0.0,
                            "default-geometryCrop1" : 0.0,
                            "default-rotation0" : 0.0,
                            "default-rotation1" : 0.0,
                            "default-rotation2" : 0.0,
                            "default-scale0" : 0.75,
                            "default-scale1" : 0.75,
                            "default-scale2" : 1.0,
                            "default-shear0" : 0.0,
                            "default-shear1" : 0.0,
                            "default-shear2" : 0.0,
                            "default-translation0" : 0.0,
                            "default-translation1" : 0.0,
                            "default-translation2" : 0.0
                          }
                        },
                        {
                          "id" : 150,
                          "_type" : "IMFile",
                          "src" : 1,
                          "trackNumber" : 0,
                          "trimStartSum" : 0,
                          "attributes" : {
                            "ident" : "Connexion — Mozilla Firefox (navigation privée) 2023-03-16 11-47-01"
                          },
                          "parameters" : {
                            "sourceCrop0" : {
                              "type" : "double",
                              "defaultValue" : 0.0,
                              "interp" : "eioe"
                            },
                            "sourceCrop1" : {
                              "type" : "double",
                              "defaultValue" : 0.0,
                              "interp" : "eioe"
                            },
                            "sourceCrop2" : {
                              "type" : "double",
                              "defaultValue" : 0.0,
                              "interp" : "eioe"
                            },
                            "sourceCrop3" : {
                              "type" : "double",
                              "defaultValue" : 0.0,
                              "interp" : "eioe"
                            },
                            "geometryCrop0" : {
                              "type" : "double",
                              "defaultValue" : 0.0,
                              "interp" : "eioe"
                            },
                            "geometryCrop1" : {
                              "type" : "double",
                              "defaultValue" : 0.0,
                              "interp" : "eioe"
                            },
                            "geometryCrop2" : {
                              "type" : "double",
                              "defaultValue" : 0.0,
                              "interp" : "eioe"
                            },
                            "geometryCrop3" : {
                              "type" : "double",
                              "defaultValue" : 0.0,
                              "interp" : "eioe"
                            }
                          },
                          "effects" : [

                          ],
                          "start" : 127102080000,
                          "duration" : 3528000000,
                          "mediaStart" : 114401280000,
                          "mediaDuration" : 1,
                          "scalar" : 1,
                          "animationTracks" : {

                          }
                        },
                        {
                          "id" : 151,
                          "_type" : "UnifiedMedia",
                          "video" : 
                              {
                                "id" : 152,
                                "_type" : "VMFile",
                                "src" : 1,
                                "trackNumber" : 0,
                                "attributes" : {
                                  "ident" : "Connexion — Mozilla Firefox (navigation privée) 2023-03-16 11-47-01"
                                },
                                "parameters" : {
                                  "sourceCrop0" : {
                                    "type" : "double",
                                    "defaultValue" : 0.0,
                                    "interp" : "eioe"
                                  },
                                  "sourceCrop1" : {
                                    "type" : "double",
                                    "defaultValue" : 0.0,
                                    "interp" : "eioe"
                                  },
                                  "sourceCrop2" : {
                                    "type" : "double",
                                    "defaultValue" : 0.0,
                                    "interp" : "eioe"
                                  },
                                  "sourceCrop3" : {
                                    "type" : "double",
                                    "defaultValue" : 0.0,
                                    "interp" : "eioe"
                                  },
                                  "geometryCrop0" : {
                                    "type" : "double",
                                    "defaultValue" : 0.0,
                                    "interp" : "eioe"
                                  },
                                  "geometryCrop1" : {
                                    "type" : "double",
                                    "defaultValue" : 0.0,
                                    "interp" : "eioe"
                                  },
                                  "geometryCrop2" : {
                                    "type" : "double",
                                    "defaultValue" : 0.0,
                                    "interp" : "eioe"
                                  },
                                  "geometryCrop3" : {
                                    "type" : "double",
                                    "defaultValue" : 0.0,
                                    "interp" : "eioe"
                                  }
                                },
                                "effects" : [

                                ],
                                "start" : 130630080000,
                                "duration" : 114283680000,
                                "mediaStart" : 114401280000,
                                "mediaDuration" : 114283680000,
                                "scalar" : 1,
                                "animationTracks" : {

                                }
                              },
                          "audio" : 
                              {
                                "id" : 153,
                                "_type" : "AMFile",
                                "src" : 1,
                                "trackNumber" : 1,
                                "attributes" : {
                                  "ident" : "",
                                  "gain" : 1.0,
                                  "mixToMono" : false,
                                  "loudnessNormalization" : true,
                                  "sourceFileOffset" : 0
                                },
                                  "channelNumber" : "0,1",
                                "effects" : [

                                ],
                                "start" : 130630080000,
                                "duration" : 114283680000,
                                "mediaStart" : 114401280000,
                                "mediaDuration" : 114283680000,
                                "scalar" : 1,
                                "animationTracks" : {

                                }
                              }
,
                          "start" : 130630080000,
                          "duration" : 114283680000,
                          "mediaStart" : 0,
                          "mediaDuration" : 228684960000,
                          "scalar" : 1,
                          "metadata" : {
                            "clipSpeedAttribute" : false,
                            "default-anchor0" : 0.0,
                            "default-anchor1" : 0.0,
                            "default-anchor2" : 0.0,
                            "default-geometryCrop1" : 0.0,
                            "default-rotation0" : 0.0,
                            "default-rotation1" : 0.0,
                            "default-rotation2" : 0.0,
                            "default-scale0" : 0.75,
                            "default-scale1" : 0.75,
                            "default-scale2" : 1.0,
                            "default-shear0" : 0.0,
                            "default-shear1" : 0.0,
                            "default-shear2" : 0.0,
                            "default-translation0" : 0.0,
                            "default-translation1" : 0.0,
                            "default-translation2" : 0.0
                          }
                        }
                    ],
                    "effects" : [

                    ],
                    "start" : 70677600000,
                    "duration" : 2704800000,
                    "mediaStart" : 151562880000,
                    "mediaDuration" : 2704800000,
                    "scalar" : 1,
                    "metadata" : {
                      "clipSpeedAttribute" : false
                    },
                    "animationTracks" : {

                    }
                  },
                  {
                    "id" : 154,
                    "_type" : "StitchedMedia",
                    "minMediaStart" : -2.54016e+12,
                    "attributes" : {
                      "ident" : "Connexion — Mozilla Firefox (navigation privée) 2023-03-16 11-47-01",
                      "gain" : 1.0,
                      "mixToMono" : false,
                      "loudnessNormalization" : true,
                      "sourceFileOffset" : 0
                    },
                    "parameters" : {
                      "translation0" : 4.47641923528863e-13,
                      "translation1" : 54.1571319603357,
                      "scale0" : 0.789473684210527,
                      "scale1" : 0.789473684210526,
                      "sourceCrop0" : 0.0,
                      "sourceCrop1" : 0.0,
                      "sourceCrop2" : 0.0,
                      "sourceCrop3" : 0.0,
                      "geometryCrop0" : 0.0,
                      "geometryCrop1" : 137.198067632851,
                      "geometryCrop2" : 0.0,
                      "geometryCrop3" : 0.0,
                      "volume" : 1.0
                    },
                    "medias" : [
                        {
                          "id" : 155,
                          "_type" : "IMFile",
                          "src" : 1,
                          "trackNumber" : 0,
                          "trimStartSum" : -2540160000000,
                          "attributes" : {
                            "ident" : "Connexion — Mozilla Firefox (navigation privée) 2023-03-16 11-47-01"
                          },
                          "parameters" : {
                            "sourceCrop0" : 0.0,
                            "sourceCrop1" : 0.0,
                            "sourceCrop2" : 0.0,
                            "sourceCrop3" : 0.0,
                            "geometryCrop0" : 0.0,
                            "geometryCrop1" : 0.0,
                            "geometryCrop2" : 0.0,
                            "geometryCrop3" : 0.0
                          },
                          "effects" : [

                          ],
                          "start" : -2540160000000,
                          "duration" : 2542982400000,
                          "mediaStart" : 145188960000,
                          "mediaDuration" : 1,
                          "scalar" : 1,
                          "metadata" : {
                            "clipSpeedAttribute" : false
                          },
                          "animationTracks" : {

                          }
                        },
                        {
                          "id" : 156,
                          "_type" : "UnifiedMedia",
                          "video" : 
                              {
                                "id" : 157,
                                "_type" : "VMFile",
                                "src" : 1,
                                "trackNumber" : 0,
                                "attributes" : {
                                  "ident" : "Connexion — Mozilla Firefox (navigation privée) 2023-03-16 11-47-01"
                                },
                                "parameters" : {
                                  "sourceCrop0" : 0.0,
                                  "sourceCrop1" : 0.0,
                                  "sourceCrop2" : 0.0,
                                  "sourceCrop3" : 0.0,
                                  "geometryCrop0" : 0.0,
                                  "geometryCrop1" : 0.0,
                                  "geometryCrop2" : 0.0,
                                  "geometryCrop3" : 0.0
                                },
                                "effects" : [

                                ],
                                "start" : 2822400000,
                                "duration" : 1928640000,
                                "mediaStart" : 145188960000,
                                "mediaDuration" : 1928640000,
                                "scalar" : 1,
                                "animationTracks" : {

                                }
                              },
                          "audio" : 
                              {
                                "id" : 158,
                                "_type" : "AMFile",
                                "src" : 1,
                                "trackNumber" : 1,
                                "attributes" : {
                                  "ident" : "",
                                  "gain" : 1.0,
                                  "mixToMono" : false,
                                  "loudnessNormalization" : true,
                                  "sourceFileOffset" : 0
                                },
                                  "channelNumber" : "0,1",
                                "effects" : [

                                ],
                                "start" : 2822400000,
                                "duration" : 1928640000,
                                "mediaStart" : 145188960000,
                                "mediaDuration" : 1928640000,
                                "scalar" : 1,
                                "animationTracks" : {

                                }
                              }
,
                          "start" : 2822400000,
                          "duration" : 1928640000,
                          "mediaStart" : 0,
                          "mediaDuration" : 228684960000,
                          "scalar" : 1,
                          "metadata" : {
                            "clipSpeedAttribute" : false,
                            "default-anchor0" : 0.0,
                            "default-anchor1" : 0.0,
                            "default-anchor2" : 0.0,
                            "default-geometryCrop1" : 0.0,
                            "default-rotation0" : 0.0,
                            "default-rotation1" : 0.0,
                            "default-rotation2" : 0.0,
                            "default-scale0" : 0.75,
                            "default-scale1" : 0.75,
                            "default-scale2" : 1.0,
                            "default-shear0" : 0.0,
                            "default-shear1" : 0.0,
                            "default-shear2" : 0.0,
                            "default-translation0" : 0.0,
                            "default-translation1" : 0.0,
                            "default-translation2" : 0.0
                          }
                        },
                        {
                          "id" : 159,
                          "_type" : "IMFile",
                          "src" : 1,
                          "trackNumber" : 0,
                          "trimStartSum" : 0,
                          "attributes" : {
                            "ident" : "Connexion — Mozilla Firefox (navigation privée) 2023-03-16 11-47-01"
                          },
                          "parameters" : {
                            "sourceCrop0" : 0.0,
                            "sourceCrop1" : 0.0,
                            "sourceCrop2" : 0.0,
                            "sourceCrop3" : 0.0,
                            "geometryCrop0" : 0.0,
                            "geometryCrop1" : 0.0,
                            "geometryCrop2" : 0.0,
                            "geometryCrop3" : 0.0
                          },
                          "effects" : [

                          ],
                          "start" : 4751040000,
                          "duration" : 705600000,
                          "mediaStart" : 147117600000,
                          "mediaDuration" : 1,
                          "scalar" : 1,
                          "animationTracks" : {

                          }
                        },
                        {
                          "id" : 160,
                          "_type" : "UnifiedMedia",
                          "video" : 
                              {
                                "id" : 161,
                                "_type" : "VMFile",
                                "src" : 1,
                                "trackNumber" : 0,
                                "attributes" : {
                                  "ident" : "Connexion — Mozilla Firefox (navigation privée) 2023-03-16 11-47-01"
                                },
                                "parameters" : {
                                  "sourceCrop0" : 0.0,
                                  "sourceCrop1" : 0.0,
                                  "sourceCrop2" : 0.0,
                                  "sourceCrop3" : 0.0,
                                  "geometryCrop0" : 0.0,
                                  "geometryCrop1" : 0.0,
                                  "geometryCrop2" : 0.0,
                                  "geometryCrop3" : 0.0
                                },
                                "effects" : [

                                ],
                                "start" : 5456640000,
                                "duration" : 81567360000,
                                "mediaStart" : 147117600000,
                                "mediaDuration" : 81567360000,
                                "scalar" : 1,
                                "animationTracks" : {

                                }
                              },
                          "audio" : 
                              {
                                "id" : 162,
                                "_type" : "AMFile",
                                "src" : 1,
                                "trackNumber" : 1,
                                "attributes" : {
                                  "ident" : "",
                                  "gain" : 1.0,
                                  "mixToMono" : false,
                                  "loudnessNormalization" : true,
                                  "sourceFileOffset" : 0
                                },
                                  "channelNumber" : "0,1",
                                "effects" : [

                                ],
                                "start" : 5456640000,
                                "duration" : 81567360000,
                                "mediaStart" : 147117600000,
                                "mediaDuration" : 81567360000,
                                "scalar" : 1,
                                "animationTracks" : {

                                }
                              }
,
                          "start" : 5456640000,
                          "duration" : 81567360000,
                          "mediaStart" : 0,
                          "mediaDuration" : 228684960000,
                          "scalar" : 1,
                          "metadata" : {
                            "clipSpeedAttribute" : false,
                            "default-anchor0" : 0.0,
                            "default-anchor1" : 0.0,
                            "default-anchor2" : 0.0,
                            "default-geometryCrop1" : 0.0,
                            "default-rotation0" : 0.0,
                            "default-rotation1" : 0.0,
                            "default-rotation2" : 0.0,
                            "default-scale0" : 0.75,
                            "default-scale1" : 0.75,
                            "default-scale2" : 1.0,
                            "default-shear0" : 0.0,
                            "default-shear1" : 0.0,
                            "default-shear2" : 0.0,
                            "default-translation0" : 0.0,
                            "default-translation1" : 0.0,
                            "default-translation2" : 0.0
                          }
                        }
                    ],
                    "effects" : [

                    ],
                    "start" : 73382400000,
                    "duration" : 9219840000,
                    "mediaStart" : 0,
                    "mediaDuration" : 9219840000,
                    "scalar" : 1,
                    "metadata" : {
                      "clipSpeedAttribute" : false
                    },
                    "animationTracks" : {

                    }
                  },
                  {
                    "id" : 163,
                    "_type" : "StitchedMedia",
                    "minMediaStart" : -2.54016e+12,
                    "attributes" : {
                      "ident" : "Connexion — Mozilla Firefox (navigation privée) 2023-03-16 11-47-01",
                      "gain" : 1.0,
                      "mixToMono" : false,
                      "loudnessNormalization" : true,
                      "sourceFileOffset" : 0
                    },
                    "parameters" : {
                      "translation0" : 4.47641923528863e-13,
                      "translation1" : 54.1571319603357,
                      "scale0" : 0.789473684210527,
                      "scale1" : 0.789473684210526,
                      "sourceCrop0" : 0.0,
                      "sourceCrop1" : 0.0,
                      "sourceCrop2" : 0.0,
                      "sourceCrop3" : 0.0,
                      "geometryCrop0" : 0.0,
                      "geometryCrop1" : 137.198067632851,
                      "geometryCrop2" : 0.0,
                      "geometryCrop3" : 0.0,
                      "volume" : 1.0
                    },
                    "medias" : [
                        {
                          "id" : 164,
                          "_type" : "IMFile",
                          "src" : 1,
                          "trackNumber" : 0,
                          "trimStartSum" : -2540160000000,
                          "attributes" : {
                            "ident" : "Connexion — Mozilla Firefox (navigation privée) 2023-03-16 11-47-01"
                          },
                          "parameters" : {
                            "sourceCrop0" : 0.0,
                            "sourceCrop1" : 0.0,
                            "sourceCrop2" : 0.0,
                            "sourceCrop3" : 0.0,
                            "geometryCrop0" : 0.0,
                            "geometryCrop1" : 0.0,
                            "geometryCrop2" : 0.0,
                            "geometryCrop3" : 0.0
                          },
                          "effects" : [

                          ],
                          "start" : -2540160000000,
                          "duration" : 2542982400000,
                          "mediaStart" : 145188960000,
                          "mediaDuration" : 1,
                          "scalar" : 1,
                          "metadata" : {
                            "clipSpeedAttribute" : false
                          },
                          "animationTracks" : {

                          }
                        },
                        {
                          "id" : 165,
                          "_type" : "UnifiedMedia",
                          "video" : 
                              {
                                "id" : 166,
                                "_type" : "VMFile",
                                "src" : 1,
                                "trackNumber" : 0,
                                "attributes" : {
                                  "ident" : "Connexion — Mozilla Firefox (navigation privée) 2023-03-16 11-47-01"
                                },
                                "parameters" : {
                                  "sourceCrop0" : 0.0,
                                  "sourceCrop1" : 0.0,
                                  "sourceCrop2" : 0.0,
                                  "sourceCrop3" : 0.0,
                                  "geometryCrop0" : 0.0,
                                  "geometryCrop1" : 0.0,
                                  "geometryCrop2" : 0.0,
                                  "geometryCrop3" : 0.0
                                },
                                "effects" : [

                                ],
                                "start" : 2822400000,
                                "duration" : 1928640000,
                                "mediaStart" : 145188960000,
                                "mediaDuration" : 1928640000,
                                "scalar" : 1,
                                "animationTracks" : {

                                }
                              },
                          "audio" : 
                              {
                                "id" : 167,
                                "_type" : "AMFile",
                                "src" : 1,
                                "trackNumber" : 1,
                                "attributes" : {
                                  "ident" : "",
                                  "gain" : 1.0,
                                  "mixToMono" : false,
                                  "loudnessNormalization" : true,
                                  "sourceFileOffset" : 0
                                },
                                  "channelNumber" : "0,1",
                                "effects" : [

                                ],
                                "start" : 2822400000,
                                "duration" : 1928640000,
                                "mediaStart" : 145188960000,
                                "mediaDuration" : 1928640000,
                                "scalar" : 1,
                                "animationTracks" : {

                                }
                              }
,
                          "start" : 2822400000,
                          "duration" : 1928640000,
                          "mediaStart" : 0,
                          "mediaDuration" : 228684960000,
                          "scalar" : 1,
                          "metadata" : {
                            "clipSpeedAttribute" : false,
                            "default-anchor0" : 0.0,
                            "default-anchor1" : 0.0,
                            "default-anchor2" : 0.0,
                            "default-geometryCrop1" : 0.0,
                            "default-rotation0" : 0.0,
                            "default-rotation1" : 0.0,
                            "default-rotation2" : 0.0,
                            "default-scale0" : 0.75,
                            "default-scale1" : 0.75,
                            "default-scale2" : 1.0,
                            "default-shear0" : 0.0,
                            "default-shear1" : 0.0,
                            "default-shear2" : 0.0,
                            "default-translation0" : 0.0,
                            "default-translation1" : 0.0,
                            "default-translation2" : 0.0
                          }
                        },
                        {
                          "id" : 168,
                          "_type" : "IMFile",
                          "src" : 1,
                          "trackNumber" : 0,
                          "trimStartSum" : 0,
                          "attributes" : {
                            "ident" : "Connexion — Mozilla Firefox (navigation privée) 2023-03-16 11-47-01"
                          },
                          "parameters" : {
                            "sourceCrop0" : 0.0,
                            "sourceCrop1" : 0.0,
                            "sourceCrop2" : 0.0,
                            "sourceCrop3" : 0.0,
                            "geometryCrop0" : 0.0,
                            "geometryCrop1" : 0.0,
                            "geometryCrop2" : 0.0,
                            "geometryCrop3" : 0.0
                          },
                          "effects" : [

                          ],
                          "start" : 4751040000,
                          "duration" : 705600000,
                          "mediaStart" : 147117600000,
                          "mediaDuration" : 1,
                          "scalar" : 1,
                          "animationTracks" : {

                          }
                        },
                        {
                          "id" : 169,
                          "_type" : "UnifiedMedia",
                          "video" : 
                              {
                                "id" : 170,
                                "_type" : "VMFile",
                                "src" : 1,
                                "trackNumber" : 0,
                                "attributes" : {
                                  "ident" : "Connexion — Mozilla Firefox (navigation privée) 2023-03-16 11-47-01"
                                },
                                "parameters" : {
                                  "sourceCrop0" : 0.0,
                                  "sourceCrop1" : 0.0,
                                  "sourceCrop2" : 0.0,
                                  "sourceCrop3" : 0.0,
                                  "geometryCrop0" : 0.0,
                                  "geometryCrop1" : 0.0,
                                  "geometryCrop2" : 0.0,
                                  "geometryCrop3" : 0.0
                                },
                                "effects" : [

                                ],
                                "start" : 5456640000,
                                "duration" : 81567360000,
                                "mediaStart" : 147117600000,
                                "mediaDuration" : 81567360000,
                                "scalar" : 1,
                                "animationTracks" : {

                                }
                              },
                          "audio" : 
                              {
                                "id" : 171,
                                "_type" : "AMFile",
                                "src" : 1,
                                "trackNumber" : 1,
                                "attributes" : {
                                  "ident" : "",
                                  "gain" : 1.0,
                                  "mixToMono" : false,
                                  "loudnessNormalization" : true,
                                  "sourceFileOffset" : 0
                                },
                                  "channelNumber" : "0,1",
                                "effects" : [

                                ],
                                "start" : 5456640000,
                                "duration" : 81567360000,
                                "mediaStart" : 147117600000,
                                "mediaDuration" : 81567360000,
                                "scalar" : 1,
                                "animationTracks" : {

                                }
                              }
,
                          "start" : 5456640000,
                          "duration" : 81567360000,
                          "mediaStart" : 0,
                          "mediaDuration" : 228684960000,
                          "scalar" : 1,
                          "metadata" : {
                            "clipSpeedAttribute" : false,
                            "default-anchor0" : 0.0,
                            "default-anchor1" : 0.0,
                            "default-anchor2" : 0.0,
                            "default-geometryCrop1" : 0.0,
                            "default-rotation0" : 0.0,
                            "default-rotation1" : 0.0,
                            "default-rotation2" : 0.0,
                            "default-scale0" : 0.75,
                            "default-scale1" : 0.75,
                            "default-scale2" : 1.0,
                            "default-shear0" : 0.0,
                            "default-shear1" : 0.0,
                            "default-shear2" : 0.0,
                            "default-translation0" : 0.0,
                            "default-translation1" : 0.0,
                            "default-translation2" : 0.0
                          }
                        }
                    ],
                    "effects" : [

                    ],
                    "start" : 82602240000,
                    "duration" : 20885760000,
                    "mediaStart" : 9549120000,
                    "mediaDuration" : 20885760000,
                    "scalar" : 1,
                    "metadata" : {
                      "clipSpeedAttribute" : false
                    },
                    "animationTracks" : {

                    }
                  },
                  {
                    "id" : 172,
                    "_type" : "StitchedMedia",
                    "minMediaStart" : -2.54016e+12,
                    "attributes" : {
                      "ident" : "Connexion — Mozilla Firefox (navigation privée) 2023-03-16 11-47-01",
                      "gain" : 1.0,
                      "mixToMono" : false,
                      "loudnessNormalization" : true,
                      "sourceFileOffset" : 0
                    },
                    "parameters" : {
                      "translation0" : {
                        "type" : "double",
                        "defaultValue" : 4.47641923528863e-13,
                        "interp" : "eioe"
                      },
                      "translation1" : {
                        "type" : "double",
                        "defaultValue" : 54.1571319603357,
                        "interp" : "eioe"
                      },
                      "scale0" : {
                        "type" : "double",
                        "defaultValue" : 0.789473684210527,
                        "interp" : "eioe"
                      },
                      "scale1" : {
                        "type" : "double",
                        "defaultValue" : 0.789473684210526,
                        "interp" : "eioe"
                      },
                      "sourceCrop0" : {
                        "type" : "double",
                        "defaultValue" : 0.0,
                        "interp" : "eioe"
                      },
                      "sourceCrop1" : {
                        "type" : "double",
                        "defaultValue" : 0.0,
                        "interp" : "eioe"
                      },
                      "sourceCrop2" : {
                        "type" : "double",
                        "defaultValue" : 0.0,
                        "interp" : "eioe"
                      },
                      "sourceCrop3" : {
                        "type" : "double",
                        "defaultValue" : 0.0,
                        "interp" : "eioe"
                      },
                      "geometryCrop0" : {
                        "type" : "double",
                        "defaultValue" : 0.0,
                        "interp" : "eioe"
                      },
                      "geometryCrop1" : {
                        "type" : "double",
                        "defaultValue" : 137.198067632851,
                        "interp" : "eioe"
                      },
                      "geometryCrop2" : {
                        "type" : "double",
                        "defaultValue" : 0.0,
                        "interp" : "eioe"
                      },
                      "geometryCrop3" : {
                        "type" : "double",
                        "defaultValue" : 0.0,
                        "interp" : "eioe"
                      },
                      "volume" : 1.0
                    },
                    "medias" : [
                        {
                          "id" : 173,
                          "_type" : "IMFile",
                          "src" : 1,
                          "trackNumber" : 0,
                          "trimStartSum" : -2540160000000,
                          "attributes" : {
                            "ident" : "Connexion — Mozilla Firefox (navigation privée) 2023-03-16 11-47-01"
                          },
                          "parameters" : {
                            "sourceCrop0" : {
                              "type" : "double",
                              "defaultValue" : 0.0,
                              "interp" : "eioe"
                            },
                            "sourceCrop1" : {
                              "type" : "double",
                              "defaultValue" : 0.0,
                              "interp" : "eioe"
                            },
                            "sourceCrop2" : {
                              "type" : "double",
                              "defaultValue" : 0.0,
                              "interp" : "eioe"
                            },
                            "sourceCrop3" : {
                              "type" : "double",
                              "defaultValue" : 0.0,
                              "interp" : "eioe"
                            },
                            "geometryCrop0" : {
                              "type" : "double",
                              "defaultValue" : 0.0,
                              "interp" : "eioe"
                            },
                            "geometryCrop1" : {
                              "type" : "double",
                              "defaultValue" : 0.0,
                              "interp" : "eioe"
                            },
                            "geometryCrop2" : {
                              "type" : "double",
                              "defaultValue" : 0.0,
                              "interp" : "eioe"
                            },
                            "geometryCrop3" : {
                              "type" : "double",
                              "defaultValue" : 0.0,
                              "interp" : "eioe"
                            }
                          },
                          "effects" : [

                          ],
                          "start" : -2540160000000,
                          "duration" : 2542982400000,
                          "mediaStart" : 145188960000,
                          "mediaDuration" : 1,
                          "scalar" : 1,
                          "metadata" : {
                            "clipSpeedAttribute" : false
                          },
                          "animationTracks" : {

                          }
                        },
                        {
                          "id" : 174,
                          "_type" : "UnifiedMedia",
                          "video" : 
                              {
                                "id" : 175,
                                "_type" : "VMFile",
                                "src" : 1,
                                "trackNumber" : 0,
                                "attributes" : {
                                  "ident" : "Connexion — Mozilla Firefox (navigation privée) 2023-03-16 11-47-01"
                                },
                                "parameters" : {
                                  "sourceCrop0" : {
                                    "type" : "double",
                                    "defaultValue" : 0.0,
                                    "interp" : "eioe"
                                  },
                                  "sourceCrop1" : {
                                    "type" : "double",
                                    "defaultValue" : 0.0,
                                    "interp" : "eioe"
                                  },
                                  "sourceCrop2" : {
                                    "type" : "double",
                                    "defaultValue" : 0.0,
                                    "interp" : "eioe"
                                  },
                                  "sourceCrop3" : {
                                    "type" : "double",
                                    "defaultValue" : 0.0,
                                    "interp" : "eioe"
                                  },
                                  "geometryCrop0" : {
                                    "type" : "double",
                                    "defaultValue" : 0.0,
                                    "interp" : "eioe"
                                  },
                                  "geometryCrop1" : {
                                    "type" : "double",
                                    "defaultValue" : 0.0,
                                    "interp" : "eioe"
                                  },
                                  "geometryCrop2" : {
                                    "type" : "double",
                                    "defaultValue" : 0.0,
                                    "interp" : "eioe"
                                  },
                                  "geometryCrop3" : {
                                    "type" : "double",
                                    "defaultValue" : 0.0,
                                    "interp" : "eioe"
                                  }
                                },
                                "effects" : [

                                ],
                                "start" : 2822400000,
                                "duration" : 1928640000,
                                "mediaStart" : 145188960000,
                                "mediaDuration" : 1928640000,
                                "scalar" : 1,
                                "animationTracks" : {

                                }
                              },
                          "audio" : 
                              {
                                "id" : 176,
                                "_type" : "AMFile",
                                "src" : 1,
                                "trackNumber" : 1,
                                "attributes" : {
                                  "ident" : "",
                                  "gain" : 1.0,
                                  "mixToMono" : false,
                                  "loudnessNormalization" : true,
                                  "sourceFileOffset" : 0
                                },
                                  "channelNumber" : "0,1",
                                "effects" : [

                                ],
                                "start" : 2822400000,
                                "duration" : 1928640000,
                                "mediaStart" : 145188960000,
                                "mediaDuration" : 1928640000,
                                "scalar" : 1,
                                "animationTracks" : {

                                }
                              }
,
                          "start" : 2822400000,
                          "duration" : 1928640000,
                          "mediaStart" : 0,
                          "mediaDuration" : 228684960000,
                          "scalar" : 1,
                          "metadata" : {
                            "clipSpeedAttribute" : false,
                            "default-anchor0" : 0.0,
                            "default-anchor1" : 0.0,
                            "default-anchor2" : 0.0,
                            "default-geometryCrop1" : 0.0,
                            "default-rotation0" : 0.0,
                            "default-rotation1" : 0.0,
                            "default-rotation2" : 0.0,
                            "default-scale0" : 0.75,
                            "default-scale1" : 0.75,
                            "default-scale2" : 1.0,
                            "default-shear0" : 0.0,
                            "default-shear1" : 0.0,
                            "default-shear2" : 0.0,
                            "default-translation0" : 0.0,
                            "default-translation1" : 0.0,
                            "default-translation2" : 0.0
                          }
                        },
                        {
                          "id" : 177,
                          "_type" : "IMFile",
                          "src" : 1,
                          "trackNumber" : 0,
                          "trimStartSum" : 0,
                          "attributes" : {
                            "ident" : "Connexion — Mozilla Firefox (navigation privée) 2023-03-16 11-47-01"
                          },
                          "parameters" : {
                            "sourceCrop0" : {
                              "type" : "double",
                              "defaultValue" : 0.0,
                              "interp" : "eioe"
                            },
                            "sourceCrop1" : {
                              "type" : "double",
                              "defaultValue" : 0.0,
                              "interp" : "eioe"
                            },
                            "sourceCrop2" : {
                              "type" : "double",
                              "defaultValue" : 0.0,
                              "interp" : "eioe"
                            },
                            "sourceCrop3" : {
                              "type" : "double",
                              "defaultValue" : 0.0,
                              "interp" : "eioe"
                            },
                            "geometryCrop0" : {
                              "type" : "double",
                              "defaultValue" : 0.0,
                              "interp" : "eioe"
                            },
                            "geometryCrop1" : {
                              "type" : "double",
                              "defaultValue" : 0.0,
                              "interp" : "eioe"
                            },
                            "geometryCrop2" : {
                              "type" : "double",
                              "defaultValue" : 0.0,
                              "interp" : "eioe"
                            },
                            "geometryCrop3" : {
                              "type" : "double",
                              "defaultValue" : 0.0,
                              "interp" : "eioe"
                            }
                          },
                          "effects" : [

                          ],
                          "start" : 4751040000,
                          "duration" : 705600000,
                          "mediaStart" : 147117600000,
                          "mediaDuration" : 1,
                          "scalar" : 1,
                          "animationTracks" : {

                          }
                        },
                        {
                          "id" : 178,
                          "_type" : "UnifiedMedia",
                          "video" : 
                              {
                                "id" : 179,
                                "_type" : "VMFile",
                                "src" : 1,
                                "trackNumber" : 0,
                                "attributes" : {
                                  "ident" : "Connexion — Mozilla Firefox (navigation privée) 2023-03-16 11-47-01"
                                },
                                "parameters" : {
                                  "sourceCrop0" : {
                                    "type" : "double",
                                    "defaultValue" : 0.0,
                                    "interp" : "eioe"
                                  },
                                  "sourceCrop1" : {
                                    "type" : "double",
                                    "defaultValue" : 0.0,
                                    "interp" : "eioe"
                                  },
                                  "sourceCrop2" : {
                                    "type" : "double",
                                    "defaultValue" : 0.0,
                                    "interp" : "eioe"
                                  },
                                  "sourceCrop3" : {
                                    "type" : "double",
                                    "defaultValue" : 0.0,
                                    "interp" : "eioe"
                                  },
                                  "geometryCrop0" : {
                                    "type" : "double",
                                    "defaultValue" : 0.0,
                                    "interp" : "eioe"
                                  },
                                  "geometryCrop1" : {
                                    "type" : "double",
                                    "defaultValue" : 0.0,
                                    "interp" : "eioe"
                                  },
                                  "geometryCrop2" : {
                                    "type" : "double",
                                    "defaultValue" : 0.0,
                                    "interp" : "eioe"
                                  },
                                  "geometryCrop3" : {
                                    "type" : "double",
                                    "defaultValue" : 0.0,
                                    "interp" : "eioe"
                                  }
                                },
                                "effects" : [

                                ],
                                "start" : 5456640000,
                                "duration" : 81567360000,
                                "mediaStart" : 147117600000,
                                "mediaDuration" : 81567360000,
                                "scalar" : 1,
                                "animationTracks" : {

                                }
                              },
                          "audio" : 
                              {
                                "id" : 180,
                                "_type" : "AMFile",
                                "src" : 1,
                                "trackNumber" : 1,
                                "attributes" : {
                                  "ident" : "",
                                  "gain" : 1.0,
                                  "mixToMono" : false,
                                  "loudnessNormalization" : true,
                                  "sourceFileOffset" : 0
                                },
                                  "channelNumber" : "0,1",
                                "effects" : [

                                ],
                                "start" : 5456640000,
                                "duration" : 81567360000,
                                "mediaStart" : 147117600000,
                                "mediaDuration" : 81567360000,
                                "scalar" : 1,
                                "animationTracks" : {

                                }
                              }
,
                          "start" : 5456640000,
                          "duration" : 81567360000,
                          "mediaStart" : 0,
                          "mediaDuration" : 228684960000,
                          "scalar" : 1,
                          "metadata" : {
                            "clipSpeedAttribute" : false,
                            "default-anchor0" : 0.0,
                            "default-anchor1" : 0.0,
                            "default-anchor2" : 0.0,
                            "default-geometryCrop1" : 0.0,
                            "default-rotation0" : 0.0,
                            "default-rotation1" : 0.0,
                            "default-rotation2" : 0.0,
                            "default-scale0" : 0.75,
                            "default-scale1" : 0.75,
                            "default-scale2" : 1.0,
                            "default-shear0" : 0.0,
                            "default-shear1" : 0.0,
                            "default-shear2" : 0.0,
                            "default-translation0" : 0.0,
                            "default-translation1" : 0.0,
                            "default-translation2" : 0.0
                          }
                        }
                    ],
                    "effects" : [

                    ],
                    "start" : 103488000000,
                    "duration" : 12395040000,
                    "mediaStart" : 33139680000,
                    "mediaDuration" : 12395040000,
                    "scalar" : 1,
                    "metadata" : {
                      "clipSpeedAttribute" : false
                    },
                    "animationTracks" : {

                    }
                  },
                  {
                    "id" : 181,
                    "_type" : "StitchedMedia",
                    "minMediaStart" : -2.54016e+12,
                    "attributes" : {
                      "ident" : "Connexion — Mozilla Firefox (navigation privée) 2023-03-16 11-47-01",
                      "gain" : 1.0,
                      "mixToMono" : false,
                      "loudnessNormalization" : true,
                      "sourceFileOffset" : 0
                    },
                    "parameters" : {
                      "translation0" : 4.47641923528863e-13,
                      "translation1" : 54.1571319603357,
                      "scale0" : 0.789473684210527,
                      "scale1" : 0.789473684210526,
                      "sourceCrop0" : 0.0,
                      "sourceCrop1" : 0.0,
                      "sourceCrop2" : 0.0,
                      "sourceCrop3" : 0.0,
                      "geometryCrop0" : 0.0,
                      "geometryCrop1" : 137.198067632851,
                      "geometryCrop2" : 0.0,
                      "geometryCrop3" : 0.0,
                      "volume" : 1.0
                    },
                    "medias" : [
                        {
                          "id" : 182,
                          "_type" : "IMFile",
                          "src" : 1,
                          "trackNumber" : 0,
                          "trimStartSum" : -2540160000000,
                          "attributes" : {
                            "ident" : "Connexion — Mozilla Firefox (navigation privée) 2023-03-16 11-47-01"
                          },
                          "parameters" : {
                            "sourceCrop0" : {
                              "type" : "double",
                              "defaultValue" : 0.0,
                              "interp" : "eioe"
                            },
                            "sourceCrop1" : {
                              "type" : "double",
                              "defaultValue" : 0.0,
                              "interp" : "eioe"
                            },
                            "sourceCrop2" : {
                              "type" : "double",
                              "defaultValue" : 0.0,
                              "interp" : "eioe"
                            },
                            "sourceCrop3" : {
                              "type" : "double",
                              "defaultValue" : 0.0,
                              "interp" : "eioe"
                            },
                            "geometryCrop0" : {
                              "type" : "double",
                              "defaultValue" : 0.0,
                              "interp" : "eioe"
                            },
                            "geometryCrop1" : {
                              "type" : "double",
                              "defaultValue" : 0.0,
                              "interp" : "eioe"
                            },
                            "geometryCrop2" : {
                              "type" : "double",
                              "defaultValue" : 0.0,
                              "interp" : "eioe"
                            },
                            "geometryCrop3" : {
                              "type" : "double",
                              "defaultValue" : 0.0,
                              "interp" : "eioe"
                            }
                          },
                          "effects" : [

                          ],
                          "start" : -2540160000000,
                          "duration" : 2542982400000,
                          "mediaStart" : 145188960000,
                          "mediaDuration" : 1,
                          "scalar" : 1,
                          "metadata" : {
                            "clipSpeedAttribute" : false
                          },
                          "animationTracks" : {

                          }
                        },
                        {
                          "id" : 183,
                          "_type" : "UnifiedMedia",
                          "video" : 
                              {
                                "id" : 184,
                                "_type" : "VMFile",
                                "src" : 1,
                                "trackNumber" : 0,
                                "attributes" : {
                                  "ident" : "Connexion — Mozilla Firefox (navigation privée) 2023-03-16 11-47-01"
                                },
                                "parameters" : {
                                  "sourceCrop0" : {
                                    "type" : "double",
                                    "defaultValue" : 0.0,
                                    "interp" : "eioe"
                                  },
                                  "sourceCrop1" : {
                                    "type" : "double",
                                    "defaultValue" : 0.0,
                                    "interp" : "eioe"
                                  },
                                  "sourceCrop2" : {
                                    "type" : "double",
                                    "defaultValue" : 0.0,
                                    "interp" : "eioe"
                                  },
                                  "sourceCrop3" : {
                                    "type" : "double",
                                    "defaultValue" : 0.0,
                                    "interp" : "eioe"
                                  },
                                  "geometryCrop0" : {
                                    "type" : "double",
                                    "defaultValue" : 0.0,
                                    "interp" : "eioe"
                                  },
                                  "geometryCrop1" : {
                                    "type" : "double",
                                    "defaultValue" : 0.0,
                                    "interp" : "eioe"
                                  },
                                  "geometryCrop2" : {
                                    "type" : "double",
                                    "defaultValue" : 0.0,
                                    "interp" : "eioe"
                                  },
                                  "geometryCrop3" : {
                                    "type" : "double",
                                    "defaultValue" : 0.0,
                                    "interp" : "eioe"
                                  }
                                },
                                "effects" : [

                                ],
                                "start" : 2822400000,
                                "duration" : 1928640000,
                                "mediaStart" : 145188960000,
                                "mediaDuration" : 1928640000,
                                "scalar" : 1,
                                "animationTracks" : {

                                }
                              },
                          "audio" : 
                              {
                                "id" : 185,
                                "_type" : "AMFile",
                                "src" : 1,
                                "trackNumber" : 1,
                                "attributes" : {
                                  "ident" : "",
                                  "gain" : 1.0,
                                  "mixToMono" : false,
                                  "loudnessNormalization" : true,
                                  "sourceFileOffset" : 0
                                },
                                  "channelNumber" : "0,1",
                                "effects" : [

                                ],
                                "start" : 2822400000,
                                "duration" : 1928640000,
                                "mediaStart" : 145188960000,
                                "mediaDuration" : 1928640000,
                                "scalar" : 1,
                                "animationTracks" : {

                                }
                              }
,
                          "start" : 2822400000,
                          "duration" : 1928640000,
                          "mediaStart" : 0,
                          "mediaDuration" : 228684960000,
                          "scalar" : 1,
                          "metadata" : {
                            "clipSpeedAttribute" : false,
                            "default-anchor0" : 0.0,
                            "default-anchor1" : 0.0,
                            "default-anchor2" : 0.0,
                            "default-geometryCrop1" : 0.0,
                            "default-rotation0" : 0.0,
                            "default-rotation1" : 0.0,
                            "default-rotation2" : 0.0,
                            "default-scale0" : 0.75,
                            "default-scale1" : 0.75,
                            "default-scale2" : 1.0,
                            "default-shear0" : 0.0,
                            "default-shear1" : 0.0,
                            "default-shear2" : 0.0,
                            "default-translation0" : 0.0,
                            "default-translation1" : 0.0,
                            "default-translation2" : 0.0
                          }
                        },
                        {
                          "id" : 186,
                          "_type" : "IMFile",
                          "src" : 1,
                          "trackNumber" : 0,
                          "trimStartSum" : 0,
                          "attributes" : {
                            "ident" : "Connexion — Mozilla Firefox (navigation privée) 2023-03-16 11-47-01"
                          },
                          "parameters" : {
                            "sourceCrop0" : {
                              "type" : "double",
                              "defaultValue" : 0.0,
                              "interp" : "eioe"
                            },
                            "sourceCrop1" : {
                              "type" : "double",
                              "defaultValue" : 0.0,
                              "interp" : "eioe"
                            },
                            "sourceCrop2" : {
                              "type" : "double",
                              "defaultValue" : 0.0,
                              "interp" : "eioe"
                            },
                            "sourceCrop3" : {
                              "type" : "double",
                              "defaultValue" : 0.0,
                              "interp" : "eioe"
                            },
                            "geometryCrop0" : {
                              "type" : "double",
                              "defaultValue" : 0.0,
                              "interp" : "eioe"
                            },
                            "geometryCrop1" : {
                              "type" : "double",
                              "defaultValue" : 0.0,
                              "interp" : "eioe"
                            },
                            "geometryCrop2" : {
                              "type" : "double",
                              "defaultValue" : 0.0,
                              "interp" : "eioe"
                            },
                            "geometryCrop3" : {
                              "type" : "double",
                              "defaultValue" : 0.0,
                              "interp" : "eioe"
                            }
                          },
                          "effects" : [

                          ],
                          "start" : 4751040000,
                          "duration" : 705600000,
                          "mediaStart" : 147117600000,
                          "mediaDuration" : 1,
                          "scalar" : 1,
                          "animationTracks" : {

                          }
                        },
                        {
                          "id" : 187,
                          "_type" : "UnifiedMedia",
                          "video" : 
                              {
                                "id" : 188,
                                "_type" : "VMFile",
                                "src" : 1,
                                "trackNumber" : 0,
                                "attributes" : {
                                  "ident" : "Connexion — Mozilla Firefox (navigation privée) 2023-03-16 11-47-01"
                                },
                                "parameters" : {
                                  "sourceCrop0" : {
                                    "type" : "double",
                                    "defaultValue" : 0.0,
                                    "interp" : "eioe"
                                  },
                                  "sourceCrop1" : {
                                    "type" : "double",
                                    "defaultValue" : 0.0,
                                    "interp" : "eioe"
                                  },
                                  "sourceCrop2" : {
                                    "type" : "double",
                                    "defaultValue" : 0.0,
                                    "interp" : "eioe"
                                  },
                                  "sourceCrop3" : {
                                    "type" : "double",
                                    "defaultValue" : 0.0,
                                    "interp" : "eioe"
                                  },
                                  "geometryCrop0" : {
                                    "type" : "double",
                                    "defaultValue" : 0.0,
                                    "interp" : "eioe"
                                  },
                                  "geometryCrop1" : {
                                    "type" : "double",
                                    "defaultValue" : 0.0,
                                    "interp" : "eioe"
                                  },
                                  "geometryCrop2" : {
                                    "type" : "double",
                                    "defaultValue" : 0.0,
                                    "interp" : "eioe"
                                  },
                                  "geometryCrop3" : {
                                    "type" : "double",
                                    "defaultValue" : 0.0,
                                    "interp" : "eioe"
                                  }
                                },
                                "effects" : [

                                ],
                                "start" : 5456640000,
                                "duration" : 56471520000,
                                "mediaStart" : 147117600000,
                                "mediaDuration" : 56471520000,
                                "scalar" : 1,
                                "animationTracks" : {

                                }
                              },
                          "audio" : 
                              {
                                "id" : 189,
                                "_type" : "AMFile",
                                "src" : 1,
                                "trackNumber" : 1,
                                "attributes" : {
                                  "ident" : "",
                                  "gain" : 1.0,
                                  "mixToMono" : false,
                                  "loudnessNormalization" : true,
                                  "sourceFileOffset" : 0
                                },
                                  "channelNumber" : "0,1",
                                "effects" : [

                                ],
                                "start" : 5456640000,
                                "duration" : 56471520000,
                                "mediaStart" : 147117600000,
                                "mediaDuration" : 56471520000,
                                "scalar" : 1,
                                "animationTracks" : {

                                }
                              }
,
                          "start" : 5456640000,
                          "duration" : 56471520000,
                          "mediaStart" : 0,
                          "mediaDuration" : 228684960000,
                          "scalar" : 1,
                          "metadata" : {
                            "clipSpeedAttribute" : false,
                            "default-anchor0" : 0.0,
                            "default-anchor1" : 0.0,
                            "default-anchor2" : 0.0,
                            "default-geometryCrop1" : 0.0,
                            "default-rotation0" : 0.0,
                            "default-rotation1" : 0.0,
                            "default-rotation2" : 0.0,
                            "default-scale0" : 0.75,
                            "default-scale1" : 0.75,
                            "default-scale2" : 1.0,
                            "default-shear0" : 0.0,
                            "default-shear1" : 0.0,
                            "default-shear2" : 0.0,
                            "default-translation0" : 0.0,
                            "default-translation1" : 0.0,
                            "default-translation2" : 0.0
                          }
                        },
                        {
                          "id" : 190,
                          "_type" : "IMFile",
                          "src" : 1,
                          "trackNumber" : 0,
                          "trimStartSum" : 0,
                          "attributes" : {
                            "ident" : "Connexion — Mozilla Firefox (navigation privée) 2023-03-16 11-47-01"
                          },
                          "parameters" : {
                            "sourceCrop0" : {
                              "type" : "double",
                              "defaultValue" : 0.0,
                              "interp" : "eioe"
                            },
                            "sourceCrop1" : {
                              "type" : "double",
                              "defaultValue" : 0.0,
                              "interp" : "eioe"
                            },
                            "sourceCrop2" : {
                              "type" : "double",
                              "defaultValue" : 0.0,
                              "interp" : "eioe"
                            },
                            "sourceCrop3" : {
                              "type" : "double",
                              "defaultValue" : 0.0,
                              "interp" : "eioe"
                            },
                            "geometryCrop0" : {
                              "type" : "double",
                              "defaultValue" : 0.0,
                              "interp" : "eioe"
                            },
                            "geometryCrop1" : {
                              "type" : "double",
                              "defaultValue" : 0.0,
                              "interp" : "eioe"
                            },
                            "geometryCrop2" : {
                              "type" : "double",
                              "defaultValue" : 0.0,
                              "interp" : "eioe"
                            },
                            "geometryCrop3" : {
                              "type" : "double",
                              "defaultValue" : 0.0,
                              "interp" : "eioe"
                            }
                          },
                          "effects" : [

                          ],
                          "start" : 61928160000,
                          "duration" : 10584000000,
                          "mediaStart" : 203589120000,
                          "mediaDuration" : 1,
                          "scalar" : 1,
                          "animationTracks" : {

                          }
                        },
                        {
                          "id" : 191,
                          "_type" : "UnifiedMedia",
                          "video" : 
                              {
                                "id" : 192,
                                "_type" : "VMFile",
                                "src" : 1,
                                "trackNumber" : 0,
                                "attributes" : {
                                  "ident" : "Connexion — Mozilla Firefox (navigation privée) 2023-03-16 11-47-01"
                                },
                                "parameters" : {
                                  "sourceCrop0" : {
                                    "type" : "double",
                                    "defaultValue" : 0.0,
                                    "interp" : "eioe"
                                  },
                                  "sourceCrop1" : {
                                    "type" : "double",
                                    "defaultValue" : 0.0,
                                    "interp" : "eioe"
                                  },
                                  "sourceCrop2" : {
                                    "type" : "double",
                                    "defaultValue" : 0.0,
                                    "interp" : "eioe"
                                  },
                                  "sourceCrop3" : {
                                    "type" : "double",
                                    "defaultValue" : 0.0,
                                    "interp" : "eioe"
                                  },
                                  "geometryCrop0" : {
                                    "type" : "double",
                                    "defaultValue" : 0.0,
                                    "interp" : "eioe"
                                  },
                                  "geometryCrop1" : {
                                    "type" : "double",
                                    "defaultValue" : 0.0,
                                    "interp" : "eioe"
                                  },
                                  "geometryCrop2" : {
                                    "type" : "double",
                                    "defaultValue" : 0.0,
                                    "interp" : "eioe"
                                  },
                                  "geometryCrop3" : {
                                    "type" : "double",
                                    "defaultValue" : 0.0,
                                    "interp" : "eioe"
                                  }
                                },
                                "effects" : [

                                ],
                                "start" : 72512160000,
                                "duration" : 25095840000,
                                "mediaStart" : 203589120000,
                                "mediaDuration" : 25095840000,
                                "scalar" : 1,
                                "animationTracks" : {

                                }
                              },
                          "audio" : 
                              {
                                "id" : 193,
                                "_type" : "AMFile",
                                "src" : 1,
                                "trackNumber" : 1,
                                "attributes" : {
                                  "ident" : "",
                                  "gain" : 1.0,
                                  "mixToMono" : false,
                                  "loudnessNormalization" : true,
                                  "sourceFileOffset" : 0
                                },
                                  "channelNumber" : "0,1",
                                "effects" : [

                                ],
                                "start" : 72512160000,
                                "duration" : 25095840000,
                                "mediaStart" : 203589120000,
                                "mediaDuration" : 25095840000,
                                "scalar" : 1,
                                "animationTracks" : {

                                }
                              }
,
                          "start" : 72512160000,
                          "duration" : 25095840000,
                          "mediaStart" : 0,
                          "mediaDuration" : 228684960000,
                          "scalar" : 1,
                          "metadata" : {
                            "clipSpeedAttribute" : false,
                            "default-anchor0" : 0.0,
                            "default-anchor1" : 0.0,
                            "default-anchor2" : 0.0,
                            "default-geometryCrop1" : 0.0,
                            "default-rotation0" : 0.0,
                            "default-rotation1" : 0.0,
                            "default-rotation2" : 0.0,
                            "default-scale0" : 0.75,
                            "default-scale1" : 0.75,
                            "default-scale2" : 1.0,
                            "default-shear0" : 0.0,
                            "default-shear1" : 0.0,
                            "default-shear2" : 0.0,
                            "default-translation0" : 0.0,
                            "default-translation1" : 0.0,
                            "default-translation2" : 0.0
                          }
                        }
                    ],
                    "effects" : [

                    ],
                    "start" : 115883040000,
                    "duration" : 9713760000,
                    "mediaStart" : 59529120000,
                    "mediaDuration" : 9713760000,
                    "scalar" : 1,
                    "metadata" : {
                      "clipSpeedAttribute" : false
                    },
                    "animationTracks" : {

                    }
                  }
                ],
                "transitions" : [
                  {
                    "name" : "FadeThroughBlack",
                    "duration" : 1034880000,
                    "leftMedia" : 172,
                    "rightMedia" : 181,
                    "attributes" : {
                      "Color-blue" : 0.0,
                      "Color-green" : 0.0,
                      "Color-red" : 0.0,
                      "bypass" : false,
                      "reverse" : false,
                      "trivial" : false,
                      "useAudioPreRoll" : true,
                      "useVisualPreRoll" : true
                    }

                  },
                  {
                    "name" : "Fade",
                    "duration" : 705600000,
                    "leftMedia" : 181,
                    "attributes" : {
                      "bypass" : false,
                      "reverse" : false,
                      "trivial" : false,
                      "useAudioPreRoll" : true,
                      "useVisualPreRoll" : true
                    }

                  }
                ]
              },
              {
                "trackIndex" : 1,
                "medias" : [
                ]
              },
              {
                "trackIndex" : 2,
                "medias" : [
                ]
              },
              {
                "trackIndex" : 3,
                "medias" : [
                ]
              }            ]
          }
        }
      ]
    },
    "trackAttributes" : [
      {
        "ident" : "",
        "audioMuted" : false,
        "videoHidden" : false,
        "magnetic" : false,
        "matte" : 0,
        "solo" : false,
        "metadata" : {
          "IsLocked" : "False",
          "WinTrackHeight" : "56"
        }
      },
      {
        "ident" : "",
        "audioMuted" : false,
        "videoHidden" : false,
        "magnetic" : false,
        "matte" : 0,
        "solo" : false,
        "metadata" : {
          "IsLocked" : "False",
          "WinTrackHeight" : "56"
        }
      },
      {
        "ident" : "",
        "audioMuted" : false,
        "videoHidden" : false,
        "magnetic" : false,
        "matte" : 0,
        "solo" : false,
        "metadata" : {
          "IsLocked" : "False",
          "WinTrackHeight" : "56"
        }
      },
      {
        "ident" : "",
        "audioMuted" : false,
        "videoHidden" : false,
        "magnetic" : false,
        "matte" : 0,
        "solo" : false,
        "metadata" : {
          "IsLocked" : "False",
          "WinTrackHeight" : "56"
        }
      }
    ],
    "captionAttributes" : {
      "enabled" : true,
      "fontName" : "Arial",
      "fontSize" : 64,
      "backgroundColor" : [ 0, 0, 0, 191],
      "foregroundColor" : [ 255, 255, 255, 255],
      "lang" : "en",
      "alignment" : 0,
      "defaultFontSize" : true,
      "opacity" : 0.5,
      "backgroundEnabled" : true,
      "backgroundOnlyAroundText" : true
    },
    "gain" : 1.0,
    "legacyAttenuateAudioMix" : false,
    "backgroundColor" : [ 23, 21, 27, 255]
  },
  "metadata" : {
    "AutoSaveFile" : "",
    "CanvasZoom" : 92,
    "Date" : "2023-03-16 12:03:01 ",
    "Fit" : 1,
    "IsAutoSave" : false,
    "IsStandalone" : true,
    "Language" : "FRA",
    "ProfileName" : "",
    "ProjectDimensionsChanged" : "1",
    "ProjectThumbnail" : "iVBORw0KGgoAAAANSUhEUgAAAoAAAAFoCAYAAADHMkpRAAAAAXNSR0IArs4c6QAAAARnQU1BAACx\r\njwv8YQUAAAAJcEhZcwAAHYcAAB2HAY/l8WUAAGGnSURBVHhe7d0HdBzVwYZh3HtR2161krao9967\r\nJVm2JEsukrstW3KR5CL3XgFTTC8hIfCHYjC9QxKSQEJIKAFCAoQOCcXGBduUJN9/76xky0YugAnW\r\n7Mc5z9nVtJ1d6xy9zOydOU8bZAQRERER+Q4GIBEREZGPYQASERER+RgGIBEREZGPYQASERER+RgG\r\nIBEREZGPYQASERER+RgGIBEREZGPYQASERER+RgGIBEREZGPYQASERER+RgGIBEREZGPYQASERER\r\n+RgGIBEREZGPYQASERER+RgGIBEREZGPYQASERER+RgGIBEREZGPYQASERER+RgGIBEREZGPYQAS\r\nERER+RgGIBEREZGPYQASEZ2MxtT9dCKiHo4BSER0Ap3GDE2gHv4jA5VHbRBDkIjUhQFIRHSUCTrx\r\n6D/cHwP69BF6YeiAgR0R2N3yREQ9EwOQiEjQaUwI8tdiUN9+GCjCLyY8AiMGDxTPe4vpGrEMjwIS\r\nkXowAImIRNz5DQ9A3/POgz7QH5dduhNbNmxVQnBI/wHQBna3DhFRz8UAJCKfN3LYCPQS8ZeWmIAX\r\n/vwc/v63t5CXU4DeYtrwwUOU7wR2tx4RUU/FACQiH2VSwm7k8JFK/JWVFOO1v72GV199AzfftBtW\r\nswX9e52HEUOGMgCJSHUYgETkk2TUBY4MUuKvMD8fn3z8KZ5++jncdtsD2LnzOjhD3TBoNBg2cKAy\r\nMKS7bRAR9VQMQCLySZoAPfr16oVIlxsfvP8h3nrzfdx6633YvfsRbN68A0WFpYiNjMagvn3E8oZv\r\nrE9E1JMxAInIp8ijeYYgE0YMGoahAwbgoQceBP4L3H//47jttvuVAFy3biuam1pQObpKGRiiCdCK\r\ndTkKmIjUgwFIRD5FJ7/7F6BDHxF2s6bPgPzv7bfew6233ovbb3/AewRw0w7FhvXbMLBvb/gN9xPr\r\nMgCJSD0YgETkU+T1/kYMHoqRQwfhT8/+SQnAp373LG7pCMA773wYF+24CpdcfC1+8Yu7EBYcjEH9\r\nByjh2N32iIh6IgYgEfkUTZAB/c47D9WjRyvx9+wzz2P3nQ/httvvVwLwjjsewrXX3IyrrvwZ7rn3\r\nMUysnaQcLQz0D+K9gYlINRiARKQqmsCuAzZksHWNNhMC/YKU7/X95Jrr8PXX/8Fdux/G7bc9gF27\r\nHlACcNeuB/GLX9yNm35+J+6661Fcful18Bs2FEMHDVKOHh7bFhFRz8UAJCJVkHHmP8Ifg/v3x4jB\r\nwzumdwagN9zkMiOHjcTwwQPx7DN/xKeffqYM/Lj99geV+PuGXQ/hzt2PICczRzlqKG8Vx6OARKQG\r\nDEAi6vFk2Mkje4P79kHg4H7KpVv8ROgNHTQYQwcOhsZfo4z+1Yvlhg0aCqvBgDffeBOvvPIablPi\r\n70HsEsHXScZf5+Pddz+KZcvWYkCfXmLdwTwKSESqwAAkop4v0IAhAwZiaN9eaM6yYOSgfhjYp4/4\r\nuQ+Gi3AbOXSYiD8jDCLehg4YjKhQB3798P249+4HlGv/3bZLROAdj+D2XR3E8127H8Wddz6Ee3Y/\r\njFuu/z/YdN7rBgb6aXgUkIh6PAYgEfVo8oic33B/5bZt8bYAPDDdgSjNQPQ9rxcihg+Fc7AIw0FD\r\nlaN/0pCBQ5FiHIHtNdG4paUYVy9qwK8uX4bfXrcJT16/DU9ctxW/vHgTHlq2Eo81z8WTE6vwp+I0\r\njDMEoq94jSEDB3W7H0REPQkDkIh6No0BQwcOxKBevfDzCaE4sMGDCTH+OE8EYFnQCOQNH4T+/QeI\r\nZQ1KLA4ZNBzR2mGYmWjE7bVanF+sw0crw3BwvQd714Vj74ZwfDDPiRcjtHjZFYRX3EF4LUKHy+wa\r\n5Gj8MaRPL/iN8Bfb6mZfiIh6CAYgEfVomkA9Bvbri5EDeuOZORb8e6sbt060YUCf3tjm0GK+fgT6\r\n9e6lXMZFr7V4B4EM6AuzCMPV+WY0eEbizfYI/H2xG5+t9eDgulDsW+3GS9lGvByuwyuRevw9yoC7\r\nwrTY6TYjcnB/EZT9lNc9foQxEVHPwQAkoh5MDv7QoH+fPrAN74unGh04stGFz9aFY1JsAFZohuNu\r\npw7+fXphQP8BGDpkGAYPHKgM6OjX6zyYRwyEdlBfXFZhwWVjrHir3YVD6504uNGNd6cH4y8R3gD8\r\na6QBvwnX48koI9qNI5WgHDF0BI8CElGPxQAkoh5LGf07Mgh9e/VGumUYXlsWjs9FwB3a4MRrS11o\r\niw7CraFatOlHwN2/L+z9+sDctzc0YvkRvXqh/3m90Ou882Ac2hcxhmG4ebwNX292Yf/6MOxZ4cTL\r\nqQa8IsJPRuBLwqtROjzq0kArtjWgX1/vPYLFPnS3b0RE5zIGIBH1WDIAg/y0GNC7DwIH9cWD0x04\r\nvNGN/etkBLrxwepw3F9tw9OVFjxfHYzfZBlxX4wWt8YacF2MHtvC/NFqGobUIQPQW4RgomkofjPL\r\ngYMbXDi40YW3JtjxkkcGYOeRQB2eF4/1gUMxWITk8MFDlH3Q8EggEfUwDEAi6tnkdwD79oVlxCBs\r\nK7Xjg5XhOLTRIyJQRNx6Fz4XIfiZeC4fD61xYt9SN/a1i59XenBwmQd7Wz14uSEEi+KDMLh3L8Ro\r\nBuPNZWLZjU58ttyDV9KMeDlCh5dF+Emviuf3hmmQ6z8U/frI7xbysjBE1PMwAImox5JH37QBOgzq\r\n0wd+A/phTrIBO0eZ8OJ8Bw6uc+KAIB87nys/rxePHT7f4HV4kwuHNkVgQ6FRORK4Ll+Pr7Z48OlS\r\nJ14ttCiDQWT8yaOA0qtReuywBWKICMahg4ZAx8EgRNTDMACJqGeSp39F/A3uNxDDRIjl24bhyjFW\r\nPDs/FP9a5VJiT54K7o48xXtgYzg+XhOOj1Z7lEEf8nuDn22IwKyEIOgG9sFT81w4uNqNVzJF9IV7\r\nj/51BqAcFfxbjx7Wgf3Qv28fBPnrxD4xAomo52AAElHPI+JPnnrt16cfHCMG4PoaGz5ZF4EvNrnx\r\nuYy7bqKvk4y/Z5qC0RgfhHj9YKRZ/bCm0IL3V3qUASDvr/Ag0zIUycYheHdVOP413YG/hGtF+BmO\r\nBuBfhZeiTajwH4Zevc7DiCHDvUcjGYFE1EMwAImohzEp1+Ab0LcfQkb2xxONTnyx2a2c2u0u+E4k\r\nvxf4+hInrqy0YKx7OKpyUjB+TA1Kg0fgd3PDcGRTOP4wPwymIf1RHe6H95ZH4PU8E17uGA0svSxi\r\n8LUoA1bqR8DYvy8G9uN1AYmoZ2EAElEP4j3KNmTgYAzs0ws/GWfDV5s9pzzi1x0Zi0c2iWjc4MEb\r\ny6Pw4CwPlmbqsShNi4emBitBKS8JM/C881Ad6Y8X6kKV4JNH/rwRaMDr4vEqewDm60cq+xIwMqDj\r\nKGB3+01EdG5hABJRjyEDy394AAac10s5RfvhSo9y3b/uIu9MyHCU68tLxxzZHI79G9z4eLXbO108\r\n31BgVO4pnK4dhl+49Xg5yqh8/09G4N+F20KCcHOYDub+fTBsyDAGIBH1GAxAIuoBTN6RtvLUb59+\r\nyLEMxsPTg0WwhX/ro38nI7fTSf6snFJeH47tpWaMFIEX2LcPagOGYrdTXhPQezTwWZcGz4brET1k\r\nAAb2HwBNt/tORHTuYQASUQ9ggl5jht9wP+V06/9NtOOrzXKwR9g3Qu7bkOt7hSr3AD64NgQHuvh8\r\nbTC+2OTC3GQNHI4w+I0ciZB+ffCES6ccCXxVROBLUUZkjhyCfn16IzBAjgbubv+JiM4tDEAi6gG8\r\nRwAHDRgMp19/vL4sHIfWf9f4E8G3VnJg71onPloXjQ83JOPtjRl4e3M23tmWh7e3FeGv20bjpQsn\r\n4rnL52H7gqnQaTQY2L8fSkYMwvMReiX+5D2C/xJlQpYIwL69z0MALwpNRD0EA5CIeoSgAC369O6D\r\nLNsQ7F0TqlzIufvAOzl5lG+/iL/3Rew9d2EDnrxiGR694TLcf/NNuOv/bsWdv9iF3bftxp2334M7\r\nbhNuvx933Pkodt/9GAqLRsEiIu8Btzz61zEYRDy+EKFDtv9Q9O3TG/4jAxiARNQjMACJ6NwnB3+M\r\n9Eev885DQdhIEXOnvtafl0t59J7iFT+L8Ht3Yzp+f1kb7r3559h1+wO47Y5HFLfveuiYOx4S0feI\r\niL5Hcfc9T+Cmm+7EuHGTYB45GFe7g0T8GTtGAnv9NVyL1dZA9OnbG34j/BmARNQjMACJ6JwnR9eO\r\nGDoCA3v3Ql2cDvvP6AigNxL3rXVi71o3XrpgPO7/+Q0i+B7GbbseFrH3IG4XEXj7rgdw5+5HcNfd\r\nj4nHh3Drrffghut/gc2bzsf42kkIsYVgeJ/z8H8TbXi/IhiveI7F38tRerwRZcAlVn/07tMLfsP9\r\nORKYiHoEBiARnfNkVA0dNBSmoQNw59RwfLbacdojgAfXheHj9TF4+pL5+M3OVuy+9U4RezL87veG\r\nn3DnnQ8rdlxwOaZOmYnszFyEu8KhDQhC3169YRvaF67AIWjP0uHw5ki8My4ML3nkXUGOReDrMUas\r\n1g1HHxGnfiN4CpiIegYGIBGd83TC4AGDEBkwAG8vj1Du5tFd9B1nrRO/v7RJhN792CUcPeLXYfdd\r\nj+LKK29AUX4xhg8egt7nnYfzBPkYMLAvbMMGYEORGSvzzXhruQfvzwjBywU2vBRxLABfjTTg5Wgj\r\nRvkNQb/evREwkoNAiKhnYAAS0TlPBuAgEYAxQQPw7orw0wagvJzLO5sycNcvbsFtdzykfN9POhp/\r\nux/F1i0Xwaw3KN8r7CcM6N0L2bZhKHMMxfpSO3aU2fHcAhdeagnDoc0u/KPcihdPOPr390gjHnPp\r\nYO/fFwP69kWgv7wMDAOQiM59DEAiOufJABw6cBCsw/rjxcWR+HzDyQNQDvqQAfj8RZM7jvo9iNt2\r\nHYs/ecr36qt+CqtB3uXjPAzp2xszEjUodQzDw7Oc2DnKgjeWuvHhSjcOiNCUPlvjwquZIvq6fP9P\r\nejXKgIvtGlgHDei4H3D3+09EdK5hABLROU8ZBDJ4qDII5JaJVny5yd1t/HmJAFxjxy+vWCECUI7w\r\nlQF47PSvDMCSwhIl/vr06oVs+zC80h6NdbkGfLA6Aq8ulncBcXnvBCK2d2CDEx8vDMVLMTq8EnEs\r\n/uSdQJ4O1+GGEA0cg/phsAhUrcbc7f4TEZ1rGIBEdM6TAShH2Mr78i5I0WDf+pPfAu7TdeF4fVMu\r\nHrp6K26VASiirzMA71CO/t0IXUAgBvYSASgi8NLR3u/4PdXsxKENMvyOP7p4QEx7u86KV0TsdT36\r\nJ70apceFtgAM7NNbuUsJv/9HRD0FA5CIznkyAAP9vCNzV+QYsHddRLcBKE//frgxGY/dcAluu/l2\r\nEX3e8Os8BXzXXY9i9aqNGNS3txJ/CYbBeGeFBwc3uPF8Sxj2rJHb6LJNefp3lQt/zRDBF3F8AP5N\r\n+H2EAXFDBqC/2J7GXyv2lQFIRD0DA5CIznnyO4DaQD369e6HcudIHFjvOWkA/nNDIh6++XrcKi/w\r\nLKKvMwKlu+9+DM1NLUr8jejXG7smOfDVlijcPjEEv2sMxSERgvKC0Ue3t9GDdyc78NIJR/9ejTTi\r\n5WgTZmuHi306D8MGDep2v4mIzlUMQCI658kAlOTlWjQD++CpZjeObPzmQBAZhXvXufDwDRd3CcCH\r\njgvAaVMalZG/m4qM2LMhBhvyjdhcYMCBDZH4e5sDn62R1xAU21vvxJ52N15JkUf/usafHi9EmrDd\r\nEoioQf0xsG9vBPoFiv3k0T8i6jkYgETUI+hEYMnTwPLo3fhIP+zf4Dk6UMPLe+ePA2tD8ewljV0G\r\nfhwfgDOmN2GA2MaqXD1KQ4ZjdnwA9qyPwj31wXiqMRhHNrnxRnsYPlgRhtdGmfFS+LH4k/4QrsPP\r\n7IG4NkSP1BFDMGjgIN79g4h6HAYgEfUg8o4gQzC0Ty9cV23DF5uPnQretzYMH69y4qP10Xj2/Hrc\r\nefMvRATK+Dv+FHDLwqXKdf+G9e6FBRl6PL8oEmty9Lis3KTE32tLXLi7PgRv1tnxsnLRZ8PR+HtZ\r\neMajwQvRJqw2+2NwH3n0jxd/JqKehwFIRD2HHAwSoEU/EV76wX1x9xQHDsuRuzIA17nwQrMNn67x\r\n4OnLl2LXrgexS8TfcReAvutRrF+3DQP79IF5+AAsyLIg3TAYW4sMOLwlCn9cGIZ1+Sb8cUwwXonR\r\n45dhWrwYYVAu+SJD8K/CGzFGXOcIgqZvHwwbPJTxR0Q9EgOQiHoMjUY8iuDyGzESvXqdhwzrUPxt\r\niQeHN7qUi0O/uCAUz80LwacbE/DEtVtxu/I9QO8RQBmE8hqA11x9I3SBQcp1AI1D+uPuaS58uDYa\r\nOystqLEMx6M5VrwWZ8QdoTrc6tAqAz688WfEa9Em3BiihaV/XwzsNwCaQH23+0lEdK5jABJRjyMH\r\nhIwYMhwDevXCzMQg/GtNJL7YGIZP1rhx7Rgb3m534pMNcfjtFStwx2334LZdD+Omm+/CrjsexO7d\r\nD6Mwr0i5569mcF/MStIhyzgEY0cOwZPhIvRiTLjMFoRNJn88F2XAXyK99/z9m4i/q4I1MPXvg37K\r\nbd80Yl944Wci6pkYgETUA5lEBJoxYvBw9DuvF8ZFBOC1JR78Z4sHf2gOw8YCgxKD+9ZH4MULavHw\r\nTy/DDdffjO07rsAdux/B5ZdfB62/n3IUMLBPb6w3B+C5aDPucGoxwX8I2nQj8OdIE+4L1eD5CD2e\r\njzJhqdEPQX17Y0C/PgiQo36VU788/UtEPRMDkIh6KBmBJgwfMlw5mhevHYw7G0JwZEsUbh5vxcKU\r\nILy3MgJfbAjFx+tj8PKOety4sQWLmppw9bU3o719NfyGDoNeBN0cvR9qA4YidmA/EYP++E2kERdZ\r\nAnCXS4973HqU+Q1R7hwyoF8/5ZIvHPVLRD0dA5CIejSNxoCRw/3Qr3cfjOjTC9PiAvHbZjcuHm1H\r\nrXsknmwMwxebwnFkfSg+2xiFZxbHo70kHNPHT0Ll6FpoAryXltH064sLHBrsDNZgSuBwrLFqsNjk\r\nB6uY3k/E39CBgxAUoBXx1/1+EBH1JAxAIurR5MAQncaMIH8tBg8c6I25gX1QHxuEqmgTLEP7oz3b\r\ngD8vdOHABg/+vUU8rvfgvql2TE8ywqP3w8C+vTCsX2+YB/SFf98+SB8xFM6B/dC/93kY2K8f/IaN\r\n7Hg9fuePiNSBAUhE6qCcljUgYEQABg8YiL69emF4vz4Y1Ke38l0/07B+GB/hh5snOvDSYg/eWh6O\r\n5xdFYVN5KIaL8BsglhvQp9dRg0T4jRg6QrkFnQzMbl+TiKiHYgASkUp4B2V4v59nUO4aMnzocAwd\r\nMAhDRMz1791bOTo4RDxahvWHY+RAmIb2g3//PhjctzcG9+uLIQMHYeTQYQjwC4Am0NCxLX7fj4jU\r\nhwFIRCrVGYNGBImYk3fsCBjhr3xfcNiQEYoRw/zgJ6YFiXmaAJ2yLKOPiHwBA5CIVE7EnDyFK8JO\r\nxl13GHxE5GsYgEREREQ+hgFIRERE5GMYgEREREQ+hgFIRERE5GMYgEREREQ+hgFIRERE5GMYgERE\r\nREQ+hgFIRERE5GMYgEREREQ+hgFIRPQ/pAnQw3+kBoHisbv5RET/CwxAIvoBmKAJNCiOn24W00QE\r\nyXmartP/9zr3r/v9/GHI17FYnCgbNQbRnkgRg/+b1yUiOhEDkIjOMnl/XQsMOi/vvXa98+R0vdY7\r\nXd9l+v+a3KfO/TPorco0vxFBCPDXfWPZs0bEX4C/Hpsu+Qk+//wIHr//HjgMZgSJIO52eSKiHxAD\r\nkIjOqsAALVzhabj9jgfx2GOPo7Z8LAJGaBDop0VcbCnuv/cRPPbAIxiXkg5/Ma27bfyQ/MS+1I6b\r\niMcffQwPPfgIHn34Udxz1z3YedHFyEhKRoDfDxOB8uhfYIAB195yL+R/LzzzO4RZTAjiUUAi+hEw\r\nAInorArwD0JkQhHe+/AAvv76K7RMmwX/YQEIGKlBZkY99u87jK8/P4yFhUVKjMl1ZBzJ78XJo3Dd\r\nHYnTBOrh12X+yOGBGCke5TonW+Zk37EbMSwQCxcswr+//BJH9u/Dh++8g7179uOrL77E3178M7IS\r\nYo+LwCCxL53blNvvero4QASsnC4jTj6X+xXor1eWkdNl4Cr71bF+oNhWREwaFi1ZhuKcXLGP3tcJ\r\n6vheYOdy8nnX1yEiOtsYgER0VikBGF+IN9/egyOHPsf8KTOPBmBG+kR8+vF+HNq7D/MLCkVQiUAK\r\nEAEUZEFOTilmzpiLqfVTkBATrwSV3J6MI6MpDGOrJ2HB/DY0zm7CDBGVra3tWNrWAqPBKkJLA7PF\r\nidFj6jB71lyMr66Dy+Hq9gijDMD581rEvn2Bj9/6E0ozo1Ewajz++saH+PcXh7Fq6SIlLuWy/mL/\r\nnK5Y1I2fgkax3dGjymHUm5W41GhMyMgtxeiKsQg2ByM1oxBNza0ozc6F3eLC6PIq5GVlw2h0oKqm\r\nHk2Nc+CwOxEdk4ma6vEYU1kDvdYqQs8Iu92D4uLRYt+bMK9pPsaUj4ZZvI6MQN0J+09EdDYwAIno\r\nrDoxAOdMmIzB/YZi8IBhSEyowSddA3B4EHQ6By649Hp88uln+OLIFzhy+AjefO1VjKsog/+IQBhF\r\nTN142/3Yf+Awvv7q32KbR3Bg/0F88M57eOjee2AxhyAiOg0PPv5bHDzwuVjmaxw6+Dn+/NTvkJea\r\n+o1Tup0BeFgE4Ef/+D3iHP4YqXXit39+Df/58gjWrlx+9OhiXkkV/vTCX5XX/OLwFzi4bz9uuu5K\r\nWPXifQaZcPtjz2Dv3s/wfzf+HO9/8LFyanf1woXIThuDjz76BC+/+Cx23fsIvvrqv/jk7VfhDnNj\r\n47abxev8G7/+1a9h0NkQqAvGjbseUV7j66++Uo5E7v9sH352xaUwBYmA5ZFAIvoBMACJ6KzqGoCH\r\nDh7ETdf+BAuaFmB+80Js3nQV9nyyD4f2iADML8DQQX6YOW8VDh/+Gm/89S9ont2ITVt24pCIoSfv\r\nv0VEWCDG1Tfi4OGv8PrfXkXbwjbcdtdj+PKLr3Hb9VfApDXBP8CEa266F//5+mu88MxTWLtmI373\r\nhxfwbxGCj96zC2axTNfTqUoANosA/Pww9nz4Oq6+ZDt+dtMufLp3P959/a8ozEgVYaqBNTQWv/3j\r\nS/jqyBH8/LrrMGXybDzz55fx5cE9qK+qwPCReux64k8i3A5j78cfYfett+CSiy5GSmI68rLr8PHH\r\nn+CACNLXXnkF1155LdYsaYM2QIMtF96C/4h9++XjT0AvAnCkvwErVm/CjT/9KTau34zddz+CffsP\r\nY98/30Z+etrRI6FERGcTA5CIzqrOAPzH258qR7K+PPwF/vvv/+I/wtdffo29e/fh8z2fYV5ePgL9\r\njbj3oSeVI3sXr18Dk8aAhPgMvPqPD/D6y89Apw/Gmg1XAv/9GtdevBG9zhuE0WOm4PDBQ3jxD08q\r\nAeWJzBKv9U/s37cfkyvL0Lf3IFTVTsdnB47ggzf/gezoSPh3+U5hZwDKo4T7RfQpR/e++BKHxeOL\r\nf/w9clNSMXywP0ZXT8O+z7/GP156HmkxUdBpzWjfejm+/ve/0dbShmEj9Lj9iWdFeH6Jn1x7mdiu\r\nP4YPD8BIEY+F+RPw0Ufi/e/Zi/oxZSJ0Ryjf7Rs+QostO27Bv7/8SglAnd6GIBGnMvIGDxyGfr0H\r\nIiSiQMTzx9i//2PUjh4D/47T0UREZxMDkIjOqmMBuAcHDxzAfbt2Y/uW87F92wW47trbsOdTeQTw\r\nMzTn5cFkiMezz7wiljuId/7xNl7/29/x+mtvYL+It5f+8ISIIzPa2rfgv//5Crtvvh4BI7WYPmcZ\r\njoiofO63j0ITZEBK8QR8uucAPnzvPaQnZ2DEUH8kpufhrX99jgP/fA8l2akYKQdjdOzf0SOAIvg+\r\nfe8lLJw1EfVTZuOBJ54WIfg1nn78AbGcCXPmtePQocP46J8f4++v/h2viX17+72P8MXhz9E0eyaG\r\nySOAjz8r4vZL7Dh/HYYNC1C2L783WJg3AR9//Cn2fvIJRudni4jTKt/lGz7CewSwMwD1equyfHhU\r\nMhpnL8TKFauxdfM1+PDdT7B338eoYwAS0Q+EAUhEZ1XXADx06HPMnTQFQwYMx5DBI5GUNA6ffCwC\r\ncO++jgCMwx//8JKIsc+x84KLMHF8PSY3TEND/TRUFJUgcKQGqTnleOPdf2Hfnj149vfP4G3x/Osv\r\nvsC25S0YNng40koniQDcj3++9z7Sk7wBmJAqAvCjgzj4r2MB2DmYout3AP/15tNIdOnRr+8w5JdP\r\nw4F9n+OjD/+F2KhEzGhsw5EvvsLzz/4ZUydNFvs1HZPFftVPqEeEywN/EYnyFLAMwIsu3IDhYrsy\r\nHI8PwE9RWZCjHP3TilgdPrzjFPCX8hTw48rRv+TMMjz/8j9wcP8BPPP002L60+Iz2os9e0UAVlQy\r\nAInoB8EAJKKz6sQAnDd5BvyGBSiDKtLTJ3QJwHwEBhhx/8PeU8A71q9A/z79MWjgMAwaMAzDh8rw\r\nMWGEnwHbdt4oAnAfXn/tTbz8wovYuX0LbEazEltR4rXefu+fOPjZZ6ivGIW+vQejonoK9h44gn+9\r\n9Q9kx0UdNxDk2BHAL/DRm79HSrgRw8RrzVywDgcPHlaOJMaFR6N8bD32HvwSb73yPCKDbejXb4gy\r\nkGXwwBHK9gK1VtwuA/DrL3Hxtw7Ar/CECEB/fyMuuuJn+O9/gd03XAe9nx+criK88ZoI3v2foqpk\r\nFEYM8R5ZJCI6mxiARHRWeQOwCG++sxeHDx/C/CkyAAOPBqC8DMzhz/Yrg0CGDPJD66oL8cWXX+OD\r\nd97EhjWrMK5mAhYtWYXJk6YhSIabxoTbH34aL/zpBZQVj0Jmeg7cYeEwaMVr+WkRpLHi1nt/pQwC\r\n+f0Tj2L2jCY89PhT+I+Iyl89cDesum4GgcxrFQF4CJ99/B7u330rdt/1AN59/1/46qsv8fi9t0Ef\r\npEOoJwXPv/IWvjxyGI/cdzem1E/G1MkzsX7dFkQ7XfAPNGPXE38G/v3VSQJwDz77VARg4fEBuHXH\r\nLfhvxyCQAH8TLr/2Znz9b+DX996F1PhETJnRjo//uQ/79+/DFRdfgqToBOX6gV0/YyKi74sBSERn\r\nVecRQGUUsDwCeEIAysvAHP5sH+YVFGDksABYbB7ceMs9OHjgsGipf4vg+hL//Q/wwC9+Bp3Ylt9I\r\nAy6/YZdyGZYP3nsf77z9Pt5+8x089uB9KEjPUIIuPaccz77wKo4c+VpE3H+UbcgBHUUZGcodSLru\r\nn/cIYCsOff459or9kKOBDwl7Raw98dD9yEpJUcLSX8TnuPo5eO0f7yuXZvnqC3mJlq9xaM9HqC7M\r\nxnA/I3Y9Lk8Bf4WLLtzYJQB1JwRgrghA7wWrR4zQKgEo4/SXj/9SOQWcWzJexPJH+OLIEez5dA/e\r\nf+c9/P21t3Hk4GGx7f9gx6pl8BvOo4BEdHYxAInorJJ3vpAXZa4cPR7jasYj2h2tXMxZHoWz26Ix\r\ndux41FbXIjY4VLkPrrw9msEYgppxk7Fi2RqsXLYKs2fMQmpCohJTlbWz8Nob7+DpX/8aV11xNa65\r\n+no8+bs/499f/wf33XQFNH4B8BOx5glPxJw5LVi9cj2aZ88VrxuuXHz6xAspy32JjoxXjjRWV9Up\r\nxlXXoTi/CGaDRQm/zmXl+olJ2Zg3bxHWrFqHRa2LMKaiEsEWh3g/ZuQUVGB87QSkJKco25XryAs7\r\nhwRHoWpsHWrG1sIVHHb0CKR8v4nJhairnYTCglHKPYnl/YFz8sqwrH21sAKFuflISMxCW+tSzJvT\r\nhKToaOUz7dwnIqKzgQFIRGedHHHrP8J7a7Out2STATRypPd2Z/Lol1YjpkviuZwmj5TJi0P7jQgU\r\nUaeB2eTAr//4Vxz49CPkZ2SgX5/Bynf8ysY34fDhL/HUfTdC7x+gvF6QvwH+w+X6GuVCzkEirHRB\r\npuP2q5M8pep9vS7E68n902jMR5eT8SiPII4U+yS36Tdc7Jc8mhdogl5sWwainCdv/3Zs+95Tzp3b\r\nlc+7Rqh87ZFiG8fuUmJSXkPut3zvcrqMQuVzkNvmvYKJ6AfAACSic5IMJ7MpGI8//SK+PHwEjz5w\r\nH9asXovNm8/Hcy++iq+OHMbq1mYEiFjsbv0fnKb7uPxOzua2iIjOAAOQiM5Z8nRsUcUkPPvcy9i3\r\n76DyPTx54eYP3noLF6xfA0vH/XK7W/cHxwAkoh6MAUhE5zR5yZWQkEgUFVeiblwDqiqqkRCVgCB/\r\nrfc0cjfrEBHRqTEAieicJwdYyAEhfsO18B+hU24h191yRER0ZhiARNTDyNOlPGVKRPR9MACJiIiI\r\nfAwDkIiIiMjHMACJiIiIfAwDkIiIiMjHMACJiIiIfAwDkIiIiMjHMACJiIiIfAwDkMgXyDtmEJ2p\r\n7n6HiEhVGIBEKqXTmmEyBsNsdhB9KyaTA0aDrdvfKyJSBwYgkQoZ9TYE211w2D3i0QN7xyPR6XT+\r\nrjiC3bBbw5T/kejud4yIejYGIJGKaAS93ir+gLsRbHMRfS8OmxtWEYFaDW+9R6Q2DEAilbGYQ+Bg\r\nANJZYre7YODpYCLVYQASqYnGBJvV2e0fcqLvRPzPhMns6P73jYh6LAYgkZowAOlsUwIwpPvfNyLq\r\nsRiARGrCAKSzjUcAiVSJAUikJgxAOtsYgESqxAAkUhMGIJ1tDEAiVWIAEqkJA5DONgYgkSoxAInU\r\nhAFIZxsDkEiVGIBEaqLCALSL9yN1N+9/xWoOhUFnh90S1u18VWMAEqkSA5BITVQSgHbJ4oTRECzi\r\nz40Quwc2Jb7+9xe4toj4yy+bgMsv3YnU+ERYfS0CGYBEqsQAJFITlQSgzRoGR0gU2pauw6+e+B2e\r\nffoPWL9yJSymUOVooDwiJ9mt3uXlNBmInfO8sdixrY7pts51OqZ3zlOW7/jM5BG+o+t2rGPQO9C8\r\n4iLs/fhDVJeXwWwM6bIPYtsd2+q6D3I/u+5Dj8YAJFIlBiCRmqgkAM0irDZf9BMcPngA9+3ahQu3\r\n70Dj1AYlvmwWN5KTspGSmC4izRtsLmcMYqMT4QiOQEpyDhLEcxlvoY5wxMckIzTYg4T4TKQlZsEh\r\n1pFHEi3GMERGJCI7Ix/hYZFKzMVEpyAuNkXZrt3uQXxcKiLdkYiJScWUiQ2IckUoRwTttnCkpuQi\r\nOSFdvI7YJ/GZh7vjERuZoLxmWmouYiLj1BGBDEAiVWIAEqmJCgJQHlmLjc3Aa299gEfvuQvBpmDo\r\ndcEi/hwICY3BpVfdjLffeh/vvvUOrtt5CYKNNsyYPQ9/ffmvePDBJ/D22x/gtVdeQmVxKXKzCvHy\r\nCy/hkQcfxqt/ewv/fOddLFswD3ptMOrqm/Hn5/6C1/72Op587FEkxyZg6uwl+Mc/3sSkqkrUz2zF\r\n66/+DWOKizCrsRUfvPYSyvNzYA+JxfU/uwPvvPUe3vrHW9i5bTNMBgeWrrkQf3vhZTzywCN4571/\r\n4cVnn0FRVqYSjN29zx6DAUikSgxAIjVRQQDK0MsvqMehfQewY+tmEX92yO8BGvUONExtw+f7PsPS\r\nefOwdO3FYpm9mDSqALPmtuDzI19i55YNmN+yAp8d/g+2rl2JguwCfLrnM9x3+x2onzADb7z7Lzx6\r\n791whcXiqWdfxRP33YHKmsl468M9WNHWArMpDHc9+Bv86amn8eJLf8cvrrkCRo0FrUvW4au9H6A0\r\nJwPjG1di//5DaJs9GxvPvxJ7P/4IBelZWLFpJ/57aD82rlqFJSt24PDB/VjQNBcGQ0i377PHYAAS\r\nqRIDkEhN1BKA+RPx+WcHcOn550OvtSnvSX4Xb9n6n+Czt95CituFhOyx2P/xP7F49hRMn7MAe/cf\r\nxISSHEQm5ePtPV/ggg1rlQD85NM92LRkhQg5K379JxF9D96DxNRc/OPtj/DXZ/6Iu+95EH9+/i9o\r\nmjkL2gAjSsZMx/4DR/DPN19FZkISNBobWhavwxefvotRWWnYfMn1eO/9DxEdFo2sqhn4aP9hTKke\r\njfYNl+CrPe8jLy0V+XmTsW/Px2hb2AojA5CIzkEMQCI1UUEAyu/NRUWn469vvI/f/+pXiHFHwWJy\r\niAC0YdGKnTj4z/eRkxiPrFGTceizT7FwSh1mzFmIzw58joaKIsSml+KdPV8eF4Bbl6+B3RSCJ5/7\r\nGx5/8G5EJ2TgtX98iJ9fvA2e0Ah4XNEIDXbDaHRi26U34P2338GH772DxU2zERhgRuvitTjy6Xso\r\nEQG4bMvl+PjjT5ERk4DyiXPxyf7PUVcxSgTgpfhSBGBxThZKiqeKAPwErQxAIjpHMQCJ1EQVg0Cc\r\nMJmcWL3pSnx+8DBe/NOzeOjeB7CsZT4y86vwzgcf4cnHH8eTTz2Ht159BZkxMWiavwiHvvgKkyuL\r\nEZdehn8eBC7atBFF2YU4cOAAzl+1XgnAp196A795/CGEWO342S334SMReT+77gb87PobkJeZjZr6\r\nedj72UEsaZ6LjRdeh3+9+ybyUzOwcNEa/OfARyjLz0FO6UR8+K9P8MuHH8IfnnkBrzz3DCLc0Vi9\r\n7Wrg849RkpuN0pJpOHRwHxa1LhbhygAkonMPA5BITVQRgN5LqgQHR6GxaQlu+b/bcfcdd6F59mzo\r\nRUzVjJ+JX/xiF2762Y2oKiuHSWdHcUklLrjgYuQkJ8IdlYaN2y/D+LHVSIhOxvZtF6K2ohrBFicW\r\nLV+P1gULEGy2ITouC9vOvwy777wXP73mOmSl52DG3KXYtHYtnMFhiI7Nwfbtl6B29BgUlVTh4u1b\r\nlOsAWkxhaJjajFtv3Y0br/8pyguLReQFo3LcdFyyfRsSYxKQlFCI87dfiFFivyzmHj4SmAFIpEoM\r\nQCI1UUkASjIC5ehaeekXSY4OltPldwQ7yevtyWnytLHJEKy8d+96wd5r9HVso/PizRZlHe8ROZsl\r\nVFlO/iy3ZROBKF9DLi+vL9i5HfnYuX35vHMfOtfr3F7nut59COvYJi8DQ0TnJgYgkZqoKAB7os4L\r\nU6sKA5BIlRiARGrCAKSzjQFIpEoMQCI1YQDS2cYAJFIlBiCRmjAA6WxjABKpEgOQSE0YgHS2MQCJ\r\nVIkBSKQmDEA62xiARKrEACRSEwYgnW0MQCJVYgASqQkDkM42BiCRKjEAidSEAUhnGwOQSJUYgERq\r\nwgCks40BSKRKDEAiNTlNAMrblXWdL3/uvL3Zycjl5TLKuhbvLc7MphDYu1m2K7saboNGDEAilWIA\r\nEqnJSQJQxpq81212ViFiI2NhM4fBYgpDblYJXGGRys82sww9twg3Z8fPIuDEz+GuaERFpSEvuwiR\r\nESkYX1OPspIKhAY7YRGRJ7cbbJPreV9DRqLd5kG4J0GsL+aJbZy4P9SDMACJVIkBSKQmpwhAszEE\r\nrUtWoiw/F6GOSCQmZmH18k2Ii0oWYZeE1KQMOMS6blccEuJSkRCTBGd4MjauWoPCvFEoLx2HtrYt\r\nWL10JWpGj0OYw4m4uHTvevZwhLsTkBifgZjIeMTH5WPtuu2IdEWd8ogk9QAMQCJVYgASqclpAnBB\r\n21JUjirB4sUrMX9eK66+7CqUjqrFyuWrRdwtQ+PkyWhuXYFlS5Zi7fqtqBnfgGsuvwozpjVhSesa\r\nbN1yHdoXLkfrvMUoL69Ea8tSLFu+DrV1U7FozflY3LIEa9ZuwsSaWbj2mhuRmpgGmyX0G/tDPQgD\r\nkEiVGIBEanKaAJzXshizGqZgWesC6INMmC9irm3ROuzYvAlz5rZi0cKFWNK2AukxcSiZ3IJJ9ZOw\r\naH4bSkpq0d66CjNnrsWYsnFYsmgFSotLMWf2PCxftRkt85Zi4fKNCHfHYPL0ZkwZM0csswrBlpBv\r\n7Av1MAxAIlViABKpyWkCcOGiZZhQVYU1q9airGQMdlxwMRqmzMPqpctQUzUJ0yY2oFVEYVp0LEqn\r\ntmFCw2SsWr4O9ZMasWzRasxt3Ijq0ROwZPEKLFrSjtbmBVjQtkZE40q0LFsLjysO02bOx+QxM7Fh\r\n/QWIiYjjKeCejgFIpEoMQCI1OUkASnJwRnZeCWIjYpCRUSyibjrGVdXA5YzF6NF1mFI/DWkJqcjJ\r\nKkZ4WDhiUouQmJSOouKxqCyvQV52MbIyKpAUl4H8nBIki3n1E6eipnIc8vPKkJNfhhBHJDLSC5AS\r\nnYJKEYqpSVnK4JLu9od6CAYgkSoxAInU5BQBKHkvA+OCRTzKy7mYjCGwW+WI4BDlZzmK13tpGBGM\r\nciSw+NlsChNClelWi7wUjFhG/Gzr2IbZ5BDbCxPzw46uJ0cSW8S2ZXTKEcLd7Qv1EAxAIlViABKp\r\nyWkCkOhbYwASqRIDkEhNGIAn4NHH740BSKRKDEAiNTldANpdsNqcsIpllEeVsFjDYDQ5oDfYYTAG\r\nw2IJFe8xTCHfc7efBZ0ZBiCRKjEAidTkFAHokH/ITcHQBBnEsuoR4K+FJlCP+LgklI2qQEZ6FowG\r\nC/z9gsTnYYRFhKF87919JnQGGIBEqsQAJFKTUx0BDHZDb7B1v14PFeCnRVRkLG679Q68+857uO+e\r\n+/Da31/Db3/zW4wqLYffCA1MhmCEBHuOfg5yEItFDmKxyMEvDmXwirxdnXLru66fl+AdNOP0Doyx\r\nOZXL6Zy4zP+SMsDmVEd4vxU3rCZ5yz95oe5THTVmABKpEQOQSE18KACDAvQi7Jy4+6578Jsnf4sv\r\njnyJZ/7wR+zfdwDP/fk5/OqXv0JOVr5Y1nI0AGXsRcekY+qURsya1YzZM+YgLTEVIWFxqKmegOCO\r\nUc4ysmQkpidnicBMQFXlOJiNciS0d1SzHAXtHTXtHf0st63cA1mOkDaHKKOq5YhoGY7yuVw++OjP\r\n3vXkOnJe57LK9xU7luncV2+khnhHWottlFfUIjk2VpnmXebYXVZkHHq3550m15X7qGxHjs4W+ya3\r\n7w0++dphKC6pxsyGyWKeeD9yPzq2dRwGIJEqMQCJ1MSHAnDk8EAsX7YS99x9D5YsXoLXX3sd8r89\r\nn+7Btq3bcNnOy3DrLbfDoLMpp4DtInJiYjKU295NnzoTDROnYML4qVi3cjVSROhVVU1ASlIW4jyx\r\ncIcnITWzUGzjGkyqG4+NG7ZizFgxPzFdfJYeFBdVoGrMOMRGJYjILEKI+MyTEnIQG5mIgoIKjKmo\r\nQVhIJDLTclBRVo3i/DK4QmORm12EsWK9tMQ0sT8uFBZWYHTZWDgd4eLfzY3Q4HDkZBQiVMRgcmo+\r\nEuJSUCSWqRpTiyh3DMrLa1BWVITEmETl/ss5mflwWEV4ishLSspTXmtUUTkcIvZSU/JRWz0JGcmZ\r\niIpIFOGYAFdYDLJTMxFsdiJURO+VV12H+VOnIU/sX0VpJcIc4nM68WggA5BIlRiARGriIwGoCTQo\r\ndt12B3ZeuhOLWhcpwbd/3348cP+DWNy2GGtWr8GTv/4tIsPjO47ohaGhfibq6xqwavlaTJk6Bxdd\r\nsBO1leMwo3kJlrYvR/P8pagtLUVW+SQsaG3FhTsuR21VNa647Co0TJqOTes2oqx4LJqbWtDWtgbL\r\nl67EkvZ1IujSsWjRKsyf14b2pcsxa9YCtDbPwwVbtmPerGasWbUJVaMbcPVl14jwnInVK9dg3Pgp\r\nSlguW7YOCxvnwGwIRrg7FudvvgAeEWILlm9E08yZuOziyzFj+lysaFmABWL7zY2zsLSlBZmZpWhv\r\naRPR6EGoeH+LVmzBooVtyv5MqJmAuXNaMX1KIy658EJMrJuAxvpKxCflYuPKxbAZHXCIIL344p2Y\r\nXjsRV4rPrrqsXGyrm9PcDEAiVWIAEqmJDwWgfNx9x1244vIrRFCtxsU7LsY7b7+Dl/7yMtatWSfi\r\naiN++5vfISYqEXZ5OtQajsZps9E4ex4mVJYhzJ2GpW1LUTm6DtMaW7F8uQi4he2oLixCTvlEzG+a\r\njRXL1iMvOx/ti5YiKMAiAnExZkyZhiWLV2LlyvOxdrUIwsrxSnA2z2nCgmUbUZiTDVtoAraffyG2\r\niH2IElE3ddpcTK2fg5ViezZTJJYsWYHVa9dgjXjNueK150+dCbPeCrdLBODWHSLoQrFo5QbMmz0b\r\nC5ua4IlMxPpVS9G+eBnKC3Mwv2U5Whcuw+jR1SJUV2B+4zwxbTGi3eFIyxsjwnAJWuctQpt4P1fu\r\nvARTGxowc0IZYhKzsHnNIliNNhhMTqxcsRblucXYumwVnPLUdHe/OwxAIlViABKpiQ+dAvYbEYQL\r\nz78ID9z/ADas24CrrrwKH7z/AX7/1O+xYf0G3PCTG/DQAw/BavF+X85sdmLmtDmYPX0ulra2YfGS\r\n1bhGxFF76yJk5ZZg1eq1mNgwG2uXrxQBuQ1tc2Zi+aotqJ9Yj52XXo6ZYr31q9aisWkpNq7ZgNZF\r\nq7Fl41Z4nDG4/qc/R0VJGcrGTMHaVeswb95itIhwW79qDaIjEjB9xlxMmdSIFe3rEGKPRfuSVaiv\r\nn4JVIgBnz5yPurHVGF06GnlpGVi34ULMntGIay+7Ck0zZ2FB8zxExaZi7QpvAJZmpaBqwhxcc/UN\r\n8IR44AgOR4glFEtWbMAyEaLyCOBMEZSXXngppk9txNUikKvG1mL9mrVobVuJ7WtbkZlRjLT0Qqxc\r\nvhaj80uxtX01PPJU8om/MxIDkEiVGIBEauJDAShHACfEJSsDP35+40245qprlADcfeduXL7zcmUg\r\nyMQJ9dAEGpXvANrMIUhPL8aaleuxqLUd46onYF5zG9atXIOSglKkpWYjJCQSFRXye3ZjkBybgqTk\r\nHBTkFSMvp0RE1EQkiWkORwzGVNShpLAMGWm5SEzOx9atFyDKHQmL2YWiwtEYO3ocwhzhYn4ewkIi\r\nkBifjvjYNKSn5sFhi1AeQ8S/R3FxpfL9PldYJLLS8xEfEYOY2HRUj6lDQXYxkuLTkJqYgVCxXxmp\r\nOUhPyRGvEwWPJxE5WYXKkU15ettmDBZxtxozRVQW5pUo0wvyRqFSvJfszCLlfs9FxWMwqrQK6ckp\r\nSIjPRJyIyrSUbER7YpGTmouQk40EZgASqRIDkEhNfCgAJXkUsKJsDH775O/w+6d/j2f/+Cyefupp\r\n/PnZP6O1pQ3+I72Xgem8DqAcjRsv4mf6tLmY39yCubObUZBTpAyikPO83xX0jsy1dozoVchpyr2N\r\n5QhhN8ziuVUwGkNRNXEORpeUiWXkyN5j68ttdR3RazWLUJMjccXP3su5eEcBy215l5Wjfr2jdeVr\r\nye8s2uQ6Yrp3dLD82bueMtpYeT3vv60MvvKycYhyRcFkdCjTjr4Pk9znjtcS79EqlpWjfr0jmL2X\r\nuVFeo2Nb38AAJFIlBiCRmpwiAGUEmZULQRtVofM9+/tpERbqwYxps7Fpw1a0LFiEhPhkMV2jHP2T\r\nl1Cx20UkdXwOyiVPZMCJ+PFeB1BG2ne/ULRc//tuo9OJp2C7PSXbLe91DL2XkznLGIBEqsQAJFKT\r\nUx0BlOSt4DpukaYmZnMIdDorNBqz+AwsylGwznne+JOfySk+Fzo5BiCRKjEAidTkdAGo8KXbovnS\r\ne/2BMACJVIkBSKQmZxSARN8CA5BIlRiARGrCAKSzjQFIpEoMQCI1YQDS2cYAJFIlBiCRmjAA6Wxj\r\nABKpEgOQSE0YgHS2MQCJVIkBSKQmDEA62xiARKrEACRSEwYgnW0MQCJVYgASqcm3DEDltmLdTOf1\r\n87o608/z+OXk53rmd/L44XS3H9/cr1O8RwYgkSoxAInU5HQBKOZ13o9W3n9W3g/2xBiQ95+1W46f\r\nJnlDwvON6WpnFzEsPyvlZxHM8n698rHrMjZrmKLrZynvPmI7aWD/b8jXtsnHjv31/uxWKP+WVo/y\r\n+yLf44nrHsUAJFIlBiCRmpwiAGXstS9dgYa6iTDq7EhIKcH2DRvgDouAyRii3B/XYgpDRkY+4qPj\r\nj4ai1RQCo8mJaTPmIsYd1bGsA9aO+ZJFLONdP1SJTO/P3vvsytf1zgtRQkqZ1/Fczu+8L2/nts4d\r\nMpBdSKy5AEmjZsFqDIYjPBcZM66B0xUFm8khYjkUdnMI3LFFcEVmivfkfR92S6j43EKROGoenJ5k\r\n8dy7bLCIxM7ty3sS28QyduW9y9cSP4ttyXXlcvK5sn3xOclHZZ6MTPF5el+3y2emLCOX936uchkl\r\nVsXPYe5ksR/Nyr+jVfybRKU0IDJnBhILZyrRGurKRGLpHBGB3f/eMACJ1IkBSKQmpwnAy3Zehxsv\r\n3QmrIRiTZrThlv+7DTFRyairnYZGGXiRadiw+RIsapqlxI/V7ERB4VjMmLUQF116CRKiYzBmzCTM\r\nnDoL8VHxIkJEkDiiUFE1HrNmzEFVxVgRDBEYW1WPxtnzkZeZg5i4TMyc3oTasePgdsZiwvhpmDZ5\r\nOiLCwpGeXoTZM+ejOL9ECaDu9vvHIwLV4kZm453Iaf6ZEnpROQsxau3v4I5MQUzOFKRULESoJx05\r\n0y9BZu0qEV4iwMRn4omvRHJ5K/Kbfy6WzUJUxiQkl80Xy2YoESdPsUdkTUJKeQticybAZgtHdPZk\r\npIxuRXhiKUJcaUgqbUZ83mQEhyYiNn8WkkXEOZyJCIsqVNaLSa8V2xL7KYMvOAbxhY1IEa8R4kxC\r\nVHo1wkJi4I4pQHRqJXLn/lTZH09cCRLyFiGubDmi82bA4ohHYsVSpNSsEP+OkUo0fuNzYAASqRID\r\nkEhNThGA8vTf+lWbcOm2S1CQVYC585Zg+dptmDZjPpY0LcDYmqlYumgFWhetQkN1JczGUMTGZmLj\r\nui0oL6vGZZddKsJtGnZsPR9LlqzGlvUblCNM1rBEbLv8J6itrMKq5esxelQ1mue2YNqsFmxevx5z\r\n5y/HyqXL0DKvBVV1s3HxhZdgftNC1FRU45KLr8XCplZcedmVSEtIPO6o4o9PBKDVg9SGq5E56ydw\r\nJ5YhdexW5My5EYmVS5Fetw6ROdORPXmHeL4W8SVzYTPZ4XBlI3/G1QhPqxcB+Askli1FjgywcVuQ\r\nO+NiEVkidC0RyJ59JaLypiC1/jJE505G/OhliBm9AvmN1yG1YjnSp16CpDErEZ0/A/lNP0PCmNUI\r\nz5yErBnXInHsGuTP/Tki4nNhMQYjftQKJFeLZQvmIa12HTInXwBPeDISRDSmlMxEQfN1iMiYiMyG\r\nC0VIrkJcxVpkTNqB2LFi2ak7xHu8BOm1y8W/p+ObnwMDkEiVGIBEanKaANy4cgNmTGzC6lXrMHN6\r\nI+Yv2YCly9ZgTE4BTPYYrFixDk0iyIqzM2HQOZCTOxorF7dDo7FhsZi3Tti2YZMIwVmY09gstuuG\r\n3ZWM9rUbYdeZMXNaE5qnzsYqsVzL4jXYvnU78nPKsWTRcuzYfgHKS8owZ84CMX0H2tpW45qrb8TU\r\nSdOwtHURUhOSRAAeO0X645MBGI60hisRWd6O7JnXInPMKvHzpcicdilicybCaIlE9oyrkFG9BFEZ\r\n42A1WhEWV4m86ZfDqAtF2oStSBfrZ82+FrGlC5FavRQOu9x2JFInbBLbd8JTtAbxVZtEkG1DWt0m\r\nEWs3wZlQheTazcgVMRiZ1YAkEYQ5M65UwjN7/m2IK10ggm8dImIzlFPoKRMvhyu5ArbQLBGIVyND\r\nxKNbnvota0Nq6RykT9ionPZPrhP7U70NsSIA0yddglSxbPqkjSI+25FQNl85gvmNz4EBSKRKDEAi\r\nNTlNAK4VsVeQVohLrroJpXlFmNu6BuVjxmP9mvVoX7IaMxqmYsLkOZjfOAtyMIgzLAbLRcy1tbbj\r\nissuRUVpBdasWo+F8xdh5uRpsMnvlTkTsP2qn6K9bSlWtq/AWLG9bZu3o7l5CTZv3IL6iTOwcF4r\r\nNm3cisn100QMLsPy5RvQNHMmlrWvxYKmBVi2aDGiXBEn3fcfh/cIYJoIpZC4MShsugHuxBqkT7wQ\r\n0bkNHUf+NiO5YgESihqRVrNcCSibPQEZEy4QP69HwYJbEZ05BVmTL0LS2FUiyJq8p4lFWOaIKMwY\r\nvxGZky9EVF6TCMyrvUf2Gq9HbEETUmo2KKGZWLYAmSIMU+u2i0hbgMSq9UipWomMuo0Icycq/wYR\r\naQ3ImXKx2N4WxBdMRYIIugwRfTmzr0dS/mQRlTeI7a1D+rhViM9biJiylWLft8Kd04jM+q1IGbce\r\nMVkTYFMC8IR/AwYgkSoxAInU5BQBKMVGJSHUEYGYmFSEBHsQHZWsjABNiM9AVkYeHGJdGX1pyVlw\r\niD/8ciCIxxOP7KxCJMSlKt83i4tNQ05mAcIcHmWwgd2dhJVbtqMgtwBR4XHKadyUlFxlGzGRCXCG\r\nRon1i5AQm6JsLyUpGxlpOUoIhYl5uTnFiI44NujkXBPmFu87OAJhrkTl+41Oj/jZ7kJoeCbC44qU\r\nsA52xMIdnaMsrwzUcMTBE1+CsMgsMc2NEHc6whNKlO9LegeCRCK9fjuiU8Yg1J0s3rsLrqhcuGLy\r\nESa374iBJ65YGVhitbrhjMoXr1Wo/FvZg6MRnjgKoXI5qwsOOU2uH5kHT2yB+PcX+yCWcYnXD43I\r\nREhotHjMUvYnOCQGISHxCHEli/eVogSuMzoPbrHtk176hwFIpEoMQCI1OU0Adl72RXmUo0Q7TrnK\r\nR6sc0CGeK6NOO6ZL3tG6YScsK0enyvnitRyRKCgcpXy3rTPilFGrYjmpc7Tviesf2/ax9c5JSrA5\r\nxb56Hzt/lo/KaFtlGTnytuuoXDFdHk1TpnUuK4+udaxr8yA8qVyJbO+IXbG+/Ewk8bNDfh4dP8so\r\nV7Yjnh8d9CFH+3a+dsfrO8S/kbJOxzJyUI3cp85Rwd7Rxd730Un5uWO5o9s6EQOQSJUYgERqcpoA\r\n/GGIiJOXf+l2Hp2MEmhKDHY///tSjkyeDQxAIlViABKpyRkEoDzqRNSpu9+R44hlGIBE6sMAJFKT\r\nkwRg59Egm90Js/hjbjIJ8pF8mlkehTxdBDIAiVSJAUikJqc6Aij+kBuNdmgCDeTDAv11Cq14Ln9n\r\nTPJ7gycbACIxAIlUiQFIpCanCsBgN/R6m1jO+4ef1C0oQK+Enoy+zufy0RnqQbg7Ghrl98AEozlE\r\nibxuf2ckBiCRKjEAidSEAUhCgJ8WEZ4YjKuegPqJUzBhfANys4uQmpyBLZu3oGnuPKQkZShByAAk\r\n8k0MQCI1YQD6PHmkLy01C81NC1E1ZhwWzGvF5IZpqKkej21bzseVV1yFFctWomHSNCUUjSYGIJEv\r\nYgASqQkD0KcFBRrgDA3HgvltsFtDMX3qbLidEagdNxGTJjZgx4UX44rLrsTG9ZsRG5OEQB4BJPJZ\r\nDEAiNWEA+jT5fT+bCL/mpgWIiogV0TcV2Zl5aJw1F1dc7g2/9LRsGPRWZVl+B5DIdzEAidSEAejz\r\n5CngcHcUGmc3YfrUWVi6eBm2btmG1avWIDsr/+jAEPm7wgAk8l0MQCI1OUUA2jsDUDny0826pBoy\r\n8owGC3JE8NVU1aGkqAwOe5iYrj9hWQYgka9iABKpyUkCULnHrwxAgzwC2M16pDryKJ8c5OHvp1Ee\r\n5Yjfby4nApCDQIh8EgOQSE1OFYDiD7nZEnL01B+RTmuGxRLGACTyQQxAIjU5xSlghfhjbhOPRJ1O\r\nGX8SA5BIlRiARGpyugAk1bCLf2ezydHtvG+j8z7RJ8UAJFIlBiCRmjAAfYLN4kRsdBJqx02A2fj9\r\nI/CUGIBEqsQAJFITBqBPsJpDkZaajXfefhfzmhfCqLch2Nr9st8bA5BIlRiARGrCAPQJMgCTEzOw\r\nd+9efPXlV2iaMx8GnYhA2w/wb88AJFIlBiCRmjAAfUJnAH76yaeQ/x05fAQL5rfCIi/p0s3y3wsD\r\nkEiVGIBEavI9A1C5XMwJlHny9OIZnmL8wbbRuf533Iac5jhb25DPv8c2jq77HbdhNYchLSUbb735\r\ntvAWrrrqakyoaxDLdv9vf+L6UnfLdYsBSKRKDEAiNTlNAFpFcFgtzi7kgILjyWldfWO+3EYXJ85X\r\nljnBN+af7W10M19Z5gTfmPctt9HtvNNso+v6J53/LbdhFgEYE5OCutpJqBPht2PHJQgKktf0E/+m\r\nZ7SNrr8DXjaxXne/MwxAInViABKpyUkC0G5zK0eb0iPCURwXiaJYr2JJ/HyczuknmV8kielHt3HC\r\nfEXnuieZ/z/ZRue6nU6cLxy3fnfLdE4/2XzhuG10M/902/jWn0XHcoUxEciNcKIsOQ4XrlyMssSY\r\nLtuJEOt10bHe8duIOKpYiA9zw95dBDIAiVSJAUikJicJQKvFg0yPGxOSXYh3WJGksCEx5JuSvqVz\r\ndRvdLXM6PWYb4t/u6L9hsBVRFkOX6d9c/+TbEPOE9FArJmbGIzS4m9PDDEAiVWIAEqnJSQLQYnFj\r\nVLQThWEa+AWYEBRoVAR+B53rchvfXP9sbKO7ZU50qnW+yzYC/fUoTklCRKibAUjkIxiARGpysgC0\r\nulAqArDYqRF//OV9YLtZ9xyiEWSYyMfu5tPZpQk0MACJfAwDkEhNTnoEsDMAted8AAYGGGHR6uEy\r\nGmAQYaIR+6vrZrkfk9wfSe5rUJfpPRUDkMj3MACJ1KSHB6A8NZnhsmN5aRxaihPRVhADt0EeCTQp\r\n8/z99SK6DN9YTx4pDBDTA8R8eeRQTgsSURPgL4jpnUcS5bryZ7mdzuU6p8l1A8U6x21P6FxOIx47\r\np2nFc414zA53wK63iGVMx83vXEc+91d+/uY+n0sYgES+hwFIpCY9PAD9Rehtqk5CmdOCkcM1aEhx\r\nY3pCqAg2A5JCbZiYFIpcMU/XJahkbDlMJoyLD0FNbDBC9SK8xHy3xYwJiaGoirbDppVH6gzICreh\r\nPMqOCQkhiDLJ4BTTnFZURIhtJ4Yg3uqNUIPWgLKoYIwXy4WL5QLEZ+YwmFEtXmNcnAMh4jWi7SZc\r\nPiEeM5LDYBTbNusMGB3rQE3H/ECNEbliG3XxwUgPsSjb7fpezyUMQCLfwwAkUpMeHoABIpJqk91Y\r\nOyoOJeEOOPV6WDQGZeTy2tJI5LttWFMWhZxQk7KsPFKnE/G1uCgStXFhmJjmwYKscNj0BqyriBGx\r\n58CUDA9as9zQBgRhw/gkzE73iNdwYllROEb6GbGlIhLL8zwi3kKwtSwc+gAtJqSFY066CxVi2nrx\r\nehYRcwsKYjA+PgzjRZS25USIyNNh05hYEY9h0IuAWpAfgWlJYZgggnB1SRQ0OiO2NaShWbx+uEUe\r\nJez+PZ8LvAGYjIgQjgIm8hUMQCI16eEBqAsyQeOvUy5T0pAegdWlMUiymDBJBNnF5TEYG+dC+6gY\r\nVMY54S+/fyeiym23YaeIPYu/VglCt8WKksgQbBOB5zdCA4veiB1jokSwadBeEY0wkxlGm008j0VQ\r\ngAnrCz3Itehg0ulx/mi3stzWqnjMFuFWm+TG9tFxSA8xYW1VIgxy/8TnF2s1i3U1aBHhGWcNhtlg\r\nxxV1yZia5EKDiNCNlfGwmC1YNjYGoQZ5Kvjc/t4lA5DI9zAAidSkBwegjDeTzoim3GiEaA0YMiwQ\r\nDSnBaM9xYWyiEyszw+AM0iDKqINdK0JMLC8DMEyE1iUi7ByBWpj1BmS4gpHltuOCsmhoRmrgtBhw\r\n4ehIBGs1WCZC0WWxwBRsw5KjARiBPKseFhFq51eGI1ivxaryOBSFGuAU60QadAgW0bh2bILYhh5m\r\nsW/57mBoA7RYVBKFeKsVRr0VF1YlIMuqgUunRbjRAK3RjOVjYxFqlPvJACSicwsDkEhNevgRQBki\r\n9enhWFwQjZp4J1aPikZ+qAV2gwnLS2MwKdmtBGK0xXz0lKocfNGQ7kZzVriYF4GGpDAxT495eZGY\r\nme5BW2EkxseFiuW0aBHbcIpgtNjsWFAqAlCs254fIcLNIALQhHWjwmHR6JAfFYrlxdEYn+zC1IwI\r\naMVnNiHVjfnZHjTlhGNashP+fnpMz4lEY7oLBo0eNWLfFudHYVKqB5NSIqDRGdAiIrMnBWBkiPub\r\ndwNhABKpEgOQSE16eABKcsRspM2C5FAb3CazMtpWnna16k1ICrUi3Cr3Xw4CkY9e8tRxnMOGGLtF\r\n+U6gHPAhB3IkhFgRI7alFUEotx1mNotYM0OvNSHMZIJGI6aJ15CXndFrjeL1TNCLz1Be2iXcakGS\r\nWD9Y7z06qRdiHRbEBYv1xfbkNJuYlxBsgVEOMhExGWWzItlhhU3En0ZjEK9nEq/X/fs8l8gALE1J\r\nEQEY/o3fHQYgkToxAInU5GQB2GMuBO0NOhlT3rtVdESeiCgZgcq0E+JPridjLDDQrMyXz5XllWne\r\ndZRpcrvKY8d3DcV0nVhObk/Ol9O8RxXl6eVj+yCfy3lyPTlqOEA8erfnfexcR1lPvJ5ySZiO5c/1\r\ny790OhaAHp4CJvIRDEAiNTlJAJplAMaEoSQ06LhbwfksEWjysTPgvM87PpfORx8SGKBHiQxAXgaG\r\nyGcwAInU5KRHAJ3IiXBhXFwwwowGuE1d6cmHucTvQKTZgNqMBLgcPAJI5CsYgERqcpIAlH/UQ8T0\r\nUYnRmJybhMk5iR0SxM/k27y/B1nhbvG7c/zvjYIBSKRKDEAiNTlJAEo2QQ4GsZrFc4uTqENYB6f4\r\nH4VufncYgESqxAAkUpNTBCDRd8IAJFIlBiCRmjAA6WxjABKpEgOQSEV0IgDtDEA6mxiARKrEACRS\r\nGbs1TPzhdn/zDznRdyEC0Giyi9+tnnFNQyI6MwxAIlUxwGwMVv5oy0Ef3f5BJ/o2xO+STmfp5neN\r\niHoyBiCRyug0ZljlaWDxh7vbP+hEZ8ghT/+aQo7e+YSI1IMBSKRCMgItZgfsdhmC4o95sIjBk5Lz\r\nuzrb889kmdPNP5NlTjf/TJb5tvPPZJlvO/9Mljnd/DNZ5sT5XYjfGZs1DCaDPPXrva0dEakLA5BI\r\nzbQm6LRmL103Oud1dbr50umW+Tbzz2SZ7uZLZzr/ZMt8m/lnssx3mS+dbpnTzZdOt8zp5h9HRJ+G\r\n4UekZgxAIp8hv8R/ojNZ7tvOP5NlTjf/xGVON/9Mljnd/O6WOd38E5c53fwzWeZ0889kmdPNP9ky\r\nROQrGIBEREREPoYBSKRi8rqA8nRe96f5iE5B/O5w8AeRejEAiVRI/vE2Ge0wEn1HJpN4NNi6/f0i\r\nop6PAUikMjL+zKZg6HntNvo+xO+RDEAZg93OJ6IejQFIpCI6wWi0waC3djuf6NuSdwHh/0wQqQ8D\r\nkEhF9II89ctLeNDZIi8bY+CpYCLVYQASqUjnd/+6m0f0XcgBIQajTTm63N18IuqZGIBEaiL+WDMA\r\n6WxSAtDAACRSGwYgkYrIP9YMQDqbGIBE6sQAJFKRHzMAgwL0CPDTKuTz7pY5kSbQIJY9u3elONlr\r\ny9cK8NMh0L/rfAM0ATqFVsw/fnmx3AnT/meU1z3xtX+c73UyAInUiQFIpCI/VgDKuHJ7YlFcNApF\r\nBSVwOZwI8jcgUMSgRgSZRsSMjC9NgByoYlYGq2j8ddAbghEZFo5AJR7F/MBj25RhGCiW0QaalOdB\r\n8rmYrizr741MZZoINfkol5UXLg4JjfAuJ0KvM/bk/hmNIcjJLkJSfCI0GjldxJ/GBlt4ERxx5dCb\r\nwo7FoHg9kz0ORovbu76cLl5HIyLM+1zuowgyGYky1ALlfuiUfdLIoNV0vo+OwBSPOhl1cttymtyW\r\neB7UsU7XaXLbBlOk+GxCxPLy89OK+WbhxxmJywAkUicGIJGK/FgB6D9Sg4YZc9E2ewpGV47H6uUr\r\nEGpzIiU5E64QF0wGO5ISUuEWz7UicIJE1IWKUBtVMR6N42uhNwYjJSkDdrNdBJCIPcERFonU5AyY\r\n9TZ43LFISUiGQWdGhCcGiWJbHnckEuOSYBdhFx+ThMTYJAQHu7B8zTY4HW5ERCQgNjJWeT15VLJq\r\n3GRMGN+ABQsXIS46Fv5imid3DqILZyEsdSISRzVBG5wAiydH7I8HkblNsLtTESj21ezOgtERA50+\r\nGGZPLozWKASJKDNaI6HR2WGwx8Bki1DWNYWIwJSfi3gPOoMT9sgCGCzh0Ilt2iMKoDWGQW+Nh1Uu\r\n60hUHrVGF4zB8bBF5Il1PEis3IjQxArozJEiULPFv6v8N+URQCI6exiARCryYwZg/cwmrGtvxfTp\r\njWieNRsV5bWYPasZS5YswdgJs7B25VpMqh4Hjb8GTlcC2pcsReOcxVg4fQZmz1mA5jktWNLSCr0I\r\nHavdI0JtKeonTMb4uolY2NSMKdPmor5uAtatWoU5jc1YtWwZ5i1YiqZJc7Ftw2ZMmzoPUydOxOqN\r\n56OubrJ43WVobVuG7JQ0BPobYLM4EOqJR0vrYhGlTiXSEms3KvEZ5KeHVheMmKq1iCtdiJiSxYgt\r\nb0dKzQZEFs5HgpieOHYtInImIH3CJlgdIiADbIgvaYTOHo34sauRXL0Y8aMXIal6PUyWUBGAVsSV\r\nLxWBORvhuTMQX70RMfmzEF3WhriqTYgvW4rc6VcipnQB3AXNSK3dgOiiZiRUrkXG+EvgzGtCQvUG\r\nxFWuQkLJ7I4jhd1//j8kBiCROjEAiVTkRz0COKsJcybXIioyBkadBVOnz8Oc2fOwcdM2ZBVWoqWl\r\nHSsWtcKgMSA5bRTa5s6COyINC2bOxZYtWzFl8gwsWdwOi96K6OhkNM+dD6N4Pk2E5cQxlQh1paK9\r\nRQTjgmbEJKahrn4KMoqrsWr+UsyZNh2R0TlobWrEzLktmDFzoQjOVZjb3ILi3AIEisALGKlD+eha\r\nZCbLINQhSIRmfNU6WF0p0BoiEJk1CdFV62ENSUdS7WWIGrUE8TVbkDH9J4irXouYsesQUdoIZ2od\r\nNCMDERBoR3z5QujC0pA0fpuIxRZYwtMRXrxcCUSd1oOU2q3wN7gRmjQJKZMvQZAuDAliWnL1Gtgd\r\n6UgTUWh2iXVGtYtttcLfHIuEmvORXLEW1qz5yJx5HcJLRVSOaRHbs/woEcYAJFInBiCRivxYASi/\r\nv1c+tg55STHwGx4oppkxa/YCNDU2YZ6IsHwRgHMb52HujBkiAE0wGB2YMWselixahUmVo1ExZjzm\r\nN7WgflwtdAF66HU2TJ7SiJb5C1FRUopGsW7rgkUozM7HxNo6EXsJKBlVicT0YjTWN+Hyi3eiae5C\r\npCUmYfL0JpSWjEZj00Ll9SNdHuXoWWCAGdk5JXDancopZvndRIsrDwljVyNu9Ap4UirhzJ4Gmy0K\r\njrgxiKtcgbiiObBHliC2ciViSuYjJC5fzCuGVn4H0d8EV3oD4sasRnLVCsTm1cHijIczfSrMtgho\r\n/PXK/ISqNYjInQlPXjMSx6yEO6Me4dlTYAtOQnzBHFhC4xGWMQXpDRcivno1PJn1cKdOQlimiNqC\r\neWI/lsMdX4rS0kq4Q91iv08cHPLDYgASqRMDkEhFfqwAVMi7j2g740Q8lxelNtk67kpigtXkgK5j\r\ncIT8np88BWs2Bov5cgCEETZTMHTiUacMmJCP3vcSKOLSoLXAYrAqgyQM4j3K08R68agJMCEhOh+z\r\npk6DXmNRBojodBZvtIhHswgX+Vqd+yi/Q9i5D0rQyIEXOvG6yoAL8Vy8jrKsfH05TSNfQ+yPWEar\r\n9d5eT6O8n473EWSBXi+XE4EkXl9533IbYhn5PuRr6wxh4v2YxHMxTTyXj1qNVSwvybAyI0jvRmzx\r\nbOgsIlaVgSViGb1dvJbYvtgP+XkY9TbxHo+99v8KA5BInRiARCryYwagN+qEriNghWPzjy2r/KxM\r\n63I0q8vzztjoXEcG0LH5XdYRZPiZ9CIOO+YrAzAkZZ1jy52cXE+E2gnTu+575zLHnh9bTtmvU72O\r\nmCe37Q3OruvKSOx8r+K5CL5j845/vRP37X+JAUikTgxAIhX5UY8AnswPfNRKCc/jwurcdiyQT3Ru\r\nvgcGIJE6MQCJ1ORcDEDq0RiAROrEACRSkXPyCCD1aEoAGhmARGrDACRSEZ3GxACks0qnM8PII4BE\r\nqsMAJFIZk/hjbdBbTxhwQPTdGMX/UOjlyOpu5hFRz8UAJFIbjYhAk90bgT/CZUNIHZSjyeJ/JowG\r\n7+VvGIBE6sIAJFIj8cfbaBR/vE0OGIzBRN+aSZB3YvH+TvF/JIjUhgFIpELyaI1yxEaEoPwSvyRH\r\nCBOdjvL7ohHPu/w+EZH6MACJiIiIfAwDkIiIiMjHMACJiIiIfAwDkIiIiMjHMACJiIiIfAwDkIiI\r\niMjHMACJiIiIfAwDkIiIiMjHMACJiIiIfAwDkIiIiMjHMACJiIiIfAwDkIiIiMjHMACJiIiIfAwD\r\nkIiIiMjHMACJiIiIfAwDkIiIiMjHMACJiIiIfAwDkIiIiMjHMACJiIiIfAwDkIiIiMjHMACJiIiI\r\nfAwDkIiIiMjHMACJiIiIfAwDkIiIiMjHMACJiIiIfAwDkIiIiMjHMACJiIiIfAwDkIiIiMjHMACJ\r\niIiIfAwDkIiIiMjHMACJiIiIfAwDkIiIiMjHMACJiIiIfAwDkIiIiMjHMACJiIiIfAwDkIiIiMjH\r\nMACJiIiIfAwDkIiIiMjHMACJiIiIfAwDkIiIiMjHMACJiIiIfAwDkIiIiMjHMACJiIiIfAwDkIiI\r\niMjHMACJiIiIfAwDkIiIiMjHMACJiIiIfAwDkIiIiMjHMACJiIiIfAwDkIiIiMjHMACJiIiIfAwD\r\nkIiIiMjHMACJiIiIfAwDkIiIiMjHMACJiIiIfAwDkIiIiMjHMACJiIiIfAwDkIiIiMjHMACJiIiI\r\nfAwDkIiIiMjHMACJiIiIfAwDkIiIiMjHMACJiIiIfAwDkIiIiMjHMACJiIiIfAwDkIiIiMjHMACJ\r\niIiIfAwDkIiIiMjHMACJiIiIfAwDkIiIiMjHMACJiIiIfAwDkIiIiMjHMACJiIiIfAwDkIiIiMjH\r\nMACJiIiIfAwDkIiIiMjHMACJiIiIfAwDkIiIiMjHMACJ6DswQOOvQZCg8dcePy9QzAvQewXqxc/y\r\nue74Zb4PsT3ldQOOve6Zbr9zf+Q+Hv35hGW6I5cLFO9HPg9S3lf3y30fmo596o5GOsV8IqJviwFI\r\nRN+SCDxdKELjR8OVUgVHVD40GhO0IsJkiOkNwTCHxMEakgCTxQ29KQL2sCRojy6jh06JMLEtETU6\r\nGTYd63b/el2IZfXmCDiTKuGILoBOYxZhZII1LAU6nUWZr4Sh3KYk1umMPhluFke0WN8DgzFEmW5z\r\nJkOvt4nlThZXJrGcESEh4Yh0hyPQXwePOwYWo1UJQiUGxXKdcSYfJTldvj9dx3a8y4p54rmcJ5/L\r\n6d7n4vMQ78NhD1U+l875cl3lub8eZmMwrGaHMl1Ok9uW+9W5HSKib4sBSETfTqAWGnsu0qdeDVt0\r\nGRLG70BIbC4MjmSYRYhZw+IRWTEP9sgixJe3wJXbjJC4MmgMLtjcOTCJMNSJiDPogmEyO0WAhcIc\r\nnAyLM00Ekrn71+wg4y6yfAXCc6YjsnQJwqLzxLZiEVU0H1qjAxq9C9aIAphs0TBZI6EVoSqf6+2x\r\nMLhyERxVIPZnAaJyJ0NjciOqcB4MVo+IKe/RvW+ywN/PiKLiMdiyfh0sejMmNcwWMehBWFgkItxR\r\n4n1YEGwLgU5vh93qgN3mRnREPCwGqwg6GYEWhHvEProjoddaEBmRAKfDA5PBBo8nGlGeKDidMZg1\r\nYyaclmBERcbDExauBKzLGYUIZwTyskehsrwSRoMDsVGJsIn3GmxzIiYiBia9VQnC7vefiKh7DEAi\r\n+nZEAAaJAMxuvAkxhbORVLcVEXlNIvbaEFOyCDFF0+Ac1Yy48iVIHbcCESUrkTJmNSLL2hFdMBdJ\r\nEzYjVIRXiCcFkVlj4cqbi8TqLYgZsx7ulNHfPKXchTxK6EisQ9LYlYgpXgiTKxuxYzchonQZYiqX\r\nI75iJSJzZ8GTOVm8/nzog7OQUrYUsePWwpU/R+xfM8LL1iK+rE2stwaekmWIG73Ue3Sy26OAZhGA\r\nBhTkl2NuUwsm1IzDxInTUFwyGhPG1WHM2PEYV1mOsRUlsLiSUDV2NKbUT0P9xAYkxyciYEQQ0jKK\r\n0VA7EcWF5WL+RLHsWEysa8CY8tEi+mahproe5WWjMXfOHOSmpmN0RQ2aG5uQn1OACXWTUVowCuPE\r\nenV19ZgwaTpqqsZh/LiJmFA7HtXlFTDrLUePQBIRnSkGIBF9O4E6aOz5yJh6DYKjiqAzOuHJbYEn\r\ntRrWqBqk12+As2weYsesQWJZI8LSG5FRewGSGi6F0RqHyJIFcJYugSOqAJEFIsrGbULapIsQVSyi\r\nLLdG+W6hPPXa7WuLIAtNHAOtPQnuglbEiuhLm3oFInJEiNZuEq99MXR6B2yRhYivaofeWYi0qnWI\r\nrl4tYjARMaPmIDR3jgjPZqROuQrh2bMRV9kOnU4eRes+ovz9dErw5RcUo7yiFmvWbMD4+hkoycxA\r\nZFwWFs6RUVaB0Kh0TKodi5LCUkydOgMVRcXwG+6H0VX1yE9MhtXmQVNTGyLDnBhVNhaNM2aK7VYg\r\nIaEAVZUVqKquQUFOHsZW1qCtpQ1TG+pRlFsEqykEowrEdksrMX9eK0qLRqFu3CTU1YyF2+lCoHLq\r\nnAFIRN8OA5CIvh15utSahuiCJhEf8jt3OpjsqYgrWyoCqwVhcfkIyaqDO2c63KljEF6wGLGFc2BP\r\nrEFc6WKkT7kctrhqxJcvQfzYFTDHVCC6uAXRYl17eCo0IjC7fV1Bfn/Qld6AxDHtSBi9BNbwXHhE\r\nxMWOaoMrrRbOtAbEly2GJ30cwnNnIra8HUnFc+HKmQa9LRrujBrY4qsQlT8LHhGNsSJEw7MmQnOK\r\ngAr01yMtPRepKWkwGEIws3E+4mOTUFNdh5qa8YiLjEa1eF5bN1lEXwGKiyrEvPHIy8hCoF8g3J54\r\nTKwdj5rKamSm52NczURUi+fpqenIyMhDVGQastIzUVFZi+qKSrFcDabWNyApMR1VVRNQM6YGmSmZ\r\nKC8fi6JiMb+qDkUFJcjLzkZoSBiCePSPiL4DBiARfQdmaLXWjlOnckCCiEKtHVqdXTkdqZGDMzQW\r\nEVZivs6hLKsM/tC6EZnfDJ3Z5V1WK09fiu1pbdDqHWd0KlMZ+CBCTFlfDh4R+6IzhCr7ECS/c6c8\r\nlwMuxHS9WE7sh1a8jlbsk3zunS7WPbpe96/TlU68T0luVz7KaXqdBUadWRngoRPbN8rv4mnE8uJ1\r\nzAab8n7lcnLQhlzWoPUuaxTzdGI5OSBE2ZbCuz29eC6/GyjnH3sNi7IN+V1D+XmajeJz7rIfRETf\r\nBQOQiL6jE2NN/tx1WufzrtNFSIlwU6JHib3uljkTJy7f3fPOZTp1zu8y7wyC81S6xmPXeD1VyJ7q\r\naKN04royFI/7+XvuMxGRxAAkov8tBgwR0Y+OAUhERETkYxiARERERD6GAUhERETkYxiARERERD6G\r\nAUhERETkYxiARERERD6GAUhERETkYxiARERERD6GAUhERETkYxiARERERD6GAUhERETkYxiARERE\r\nRD7FiP8H/bxydA51FDwAAAAASUVORK5CYII=",
    "Title" : "soutenanceFinale",
    "audioNarrationNotes" : "",
    "calloutStyle" : "Basic"
  }
}
