<svg id="Calque_1" data-name="Calque 1" xmlns="http://www.w3.org/2000/svg" viewBox="0 0 200.1357 267.3679"><defs><style>.cls-1{fill:#080401;}.cls-2{fill:#f08026;}.cls-3{fill:#d42d17;}.cls-4{fill:#aaabb4;}.cls-5{fill:#fff;}</style></defs><path class="cls-1" d="M243.498,352.4475c2.287-3.4557,4.9052-6.0853,9.1507-5.2856,6.0225,1.1343,6.6409,5.6738,6.6884,10.768.046,4.9294,2.269,9.4085,3.7145,14.0366a.692.692,0,0,0,.4518.4213c3.3477.28,6.6976.5325,10.1353.7971-2.1646-13.957-1.5347-27.6632,3.1933-40.9467,8.3953-23.5866,25.08-39.4915,47.27-50.1021a7.0713,7.0713,0,0,1,7.9238,1.2164c2.3022,1.9278,3.5352,4.59,2.5982,7.4093-5.3364,16.0562-.7958,30.7835,5.9057,45.1853,8.5455,18.3646,19.86,35.221,29.19,53.1683,19.7312,37.9539,20.5841,76.0378-1.5886,112.8787-18.0974,30.0695-46.8916,44.5467-81.2432,46.5739-35.3082,2.0837-65.08-10.7169-86.6793-39.27-25.9035-34.2442-18.8351-88.9724,14.3834-113.1228,5.0782-3.6919,2.6114-6.9755,2.0818-10.5523-2.3612-15.9462,2.47-29.5447,13.0751-41.3109a7.0911,7.0911,0,0,1,8.0221-1.8727c3.2718,1.137,4.9122,3.6261,5.2909,7.0152C243.16,350.3387,243.3166,351.217,243.498,352.4475Zm95.9826,73.9706.0374-.0106-.034-.03c1.4216,1.46,4.1964,1.3362,4.6274,3.9551C345.2977,427.6743,344.1342,426.6909,339.4806,426.4181Zm-90.1779-52.9234-1.9588-1.0826A25.5763,25.5763,0,0,0,256.51,382.67l4.5842,2.5932c-18.6867-5.0519-23.4637-19.3036-25.9785-35.5163-2.9489,4.2065-2.4543,8.5657-2.2649,13.1944l-2.9349-4.8542c-1.7212,6.8518-4.13,13.4615.3107,20.2057l-4.5453-4.7912c-.4813,7.33,3.0448,12.6709,8.96,16.9724a25.9324,25.9324,0,0,1-8.618-4.0119c1.6459,1.8889-1.5518,6.53,4.0426,6.2626,3.6885-.1762,7.4154.4522,11.1287.7206-17.5687,4.4592-33.1891,10.7545-36.1385,31.0472L203.992,418.9c-6.5155,7.1493-9.0347,20.2622-6.481,35.55l-3.6084-8.2649c-1.93,11.994-2.7946,23.9134,5.2893,34.47a1.2775,1.2775,0,0,0-.1192.1111l-5.103-4.4363c2.8927,13.7533,9.3169,26.225,21.8194,35.0719l-6.7659-3.3889c11.746,13.974,26.4939,23.0678,44.03,28.8344-12.6652-9.5942-21.6623-21.1356-25.677-37.6843.6072,1.3707.6786,1.5051.7279,1.6471,3.7248,10.7243,10.5571,19.1282,19.2986,26.1812,8.2616,6.6659,17.8322,10.9249,27.796,13.8345,5.915,1.7273,12.4672.428,18.6928-.4991a5.996,5.996,0,0,0,1.2248-.4671c-.3975-.7657-.0022-1.9516-1.1411-2.3171a69.0848,69.0848,0,0,1-17.785-8.6374c-5.2592-3.8575-10.1966-8.0484-13.95-13.466l.1407-.1519c8.6484,9.01,19.2185,14.5059,31.7608,17.3315-14.2226-7.7929-19.8267-20.2483-20.695-35.2527-.7843-13.553.8314-26.5626,11.5654-36.46,8.9384-8.2417,20.3635-10.4081,31.819-11.9765,10.3945-1.4232,19.6321-4.588,25.85-13.69l.1062-.196-.2127.0024c-3.1906.4529-4.5045-1.69-5.64-4.0789-.5131-2.1657-.3-5.41-1.6561-6.324-9.6194-6.4853-15.0751-16.5568-22.23-25.1193-2.9952-3.5843-5.7688-7.3276-9.2442-10.4779-3.2445-3.0429-6.8628-5.7636-11.2953-6.298-8.82-1.0635-17.6935-1.9887-26.5649-2.2279-6.0718-.1637-9.45-2.3116-11.0945-8.288-1.5612-5.6744-3.4564-11.2191-3.4414-17.61-2.4888,4.68-2.2472,9.0279-.2465,14.1417l-3.65-3.6447c-.4522,2.9108.501,5.6667,1.81,8.3507Zm30.7826-17.56c.1255,4.3273-.929,8.861,2.1054,12.7529l1.6066-11.7816,1.8412-9.0412.4954,9.5459c.9382,5.1774-.7788,11.0976,4.3083,15.7043a76.6189,76.6189,0,0,1,1.5944-14.638l1.2506-4.4834.3048,4.7083c.0818,9.8677,3.6432,17.9356,8.7125,19.71a30.1692,30.1692,0,0,1,.4777-11.1889c.8113,7.38,4.5,13.0765,8.2736,18.9921.1171-1.0958.188-1.9483.3043-2.7945.1134-.8251.2732-1.6439.3215-1.9284,5.1653,14.82,15.0659,26.4765,27.5275,36.2288,4.4748,2.3262,9.0018,4.5593,13.4,7.0215,1.9319,1.0814,2.2476,2.8138,1.0532,4.8745a81.4321,81.4321,0,0,1-8.5639,11.976c-7.2864,5.731-10.7064,14.56-17.3857,22.1383a39.458,39.458,0,0,0,3.3863-13.4958,8.5065,8.5065,0,0,0-3.751,4.1251,35.388,35.388,0,0,1-7.18,10.7445l.0131.0159c.4306-2.6329.8612-5.2659,1.3391-8.1885-2.4662,1.5742-4.8165,2.4854-5.8006,5.3952a30.8157,30.8157,0,0,1-5.5726,9.5227l.0109.0184c.797-3.9627,1.7318-7.9079,1.6188-12.1366-8.5734,3.607-7.09,13.6734-12.3894,18.4307.691-4.1517,1.4937-8.9752,2.3536-14.142-2.5538,1.8029-5.93,2.8974-6.7262,4.9791-2.9173,7.6251-6.1928,14.99-11.8184,20.9383-2.3325,2.4661-1.8492,4.5176-.8341,7.0947a65.4678,65.4678,0,0,0,22.8521-18.7714,68.7546,68.7546,0,0,1-20.21,24.6792c-1.1988.9275.2093,1.5712.3128,2.3551.0174.1316.6875.3391.9729.2488a48.9071,48.9071,0,0,0,11.9926-5.8284,40.6038,40.6038,0,0,0,11.8983-12.0186c-4.9771,11.1-12.2537,18.0627-21.6925,23.5358,2.3156.8537,2.41,4.8611,5.8147,3.3528,10.7179-4.748,20.4482-10.75,26.6583-21.9868-2.34,7.2981-6.6417,12.5514-11.4817,17.4492a87.6731,87.6731,0,0,1-16.6445,12.1287c2.1249,1.4655,6.1839,3.0412,6.9769,2.7186,11.69-4.7547,22.6518-10.4867,29.3565-21.92l-.0149-.0131c-1.02,4.1624-3.4267,7.5721-6.0524,10.8153-5.5056,6.8-12.428,11.9226-20.0725,16.4725,1.8023.5913,3.19,2.374,4.97,1.7331,9.08-3.2685,17.3681-7.7171,22.5511-16.3878l-.013-.0128a38.12,38.12,0,0,1-1.8276,4.2288c-3.433,5.9411-8.5645,10.2168-14.2129,14.0714.4577.2613.6577.52.1486.9158,19.8052-5.5669,49.0965-30.891,51.3883-44.3612a48.498,48.498,0,0,1-17.5134,9.086c17.4084-8.3788,25.1948-25.5287,26.1274-35.5515a43.9069,43.9069,0,0,1-8.46,9.4731l-.1284-.1275c8.5078-10.7835,11.1761-23.1713,10.1411-36.4925-1.1443,2.3622-2.3144,4.7774-3.4844,7.1927l.0069.0065c.4313-2.5416.8884-5.0791,1.2894-7.6255,1.62-10.286-.86-19.8744-5.0379-29.38a56.0388,56.0388,0,0,1-3.5863,17.5852c2.5021-15.5877-1.34-29.27-8.3989-42.2922l-.0462-.0214.0564.01q-.2144,4.742-.4288,9.4839a80.6273,80.6273,0,0,0-4.1864-15.94,78.746,78.746,0,0,0-7.6761-15.0671c0,3.0765.0559,5.6972-.0159,8.3144-.0706,2.5746-.2708,5.1455-.4142,7.7181-.983-7.0812-2.0467-14.0521-4.2893-20.7991-.641-1.9954-1.1689-4.0358-1.9425-5.9784-3.32-8.3364-6.8727-16.5839-10.0229-24.9829a59.9434,59.9434,0,0,1-3.48-18.6244,88.7367,88.7367,0,0,0-3.7477,34.5174c-.5328-2.1934-.8186-3.3649-1.1-4.5375-.0263-.11-.021-.2263-.0371-.3388-2.0858-14.5426-1.5161-28.86,3.6243-42.7906l1.0855-2.7536a93.8692,93.8692,0,0,0-20.8081,14.7364C288.968,319.0055,280.5358,335.6262,280.0853,355.9349Z" transform="translate(-184.5044 -281.4186)"/><path class="cls-2" d="M303.8036,389.0468c3.4754,3.15,6.249,6.8936,9.2442,10.4779,7.1551,8.5625,12.6108,18.634,22.23,25.1193,1.3566.9145,1.143,4.1583,1.6562,6.3241a88.2013,88.2013,0,0,1-19.36,2.5868c-11.7258.3186-23.4991.1863-34.7978,3.9626a62.8921,62.8921,0,0,0-26.5892,16.663v-5.72c-10.6462,8.19-13.611,19.2385-12.7566,32.0033a17.3065,17.3065,0,0,1-5.6173-5.7728c-2.5686,10.06-.7667,19.012,5.4345,27.1706-2.5317.0983-4.7951-.5159-7.9094-1.8608,9.2881,16.9,25.2361,22.6688,40.852,28.9048a69.0848,69.0848,0,0,0,17.785,8.6374c1.1389.3655.7436,1.5514,1.1411,2.3171a5.996,5.996,0,0,1-1.2248.4671c-6.2256.9271-12.7778,2.2264-18.6928.4991-9.9638-2.91-19.5344-7.1686-27.796-13.8345-8.7415-7.053-15.5738-15.4569-19.2986-26.1812-.0493-.142-.1207-.2764-.7279-1.6471,4.0147,16.5487,13.0118,28.09,25.677,37.6843-17.5358-5.7666-32.2837-14.86-44.03-28.8344l6.7659,3.3889c-12.5025-8.8469-18.9267-21.3186-21.8194-35.0719,1.3714,1.1923,3.2372,2.8143,5.1031,4.4362.0969.0768.1939.1537-.4548-.361l.5739.25c-8.0839-10.5568-7.2188-22.4762-5.2893-34.47l3.6084,8.2649c-2.5537-15.288-.0345-28.4009,6.481-35.55l1.064,5.5916c2.9494-20.2927,18.57-26.588,36.1385-31.0472-3.7133-.2684-7.44-.8968-11.1287-.7206-5.5944.2673-2.3967-4.3737-4.0426-6.2626a25.9324,25.9324,0,0,0,8.618,4.0119c-5.9149-4.3015-9.441-9.642-8.96-16.9724l4.5453,4.7912c-4.44-6.7442-2.0319-13.3539-.3107-20.2057l2.9349,4.8542c-.1894-4.6287-.684-8.9879,2.2649-13.1944,2.5148,16.2127,7.2918,30.4644,25.9785,35.5163L256.51,382.67l3.1151.87-1.8113-2.2022a122.3655,122.3655,0,0,0,20.3107,5.1666l-1.5438-1.932C285.8818,385.4319,295.1321,385.4821,303.8036,389.0468ZM277.18,404.4853c12.24,4.1092,24.04,8.9541,38,8.8406-5.7294-1.8565-10.0129-4.2115-13.6715-7.8381C294.2761,398.319,285.8278,400.4855,277.18,404.4853Z" transform="translate(-184.5044 -281.4186)"/><path class="cls-3" d="M366.1886,473.4461a43.91,43.91,0,0,0,8.46-9.4732c-.9326,10.0228-8.719,27.1727-26.1274,35.5515a48.5712,48.5712,0,0,0,17.5152-9.0824c-2.2936,13.4666-31.5849,38.7907-51.39,44.3576.5091-.3959.3091-.6545-.1486-.9158,5.6484-3.8546,10.78-8.13,14.2129-14.0714a38.12,38.12,0,0,0,1.8276-4.2288c.0733-.0128.1467-.0255.0181-.0032.0338-.105.0143-.0445-.0052.016-5.1829,8.6707-13.471,13.1193-22.551,16.3878-1.7806.6409-3.1682-1.1418-4.97-1.7331,7.6445-4.55,14.5669-9.6721,20.0725-16.4725,2.6257-3.2432,5.0322-6.6529,6.0524-10.8153.0354-.0633.0708-.1267.02-.0355.01-.1034.0028-.0274-.0049.0486-6.7047,11.433-17.6665,17.165-29.3565,21.92-.793.3226-4.852-1.2531-6.9769-2.7186A87.6731,87.6731,0,0,0,309.48,510.049q-.1855,1.1264-.3708,2.2523l-.04.0681.0416-.0662a81.7524,81.7524,0,0,0,32.68-58.92l4.9747,4.7108c-.5822-5.7629-1.1246-11.132-1.667-16.5011a81.4321,81.4321,0,0,0,8.5639-11.976c1.1944-2.0607.8787-3.7931-1.0532-4.8745-4.3986-2.4622-8.9256-4.6953-13.4006-7.0216-1.1047-2.83-2.0105-5.7585-3.3549-8.4694-2.7984-5.6431-5.8291-11.171-8.7643-16.7462l-.0045.0047,5.7675,1.8884a251.1229,251.1229,0,0,1-15.6888-34.7133,135.497,135.497,0,0,0,22.8257-3.6736c2.2426,6.747,3.3063,13.7179,4.2893,20.7991.1434-2.5726.3436-5.1435.4142-7.7181.0718-2.6172.0159-5.2379.0159-8.3144a78.746,78.746,0,0,1,7.6761,15.0671,80.6273,80.6273,0,0,1,4.1864,15.94q.2143-4.7419.4288-9.4839l-.01.0116c7.0587,13.0227,10.9008,26.7046,8.3987,42.2923a56.0388,56.0388,0,0,0,3.5863-17.5852c4.1776,9.5056,6.6576,19.094,5.0379,29.38-.401,2.5464-.8581,5.0839-1.2894,7.6255a1.64,1.64,0,0,0-.1361.13.791.791,0,0,0,.0715.08l.0577-.2167c1.17-2.4153,2.34-4.8305,3.4844-7.1927,1.035,13.3212-1.6333,25.709-10.1408,36.4926-.0435.0706-.0873.1409-.1308.2117-.0148.0619-.03.1235-.0451.1851l.1073-.12Z" transform="translate(-184.5044 -281.4186)"/><path class="cls-4" d="M276.19,528.9059c-15.6159-6.236-31.5639-12.0045-40.852-28.9048,3.1143,1.3449,5.3777,1.9591,7.9094,1.8608-6.2012-8.1586-8.0031-17.1111-5.4345-27.1706a17.3065,17.3065,0,0,0,5.6173,5.7728c-.8544-12.7648,2.11-23.8133,12.7566-32.0033v5.72a62.8921,62.8921,0,0,1,26.5892-16.663c11.2987-3.7763,23.072-3.644,34.7978-3.9626a88.2013,88.2013,0,0,0,19.3605-2.5868c1.1352,2.3893,2.4491,4.5317,5.64,4.0788l.1065.1936c-6.2176,9.1019-15.4552,12.2667-25.85,13.69-11.4555,1.5684-22.8806,3.7348-31.819,11.9765-10.734,9.8973-12.35,22.9069-11.5654,36.46.8683,15.0044,6.4724,27.46,20.695,35.2527-12.5423-2.8256-23.1124-8.3219-31.7608-17.3313l-.2648-.2417-.1465-.1565.0232.2654.2474.2845C265.9933,520.8575,270.9307,525.0484,276.19,528.9059Z" transform="translate(-184.5044 -281.4186)"/><path class="cls-2" d="M345.0988,441.5931c.5424,5.3691,1.0848,10.7382,1.667,16.5011l-4.9747-4.7108a81.7524,81.7524,0,0,1-32.68,58.92l-.0016-.0019q.1854-1.126.3709-2.2523c4.84-4.898,9.1415-10.1513,11.4819-17.4494-6.21,11.237-15.94,17.2388-26.6583,21.9868-3.4048,1.5083-3.4991-2.4991-5.8147-3.3528,9.4388-5.4731,16.7154-12.4357,21.6925-23.5358a40.6038,40.6038,0,0,1-11.8983,12.0186,48.9071,48.9071,0,0,1-11.9926,5.8284c-.2854.09-.9555-.1172-.9729-.2488-.1035-.7839-1.5116-1.4276-.3128-2.3551a68.7546,68.7546,0,0,0,20.21-24.6792,65.4678,65.4678,0,0,1-22.8521,18.7714c-1.0151-2.5771-1.4984-4.6286.8341-7.0947,5.6256-5.9481,8.9011-13.3132,11.8184-20.9383.7964-2.0817,4.1724-3.1762,6.7262-4.9791-.86,5.1668-1.6626,9.99-2.3536,14.142,5.3-4.7573,3.816-14.8237,12.3894-18.4307.113,4.2287-.8218,8.1739-1.6188,12.1365l-.1085-.004.0024.069.0952-.0833a30.8157,30.8157,0,0,0,5.5726-9.5227c.9841-2.91,3.3344-3.821,5.8006-5.3952-.4779,2.9226-.9085,5.5556-1.3391,8.1884l-.1075.0236.0282.0622.0662-.1016a35.388,35.388,0,0,0,7.18-10.7445,8.5065,8.5065,0,0,1,3.751-4.1251,39.458,39.458,0,0,1-3.3863,13.4958C334.3924,456.1534,337.8124,447.3241,345.0988,441.5931Z" transform="translate(-184.5044 -281.4186)"/><path class="cls-4" d="M339.99,356.0116a135.4891,135.4891,0,0,1-22.8252,3.6735,122.4481,122.4481,0,0,1-23.5724-.983l-.3048-4.7083-1.2506,4.4834-4.3712-.8239a3.733,3.733,0,0,0,.3893-1.0783c.27-8.9648,1.4822-17.7436,4.9568-25.9162l3.028,4.2924c1.1485-12.4008,7.25-21.84,14.3877-30.7157l1.2479,2.9959c2.0821-2.9243,3.9142-5.7378,5.9992-8.3494,1.6454-2.061,3.13-4.3517,5.609-5.6056-5.14,13.93-5.71,28.248-3.6242,42.7906.0161.1125.0108.2292.0371.3388.2815,1.1726.5673,2.3441,1.1,4.5375a88.7367,88.7367,0,0,1,3.7477-34.5174,59.9434,59.9434,0,0,0,3.48,18.6244c3.15,8.399,6.7029,16.6465,10.0229,24.9829C338.8207,351.9758,339.3486,354.0162,339.99,356.0116Z" transform="translate(-184.5044 -281.4186)"/><path class="cls-2" d="M293.592,358.7021a122.4481,122.4481,0,0,0,23.5724.983,251.0566,251.0566,0,0,0,15.6883,34.7134l-5.7675-1.8884-.0616-.0313.0661.0266c2.9352,5.5752,5.9659,11.1031,8.7643,16.7462,1.3444,2.7109,2.25,5.6394,3.3549,8.4694-12.4614-9.7522-22.362-21.409-27.5273-36.2287-.0483.2845-.2081,1.1033-.3215,1.9284-.1163.8462-.1872,1.6987-.3043,2.7945-3.7736-5.9156-7.4623-11.612-8.2736-18.9921a30.3057,30.3057,0,0,0-.4839,11.1886C297.2352,376.6377,293.6738,368.57,293.592,358.7021Z" transform="translate(-184.5044 -281.4186)"/><path class="cls-5" d="M323.2833,293.2764c-2.4794,1.2539-3.9636,3.5446-5.609,5.6056-2.085,2.6116-3.9171,5.4251-5.9992,8.3494l-1.2479-2.9959C303.29,313.1116,297.188,322.55,296.04,334.9512l-3.028-4.2924c-3.4746,8.1726-4.6872,16.9514-4.9568,25.9162a3.7261,3.7261,0,0,1-.3895,1.0782l-1.5313-.2423-.4954-9.5459c-.6616,3.2487-1.2514,6.1449-1.8411,9.0411l-3.7121-.9712c.45-20.3087,8.8827-36.9294,23.4755-50.6757a93.8692,93.8692,0,0,1,20.8081-14.7364Z" transform="translate(-184.5044 -281.4186)"/><path class="cls-3" d="M303.8036,389.0468c-8.6715-3.5647-17.9218-3.6149-27.2227-4.4744l1.5438,1.932a122.3655,122.3655,0,0,1-20.3107-5.1666l1.8113,2.2022-3.1151-.87a25.5763,25.5763,0,0,1-9.1663-10.2574l1.9588,1.0826.0922.094c.0093-.0218.03-.0594.026-.0627a.7172.7172,0,0,0-.0995-.0553c-1.309-2.684-2.2622-5.44-1.81-8.3507l3.65,3.6447c-2.0007-5.1138-2.2423-9.4619.2465-14.1417-.015,6.3908,1.88,11.9355,3.4414,17.61,1.6442,5.9764,5.0227,8.1243,11.0945,8.288,8.8714.2392,17.7445,1.1644,26.5649,2.2279C296.9408,383.2832,300.5591,386.0039,303.8036,389.0468Z" transform="translate(-184.5044 -281.4186)"/><path class="cls-2" d="M286.1339,357.4109l1.5313.2423,4.3714.824a76.6189,76.6189,0,0,0-1.5944,14.638C285.3551,368.5085,287.0721,362.5883,286.1339,357.4109Z" transform="translate(-184.5044 -281.4186)"/><path class="cls-2" d="M280.0853,355.9349l3.7121.9712c-.5308,3.8918-1.0615,7.7836-1.6067,11.7817C279.1563,364.7959,280.2108,360.2622,280.0853,355.9349Z" transform="translate(-184.5044 -281.4186)"/><path class="cls-5" d="M339.4785,426.4164c4.6557.2745,5.8192,1.2579,4.6365,3.9119-.4346-2.6147-3.2094-2.4912-4.631-3.9509Z" transform="translate(-184.5044 -281.4186)"/><polygon class="cls-5" points="154.98 144.959 155.014 144.989 154.975 144.999 154.98 144.959"/><path class="cls-4" d="M342.5739,435.0469l.2127-.0024-.1062.196Z" transform="translate(-184.5044 -281.4186)"/><path class="cls-3" d="M357,382.301l-.0564-.01.0463.0213Z" transform="translate(-184.5044 -281.4186)"/><path class="cls-1" d="M277.18,404.4853c8.6482-4,17.0965-6.1663,24.3286,1.0025,3.6586,3.6266,7.9421,5.9816,13.6715,7.8381C301.2194,413.4394,289.4193,408.5945,277.18,404.4853Zm14.6723,2.3739c2.7113.4572,4.7025,2.6361,7.4953,1.854a7.9559,7.9559,0,0,0-1.0261-1.6455C296.374,405.1751,294.2763,405.25,291.8519,406.8592Z" transform="translate(-184.5044 -281.4186)"/><path class="cls-1" d="M199.1919,480.6559l-.5739-.25c.6487.5147.5517.4378.4548.361A1.2762,1.2762,0,0,1,199.1919,480.6559Z" transform="translate(-184.5044 -281.4186)"/><path class="cls-1" d="M372.7169,444.0187l-.0577.2167a.791.791,0,0,1-.0715-.08,1.64,1.64,0,0,1,.1361-.13Z" transform="translate(-184.5044 -281.4186)"/><path class="cls-1" d="M329.1694,502.9764c.0077-.076.0153-.152.0049-.0486.051-.0912.0156-.0278-.02.0355Z" transform="translate(-184.5044 -281.4186)"/><path class="cls-1" d="M330.5511,515.5964c.0195-.0605.039-.121.0052-.016.1286-.0223.0552-.01-.0181.0032Z" transform="translate(-184.5044 -281.4186)"/><path class="cls-1" d="M365.9293,473.53q.0659-.1056.1312-.2113l.1281.1275-.1967.15Z" transform="translate(-184.5044 -281.4186)"/><path class="cls-1" d="M365.9919,473.5958l-.1073.12c.0151-.0616.03-.1232.0451-.1851Z" transform="translate(-184.5044 -281.4186)"/><path class="cls-2" d="M309.111,512.3032l-.0416.0662.04-.0681Z" transform="translate(-184.5044 -281.4186)"/><path class="cls-1" d="M262.24,515.44l-.2474-.2845a1.25,1.25,0,0,0,.1233-.1089l.2648.2417Z" transform="translate(-184.5044 -281.4186)"/><path class="cls-1" d="M261.9924,515.1554l-.0232-.2654.1465.1565A1.25,1.25,0,0,1,261.9924,515.1554Z" transform="translate(-184.5044 -281.4186)"/><path class="cls-1" d="M320.1684,465.1052l-.0662.1016-.0282-.0622.1075-.0236Z" transform="translate(-184.5044 -281.4186)"/><path class="cls-1" d="M310.1474,471.8505l-.0952.0833-.0024-.069.1085.004Z" transform="translate(-184.5044 -281.4186)"/><path class="cls-3" d="M327.09,392.5054l-.0661-.0266.0616.0313Z" transform="translate(-184.5044 -281.4186)"/><path class="cls-1" d="M249.3214,373.4707a.7172.7172,0,0,1,.0995.0553c.0044.0033-.0167.0409-.026.0627l-.0922-.094Z" transform="translate(-184.5044 -281.4186)"/><path class="cls-5" d="M291.8519,406.8592c2.4244-1.6092,4.5221-1.6841,6.4692.2085a7.9559,7.9559,0,0,1,1.0261,1.6455C296.5544,409.4953,294.5632,407.3164,291.8519,406.8592Z" transform="translate(-184.5044 -281.4186)"/></svg>